<svg xmlns="http://www.w3.org/2000/svg" xmlns:xlink="http://www.w3.org/1999/xlink" width="525" height="525" viewBox="0 0 525 525">
  <defs>
    <clipPath id="clip-path">
      <rect id="사각형_57550" data-name="사각형 57550" width="343.015" height="343" fill="#fff"/>
    </clipPath>
  </defs>
  <g id="그룹_23051" data-name="그룹 23051" transform="translate(102 -1939)">
    <g id="round">
      <path id="타원_148" data-name="타원 148" d="M46.5,1A45.512,45.512,0,0,0,28.79,88.425,45.512,45.512,0,0,0,64.21,4.575,45.214,45.214,0,0,0,46.5,1m0-1A46.5,46.5,0,1,1,0,46.5,46.5,46.5,0,0,1,46.5,0Z" transform="translate(114 2155)" fill="#fff" opacity="0.5"/>
      <path id="타원_150" data-name="타원 150" d="M119.5,1A119.381,119.381,0,0,0,95.617,3.408a117.846,117.846,0,0,0-42.371,17.83A118.849,118.849,0,0,0,10.312,73.375a117.9,117.9,0,0,0-6.9,22.242,119.666,119.666,0,0,0,0,47.766,117.846,117.846,0,0,0,17.83,42.371,118.849,118.849,0,0,0,52.137,42.934,117.9,117.9,0,0,0,22.242,6.9,119.666,119.666,0,0,0,47.766,0,117.846,117.846,0,0,0,42.371-17.83,118.848,118.848,0,0,0,42.934-52.137,117.9,117.9,0,0,0,6.9-22.242,119.666,119.666,0,0,0,0-47.766,117.846,117.846,0,0,0-17.83-42.371,118.849,118.849,0,0,0-52.137-42.934,117.9,117.9,0,0,0-22.242-6.9A119.381,119.381,0,0,0,119.5,1m0-1A119.5,119.5,0,1,1,0,119.5,119.5,119.5,0,0,1,119.5,0Z" transform="translate(41 2082)" fill="#fff" opacity="0.5"/>
      <path id="타원_149" data-name="타원 149" d="M85.5,1A85.129,85.129,0,0,0,68.469,2.717,84.031,84.031,0,0,0,38.256,15.431,84.75,84.75,0,0,0,7.64,52.609a84.066,84.066,0,0,0-4.923,15.86,85.333,85.333,0,0,0,0,34.062,84.031,84.031,0,0,0,12.714,30.213A84.75,84.75,0,0,0,52.609,163.36a84.066,84.066,0,0,0,15.86,4.923,85.333,85.333,0,0,0,34.062,0,84.031,84.031,0,0,0,30.213-12.714,84.75,84.75,0,0,0,30.616-37.178,84.065,84.065,0,0,0,4.923-15.86,85.333,85.333,0,0,0,0-34.062,84.031,84.031,0,0,0-12.714-30.213A84.75,84.75,0,0,0,118.391,7.64a84.065,84.065,0,0,0-15.86-4.923A85.129,85.129,0,0,0,85.5,1m0-1A85.5,85.5,0,1,1,0,85.5,85.5,85.5,0,0,1,85.5,0Z" transform="translate(75 2116)" fill="rgba(251,251,252,0.5)" opacity="0.5"/>
      <path id="타원_151" data-name="타원 151" d="M189.5,1a189.9,189.9,0,0,0-37.99,3.83,187.461,187.461,0,0,0-67.4,28.363,189.054,189.054,0,0,0-68.3,82.935A187.548,187.548,0,0,0,4.83,151.51a190.349,190.349,0,0,0,0,75.981,187.461,187.461,0,0,0,28.363,67.4,189.054,189.054,0,0,0,82.935,68.3A187.548,187.548,0,0,0,151.51,374.17a190.349,190.349,0,0,0,75.981,0,187.461,187.461,0,0,0,67.4-28.363,189.054,189.054,0,0,0,68.3-82.935A187.548,187.548,0,0,0,374.17,227.49a190.349,190.349,0,0,0,0-75.981,187.461,187.461,0,0,0-28.363-67.4,189.054,189.054,0,0,0-82.935-68.3A187.548,187.548,0,0,0,227.49,4.83,189.9,189.9,0,0,0,189.5,1m0-1C294.158,0,379,84.842,379,189.5S294.158,379,189.5,379,0,294.158,0,189.5,84.842,0,189.5,0Z" transform="translate(-29 2012)" fill="rgba(251,251,252,0.5)" opacity="0.5"/>
      <path id="타원_152" data-name="타원 152" d="M262.5,1a263.438,263.438,0,0,0-52.7,5.313,260.061,260.061,0,0,0-93.5,39.347A262.267,262.267,0,0,0,21.55,160.713,260.177,260.177,0,0,0,6.313,209.8a264.06,264.06,0,0,0,0,105.4,260.062,260.062,0,0,0,39.347,93.5A262.267,262.267,0,0,0,160.713,503.45,260.177,260.177,0,0,0,209.8,518.687a264.06,264.06,0,0,0,105.4,0,260.062,260.062,0,0,0,93.5-39.347A262.267,262.267,0,0,0,503.45,364.287,260.176,260.176,0,0,0,518.687,315.2a264.06,264.06,0,0,0,0-105.4,260.061,260.061,0,0,0-39.347-93.5A262.267,262.267,0,0,0,364.287,21.55,260.176,260.176,0,0,0,315.2,6.313,263.438,263.438,0,0,0,262.5,1m0-1C407.475,0,525,117.525,525,262.5S407.475,525,262.5,525,0,407.475,0,262.5,117.525,0,262.5,0Z" transform="translate(-102 1939)" fill="rgba(251,251,252,0.5)" opacity="0.5"/>
    </g>
    <g id="round_type" transform="translate(-12.508 2032)" opacity="0.4">
      <text id="m" transform="translate(98.673 26.819) rotate(149.818)" fill="#fff" font-size="19" font-family="Pretendard-Regular, Pretendard"><tspan x="0" y="0">m</tspan></text>
      <text id="u" transform="translate(81.449 37.083) rotate(143.873)" fill="#fff" font-size="19" font-family="Pretendard-Regular, Pretendard"><tspan x="0" y="0">u</tspan></text>
      <text id="n" transform="translate(71.367 45.705) rotate(139.164)" fill="#fff" font-size="18" font-family="Pretendard-Regular, Pretendard"><tspan x="0" y="0">n</tspan></text>
      <text id="j" transform="matrix(-0.718, 0.696, -0.696, -0.718, 62.827, 55.885)" fill="#fff" font-size="16" font-family="Pretendard-Regular, Pretendard"><tspan x="0" y="0">j</tspan></text>
      <text id="a" transform="translate(58.247 58.805) rotate(132.652)" fill="#fff" font-size="17" font-family="Pretendard-Regular, Pretendard"><tspan x="0" y="0">a</tspan></text>
      <text id="n-2" data-name="n" transform="translate(48.772 67.636) rotate(127.991)" fill="#fff" font-size="18" font-family="Pretendard-Regular, Pretendard"><tspan x="0" y="0">n</tspan></text>
      <text id="g" transform="translate(38.871 77.092) rotate(123.139)" fill="#fff" font-size="20" font-family="Pretendard-Regular, Pretendard"><tspan x="0" y="0">g</tspan></text>
      <text id="_" data-name=" " transform="translate(33.988 90.301) rotate(119.575)" fill="#fff" font-size="17" font-family="Pretendard-Regular, Pretendard"><tspan x="0" y="0"> </tspan></text>
      <text id="m-2" data-name="m" transform="matrix(-0.421, 0.907, -0.907, -0.421, 28.885, 94.737)" fill="#fff" font-size="19" font-family="Pretendard-Regular, Pretendard"><tspan x="0" y="0">m</tspan></text>
      <text id="u-2" data-name="u" transform="translate(20.643 112.974) rotate(108.94)" fill="#fff" font-size="19" font-family="Pretendard-Regular, Pretendard"><tspan x="0" y="0">u</tspan></text>
      <text id="n-3" data-name="n" transform="translate(17.3 125.868) rotate(104.15)" fill="#fff" font-size="18" font-family="Pretendard-Regular, Pretendard"><tspan x="0" y="0">n</tspan></text>
      <text id="j-2" data-name="j" transform="matrix(-0.187, 0.982, -0.982, -0.187, 16.151, 139.095)" fill="#fff" font-size="16" font-family="Pretendard-Regular, Pretendard"><tspan x="0" y="0">j</tspan></text>
      <g id="그룹_22135" data-name="그룹 22135">
        <g id="그룹_22134" data-name="그룹 22134" clip-path="url(#clip-path)">
          <text id="a-2" data-name="a" transform="translate(14.076 144.142) rotate(97.56)" fill="#fff" font-size="17" font-family="Pretendard-Regular, Pretendard"><tspan x="0" y="0">a</tspan></text>
          <text id="n-4" data-name="n" transform="matrix(-0.051, 0.999, -0.999, -0.051, 11.403, 156.745)" fill="#fff" font-size="18" font-family="Pretendard-Regular, Pretendard"><tspan x="0" y="0">n</tspan></text>
          <text id="g-2" data-name="g" transform="translate(8.738 170.171) rotate(88.141)" fill="#fff" font-size="20" font-family="Pretendard-Regular, Pretendard"><tspan x="0" y="0">g</tspan></text>
          <text id="_2" data-name=" " transform="matrix(0.094, 0.996, -0.996, 0.094, 12.308, 183.805)" fill="#fff" font-size="17" font-family="Pretendard-Regular, Pretendard"><tspan x="0" y="0"> </tspan></text>
          <text id="m-3" data-name="m" transform="translate(10.672 190.38) rotate(79.963)" fill="#fff" font-size="19" font-family="Pretendard-Regular, Pretendard"><tspan x="0" y="0">m</tspan></text>
        </g>
      </g>
      <text id="u-3" data-name="u" transform="translate(14.363 210.033) rotate(73.989)" fill="#fff" font-size="19" font-family="Pretendard-Regular, Pretendard"><tspan x="0" y="0">u</tspan></text>
      <text id="n-5" data-name="n" transform="translate(19.021 222.56) rotate(69.185)" fill="#fff" font-size="18" font-family="Pretendard-Regular, Pretendard"><tspan x="0" y="0">n</tspan></text>
      <text id="j-3" data-name="j" transform="translate(25.651 234.029) rotate(65.846)" fill="#fff" font-size="16" font-family="Pretendard-Regular, Pretendard"><tspan x="0" y="0">j</tspan></text>
      <text id="a-3" data-name="a" transform="matrix(0.46, 0.888, -0.888, 0.46, 26.819, 239.31)" fill="#fff" font-size="17" font-family="Pretendard-Regular, Pretendard"><tspan x="0" y="0">a</tspan></text>
      <text id="n-6" data-name="n" transform="translate(31.893 251.247) rotate(57.918)" fill="#fff" font-size="18" font-family="Pretendard-Regular, Pretendard"><tspan x="0" y="0">n</tspan></text>
      <text id="g-3" data-name="g" transform="translate(37.415 263.784) rotate(53.058)" fill="#fff" font-size="20" font-family="Pretendard-Regular, Pretendard"><tspan x="0" y="0">g</tspan></text>
      <text id="_3" data-name=" " transform="translate(48.141 272.847) rotate(49.527)" fill="#fff" font-size="17" font-family="Pretendard-Regular, Pretendard"><tspan x="0" y="0"> </tspan></text>
      <text id="m-4" data-name="m" transform="matrix(0.708, 0.706, -0.706, 0.708, 50.573, 279.156)" fill="#fff" font-size="19" font-family="Pretendard-Regular, Pretendard"><tspan x="0" y="0">m</tspan></text>
      <text id="u-4" data-name="u" transform="matrix(0.777, 0.629, -0.629, 0.777, 64.918, 293.163)" fill="#fff" font-size="19" font-family="Pretendard-Regular, Pretendard"><tspan x="0" y="0">u</tspan></text>
      <text id="n-7" data-name="n" transform="translate(75.849 300.7) rotate(34.279)" fill="#fff" font-size="18" font-family="Pretendard-Regular, Pretendard"><tspan x="0" y="0">n</tspan></text>
      <text id="j-4" data-name="j" transform="translate(87.862 306.324) rotate(30.96)" fill="#fff" font-size="16" font-family="Pretendard-Regular, Pretendard"><tspan x="0" y="0">j</tspan></text>
      <text id="a-4" data-name="a" transform="translate(91.915 310.031) rotate(27.709)" fill="#fff" font-size="17" font-family="Pretendard-Regular, Pretendard"><tspan x="0" y="0">a</tspan></text>
      <text id="n-8" data-name="n" transform="translate(102.853 316.893) rotate(23.014)" fill="#fff" font-size="18" font-family="Pretendard-Regular, Pretendard"><tspan x="0" y="0">n</tspan></text>
      <text id="g-4" data-name="g" transform="translate(114.585 324.025) rotate(18.098)" fill="#fff" font-size="20" font-family="Pretendard-Regular, Pretendard"><tspan x="0" y="0">g</tspan></text>
      <text id="_4" data-name=" " transform="translate(128.576 325.306) rotate(14.517)" fill="#fff" font-size="17" font-family="Pretendard-Regular, Pretendard"><tspan x="0" y="0"> </tspan></text>
      <g id="그룹_22137" data-name="그룹 22137">
        <g id="그룹_22136" data-name="그룹 22136" clip-path="url(#clip-path)">
          <text id="m-5" data-name="m" transform="translate(134.226 329.091) rotate(9.835)" fill="#fff" font-size="19" font-family="Pretendard-Regular, Pretendard"><tspan x="0" y="0">m</tspan></text>
          <text id="u-5" data-name="u" transform="translate(153.936 332.297) rotate(3.922)" fill="#fff" font-size="19" font-family="Pretendard-Regular, Pretendard"><tspan x="0" y="0">u</tspan></text>
          <text id="n-9" data-name="n" transform="translate(167.225 332.206) rotate(-0.928)" fill="#fff" font-size="18" font-family="Pretendard-Regular, Pretendard"><tspan x="0" y="0">n</tspan></text>
          <text id="j-5" data-name="j" transform="translate(180.201 329.902) rotate(-3.989)" fill="#fff" font-size="16" font-family="Pretendard-Regular, Pretendard"><tspan x="0" y="0">j</tspan></text>
          <text id="a-5" data-name="a" transform="translate(185.649 330.616) rotate(-7.222)" fill="#fff" font-size="17" font-family="Pretendard-Regular, Pretendard"><tspan x="0" y="0">a</tspan></text>
        </g>
      </g>
      <text id="n-10" data-name="n" transform="translate(198.559 329.98) rotate(-11.912)" fill="#fff" font-size="18" font-family="Pretendard-Regular, Pretendard"><tspan x="0" y="0">n</tspan></text>
      <text id="g-5" data-name="g" transform="matrix(0.957, -0.289, 0.289, 0.957, 212.212, 329.121)" fill="#fff" font-size="20" font-family="Pretendard-Regular, Pretendard"><tspan x="0" y="0">g</tspan></text>
      <text id="_5" data-name=" " transform="translate(224.435 322.161) rotate(-20.397)" fill="#fff" font-size="17" font-family="Pretendard-Regular, Pretendard"><tspan x="0" y="0"> </tspan></text>
      <text id="m-6" data-name="m" transform="translate(231.238 322.029) rotate(-25.083)" fill="#fff" font-size="19" font-family="Pretendard-Regular, Pretendard"><tspan x="0" y="0">m</tspan></text>
      <text id="u-6" data-name="u" transform="translate(249.292 313.345) rotate(-31.045)" fill="#fff" font-size="19" font-family="Pretendard-Regular, Pretendard"><tspan x="0" y="0">u</tspan></text>
      <text id="n-11" data-name="n" transform="translate(260.127 305.63) rotate(-35.783)" fill="#fff" font-size="18" font-family="Pretendard-Regular, Pretendard"><tspan x="0" y="0">n</tspan></text>
      <text id="j-6" data-name="j" transform="matrix(0.776, -0.63, 0.63, 0.776, 269.49, 296.271)" fill="#fff" font-size="16" font-family="Pretendard-Regular, Pretendard"><tspan x="0" y="0">j</tspan></text>
      <text id="a-6" data-name="a" transform="translate(274.312 293.762) rotate(-42.289)" fill="#fff" font-size="17" font-family="Pretendard-Regular, Pretendard"><tspan x="0" y="0">a</tspan></text>
      <text id="n-12" data-name="n" transform="matrix(0.683, -0.731, 0.731, 0.683, 284.525, 285.806)" fill="#fff" font-size="18" font-family="Pretendard-Regular, Pretendard"><tspan x="0" y="0">n</tspan></text>
      <text id="g-6" data-name="g" transform="translate(295.242 277.238) rotate(-51.795)" fill="#fff" font-size="20" font-family="Pretendard-Regular, Pretendard"><tspan x="0" y="0">g</tspan></text>
      <text id="_6" data-name=" " transform="matrix(0.569, -0.822, 0.822, 0.569, 301.257, 264.535)" fill="#fff" font-size="17" font-family="Pretendard-Regular, Pretendard"><tspan x="0" y="0"> </tspan></text>
      <text id="m-7" data-name="m" transform="matrix(0.5, -0.866, 0.866, 0.5, 306.734, 260.571)" fill="#fff" font-size="19" font-family="Pretendard-Regular, Pretendard"><tspan x="0" y="0">m</tspan></text>
      <text id="u-7" data-name="u" transform="translate(316.571 243.134) rotate(-65.933)" fill="#fff" font-size="19" font-family="Pretendard-Regular, Pretendard"><tspan x="0" y="0">u</tspan></text>
      <text id="n-13" data-name="n" transform="translate(321.065 230.563) rotate(-70.73)" fill="#fff" font-size="18" font-family="Pretendard-Regular, Pretendard"><tspan x="0" y="0">n</tspan></text>
      <text id="j-7" data-name="j" transform="translate(323.384 217.505) rotate(-74.078)" fill="#fff" font-size="16" font-family="Pretendard-Regular, Pretendard"><tspan x="0" y="0">j</tspan></text>
      <text id="a-7" data-name="a" transform="matrix(0.219, -0.976, 0.976, 0.219, 325.896, 212.687)" fill="#fff" font-size="17" font-family="Pretendard-Regular, Pretendard"><tspan x="0" y="0">a</tspan></text>
      <g id="그룹_22139" data-name="그룹 22139">
        <g id="그룹_22138" data-name="그룹 22138" clip-path="url(#clip-path)">
          <text id="n-14" data-name="n" transform="translate(329.693 200.295) rotate(-82.034)" fill="#fff" font-size="18" font-family="Pretendard-Regular, Pretendard"><tspan x="0" y="0">n</tspan></text>
          <text id="g-7" data-name="g" transform="matrix(0.055, -0.999, 0.999, 0.055, 333.53, 187.176)" fill="#fff" font-size="20" font-family="Pretendard-Regular, Pretendard"><tspan x="0" y="0">g</tspan></text>
          <text id="_7" data-name=" " transform="translate(331.183 173.244) rotate(-90.928)" fill="#fff" font-size="17" font-family="Pretendard-Regular, Pretendard"><tspan x="0" y="0"> </tspan></text>
          <text id="m-8" data-name="m" transform="matrix(-0.087, -0.996, 0.996, -0.087, 333.359, 166.884)" fill="#fff" font-size="19" font-family="Pretendard-Regular, Pretendard"><tspan x="0" y="0">m</tspan></text>
        </g>
      </g>
      <text id="u-8" data-name="u" transform="matrix(-0.189, -0.982, 0.982, -0.189, 331.427, 147)" fill="#fff" font-size="19" font-family="Pretendard-Regular, Pretendard"><tspan x="0" y="0">u</tspan></text>
      <text id="n-15" data-name="n" transform="translate(327.913 134.147) rotate(-105.677)" fill="#fff" font-size="18" font-family="Pretendard-Regular, Pretendard"><tspan x="0" y="0">n</tspan></text>
      <text id="j-8" data-name="j" transform="translate(322.332 122.113) rotate(-109.028)" fill="#fff" font-size="16" font-family="Pretendard-Regular, Pretendard"><tspan x="0" y="0">j</tspan></text>
      <text id="a-8" data-name="a" transform="translate(321.618 116.687) rotate(-112.29)" fill="#fff" font-size="17" font-family="Pretendard-Regular, Pretendard"><tspan x="0" y="0">a</tspan></text>
      <text id="n-16" data-name="n" transform="translate(317.644 104.388) rotate(-116.991)" fill="#fff" font-size="18" font-family="Pretendard-Regular, Pretendard"><tspan x="0" y="0">n</tspan></text>
      <text id="g-8" data-name="g" transform="matrix(-0.528, -0.849, 0.849, -0.528, 313.258, 91.416)" fill="#fff" font-size="20" font-family="Pretendard-Regular, Pretendard"><tspan x="0" y="0">g</tspan></text>
      <text id="m-9" data-name="m" transform="matrix(-0.614, -0.789, 0.789, -0.614, 305.02, 79.846)" fill="#fff" font-size="19" font-family="Pretendard-Regular, Pretendard"><tspan x="0" y="0">m</tspan></text>
      <text id="u-9" data-name="u" transform="matrix(-0.692, -0.721, 0.721, -0.692, 292.537, 64.156)" fill="#fff" font-size="19" font-family="Pretendard-Regular, Pretendard"><tspan x="0" y="0">u</tspan></text>
      <text id="n-17" data-name="n" transform="matrix(-0.749, -0.662, 0.662, -0.749, 282.608, 55.285)" fill="#fff" font-size="18" font-family="Pretendard-Regular, Pretendard"><tspan x="0" y="0">n</tspan></text>
      <text id="j-9" data-name="j" transform="translate(271.416 48.226) rotate(-141.838)" fill="#fff" font-size="16" font-family="Pretendard-Regular, Pretendard"><tspan x="0" y="0">j</tspan></text>
      <text id="a-9" data-name="a" transform="translate(267.896 44.069) rotate(-145.055)" fill="#fff" font-size="17" font-family="Pretendard-Regular, Pretendard"><tspan x="0" y="0">a</tspan></text>
      <text id="n-18" data-name="n" transform="matrix(-0.864, -0.504, 0.504, -0.864, 257.883, 35.869)" fill="#fff" font-size="18" font-family="Pretendard-Regular, Pretendard"><tspan x="0" y="0">n</tspan></text>
      <text id="g-9" data-name="g" transform="translate(247.161 27.318) rotate(-154.622)" fill="#fff" font-size="20" font-family="Pretendard-Regular, Pretendard"><tspan x="0" y="0">g</tspan></text>
      <text id="_8" data-name=" " transform="translate(233.447 24.274) rotate(-158.193)" fill="#fff" font-size="17" font-family="Pretendard-Regular, Pretendard"><tspan x="0" y="0"> </tspan></text>
      <text id="m-10" data-name="m" transform="translate(228.342 19.811) rotate(-162.878)" fill="#fff" font-size="19" font-family="Pretendard-Regular, Pretendard"><tspan x="0" y="0">m</tspan></text>
      <text id="u-10" data-name="u" transform="translate(209.153 14.12) rotate(-168.861)" fill="#fff" font-size="19" font-family="Pretendard-Regular, Pretendard"><tspan x="0" y="0">u</tspan></text>
      <g id="그룹_22141" data-name="그룹 22141">
        <g id="그룹_22140" data-name="그룹 22140" clip-path="url(#clip-path)">
          <text id="n-19" data-name="n" transform="translate(195.944 12.56) rotate(-173.614)" fill="#fff" font-size="18" font-family="Pretendard-Regular, Pretendard"><tspan x="0" y="0">n</tspan></text>
          <text id="j-10" data-name="j" transform="matrix(-0.999, -0.054, 0.054, -0.999, 182.69, 13.211)" fill="#fff" font-size="16" font-family="Pretendard-Regular, Pretendard"><tspan x="0" y="0">j</tspan></text>
          <text id="a-10" data-name="a" transform="translate(177.493 11.74) rotate(179.072)" fill="#fff" font-size="17" font-family="Pretendard-Regular, Pretendard"><tspan x="0" y="0">a</tspan></text>
          <text id="n-20" data-name="n" transform="translate(164.633 10.859) rotate(175.332)" fill="#fff" font-size="18" font-family="Pretendard-Regular, Pretendard"><tspan x="0" y="0">n</tspan></text>
        </g>
      </g>
      <text id="g-10" data-name="g" transform="translate(150.935 9.991) rotate(170.457)" fill="#fff" font-size="20" font-family="Pretendard-Regular, Pretendard"><tspan x="0" y="0">g</tspan></text>
      <text id="_9" data-name=" " transform="translate(137.951 15.346) rotate(166.889)" fill="#fff" font-size="17" font-family="Pretendard-Regular, Pretendard"><tspan x="0" y="0"> </tspan></text>
    </g>
  </g>
</svg>
