<svg xmlns="http://www.w3.org/2000/svg" xmlns:xlink="http://www.w3.org/1999/xlink" width="426.208" height="430.339" viewBox="0 0 426.208 430.339">
  <defs>
    <linearGradient id="linear-gradient" x1="1.671" y1="0.881" x2="0.556" y2="0.826" gradientUnits="objectBoundingBox">
      <stop offset="0" stop-color="#a1bdff"/>
      <stop offset="0.254" stop-color="#fbb473"/>
      <stop offset="0.511" stop-color="#f17da3"/>
      <stop offset="0.757" stop-color="#9163db"/>
      <stop offset="1" stop-color="#3d8eff"/>
    </linearGradient>
    <linearGradient id="linear-gradient-2" x1="1.66" y1="0.887" x2="0.563" y2="0.832" xlink:href="#linear-gradient"/>
    <linearGradient id="linear-gradient-3" x1="1.649" y1="0.894" x2="0.57" y2="0.838" xlink:href="#linear-gradient"/>
    <linearGradient id="linear-gradient-4" x1="1.637" y1="0.901" x2="0.576" y2="0.845" xlink:href="#linear-gradient"/>
    <linearGradient id="linear-gradient-5" x1="1.625" y1="0.908" x2="0.584" y2="0.852" xlink:href="#linear-gradient"/>
    <linearGradient id="linear-gradient-6" x1="1.612" y1="0.915" x2="0.592" y2="0.859" xlink:href="#linear-gradient"/>
    <linearGradient id="linear-gradient-7" x1="1.6" y1="0.922" x2="0.582" y2="0.865" xlink:href="#linear-gradient"/>
    <linearGradient id="linear-gradient-8" x1="1.587" y1="0.929" x2="0.585" y2="0.872" xlink:href="#linear-gradient"/>
    <linearGradient id="linear-gradient-9" x1="1.574" y1="0.936" x2="0.587" y2="0.878" xlink:href="#linear-gradient"/>
    <linearGradient id="linear-gradient-10" x1="1.562" y1="0.939" x2="0.59" y2="0.881" xlink:href="#linear-gradient"/>
    <linearGradient id="linear-gradient-11" x1="1.55" y1="0.942" x2="0.592" y2="0.885" xlink:href="#linear-gradient"/>
    <linearGradient id="linear-gradient-12" x1="1.537" y1="0.945" x2="0.594" y2="0.888" xlink:href="#linear-gradient"/>
    <linearGradient id="linear-gradient-13" x1="1.529" y1="0.947" x2="0.596" y2="0.89" xlink:href="#linear-gradient"/>
    <linearGradient id="linear-gradient-14" x1="1.52" y1="0.95" x2="0.598" y2="0.893" xlink:href="#linear-gradient"/>
    <linearGradient id="linear-gradient-15" x1="1.512" y1="0.953" x2="0.6" y2="0.896" xlink:href="#linear-gradient"/>
    <linearGradient id="linear-gradient-16" x1="1.504" y1="0.955" x2="0.601" y2="0.898" xlink:href="#linear-gradient"/>
    <linearGradient id="linear-gradient-17" x1="1.496" y1="0.957" x2="0.602" y2="0.9" xlink:href="#linear-gradient"/>
    <linearGradient id="linear-gradient-18" x1="1.488" y1="0.959" x2="0.604" y2="0.902" xlink:href="#linear-gradient"/>
    <linearGradient id="linear-gradient-19" x1="1.48" y1="0.961" x2="0.605" y2="0.904" xlink:href="#linear-gradient"/>
    <linearGradient id="linear-gradient-20" x1="1.472" y1="0.962" x2="0.606" y2="0.906" xlink:href="#linear-gradient"/>
    <linearGradient id="linear-gradient-21" x1="1.464" y1="0.964" x2="0.607" y2="0.907" xlink:href="#linear-gradient"/>
    <linearGradient id="linear-gradient-22" x1="1.456" y1="0.965" x2="0.608" y2="0.909" xlink:href="#linear-gradient"/>
    <linearGradient id="linear-gradient-23" x1="1.449" y1="0.966" x2="0.608" y2="0.91" xlink:href="#linear-gradient"/>
    <linearGradient id="linear-gradient-24" x1="1.441" y1="0.967" x2="0.609" y2="0.911" xlink:href="#linear-gradient"/>
    <linearGradient id="linear-gradient-25" x1="1.434" y1="0.968" x2="0.61" y2="0.913" xlink:href="#linear-gradient"/>
    <linearGradient id="linear-gradient-26" x1="1.426" y1="0.969" x2="0.611" y2="0.914" xlink:href="#linear-gradient"/>
    <linearGradient id="linear-gradient-27" x1="1.419" y1="0.97" x2="0.61" y2="0.914" xlink:href="#linear-gradient"/>
    <linearGradient id="linear-gradient-28" x1="1.412" y1="0.971" x2="0.611" y2="0.915" xlink:href="#linear-gradient"/>
    <linearGradient id="linear-gradient-29" x1="1.405" y1="0.971" x2="0.611" y2="0.916" xlink:href="#linear-gradient"/>
    <linearGradient id="linear-gradient-30" x1="1.398" y1="0.972" x2="0.612" y2="0.917" xlink:href="#linear-gradient"/>
    <linearGradient id="linear-gradient-31" x1="1.391" y1="0.973" x2="0.613" y2="0.918" xlink:href="#linear-gradient"/>
    <linearGradient id="linear-gradient-32" x1="1.384" y1="0.973" x2="0.613" y2="0.918" xlink:href="#linear-gradient"/>
  </defs>
  <g id="obj2" transform="translate(-2021.57 -386.548)">
    <g id="그룹_21095" data-name="그룹 21095" transform="translate(2064.711 386.548)">
      <path id="패스_2748" data-name="패스 2748" d="M2345.456,816.888q-2.465,0-5.061-.062a127.559,127.559,0,0,1-56.632-14.805c-16.241-8.516-31.5-20.652-45.364-36.073a231.408,231.408,0,0,1-29.467-41.6,280.517,280.517,0,0,1-20.577-46.226,265.472,265.472,0,0,1-11.381-45.841,175.609,175.609,0,0,1-1.874-40.45,276.775,276.775,0,0,1,13.358-65.99,223.456,223.456,0,0,1,27.262-54.914,199.251,199.251,0,0,1,39.614-42.719,201.476,201.476,0,0,1,50.41-29.406l.086.212-.086-.212c18.974-7.68,36.523-11.79,52.159-12.215,15.552-.425,29.444,2.791,41.285,9.555,12.364,7.062,22.663,18.088,30.613,32.773,8,14.781,13.732,33.472,17.029,55.553,4.289,28.719,23.624,63.461,42.322,97.06,9.71,17.447,19.751,35.489,27.261,52.051,6.8,15,10.911,27.425,12.57,38,1.949,12.424.6,22.436-4.132,30.606-3.958,6.838-10.435,12.4-19.25,16.533-9.367,4.391-21.759,7.351-36.83,8.8-26.955,2.585-45.043,8.981-55.3,19.552-9.014,9.294-10.971,20.486-12.864,31.309-1.829,10.464-3.557,20.347-11.524,27.527C2380.808,813.361,2366.87,816.887,2345.456,816.888Zm15.175-429.9c-16.275,0-34.554,4.081-54.714,12.241-75.232,30.451-122.746,100.666-130.359,192.642-3.8,45.935,17.05,122.45,63.182,173.774,29.025,32.291,64.18,49.832,101.667,50.726q2.594.062,5.058.062c21.292,0,35.125-3.488,43.315-10.87,7.849-7.075,9.564-16.882,11.38-27.266,1.9-10.892,3.873-22.154,12.986-31.549,10.332-10.653,28.513-17.093,55.581-19.689,29.35-2.815,47.579-11.026,55.727-25.1,4.675-8.076,6.008-17.989,4.076-30.305-1.653-10.534-5.752-22.925-12.535-37.882-7.5-16.545-17.538-34.578-27.243-52.018-18.719-33.634-38.075-68.414-42.375-97.215-6.6-44.187-22.551-73.792-47.416-88C2387.811,390.169,2375,386.984,2360.63,386.984Z" transform="translate(-2174.64 -386.548)" fill="url(#linear-gradient)"/>
    </g>
    <g id="그룹_21096" data-name="그룹 21096" transform="translate(2064.771 392.013)">
      <path id="패스_2749" data-name="패스 2749" d="M2342.4,828.758c-.61,0-1.222,0-1.844-.008a129.614,129.614,0,0,1-60.148-15.336c-17.456-9.256-33.883-22.729-48.824-40.045a220.656,220.656,0,0,1-27.623-40.811,259.73,259.73,0,0,1-18.591-44.9,239.731,239.731,0,0,1-9.359-44.21,156.414,156.414,0,0,1,.079-38.752c4-28.306,10.086-61.344,24.845-91.765a188.026,188.026,0,0,1,107.8-96.822c38.184-13.594,69.323-13.561,92.551.1,11.823,6.952,21.729,17.55,29.442,31.5,7.776,14.064,13.5,31.859,17.02,52.892,4.567,27.307,23.391,60.32,41.6,92.246,10.075,17.668,20.492,35.938,28.209,52.812,6.769,14.647,10.827,27.035,12.407,37.872,1.812,12.428.35,22.521-4.47,30.853-4.108,7.1-10.782,12.861-19.837,17.118-9.636,4.531-22.312,7.523-37.674,8.895-26.5,2.365-44.358,8.508-54.6,18.78-9.016,9.045-11.156,20.049-13.226,30.69-2.008,10.323-3.9,20.075-11.838,27.3C2379.66,825.06,2365.037,828.758,2342.4,828.758Zm-33.587-412.432.077.216c-48.2,17.159-85.386,50.559-107.543,96.59-14.731,30.365-20.8,63.359-24.8,91.629-6.134,43.364,11.194,117.089,55.388,168.308,31.313,36.292,67.862,54.872,108.629,55.222,23.564.211,38.645-3.44,47.45-11.463,7.821-7.126,9.7-16.8,11.7-27.052,2.083-10.708,4.237-21.782,13.351-30.926,10.318-10.351,28.269-16.537,54.88-18.913,29.97-2.675,48.666-11.109,57.155-25.786,8.831-15.267,6.229-37.609-7.956-68.3-7.708-16.856-18.121-35.116-28.191-52.776-18.225-31.961-37.07-65.01-41.65-92.4-7-41.862-22.559-70.148-46.242-84.073-23.106-13.586-54.115-13.606-92.165-.06Z" transform="translate(-2174.854 -405.939)" fill="url(#linear-gradient-2)"/>
    </g>
    <g id="그룹_21097" data-name="그룹 21097" transform="translate(2064.535 397.428)">
      <path id="패스_2750" data-name="패스 2750" d="M2338.995,840.55a131.151,131.151,0,0,1-59.122-13.936c-17.842-8.911-34.8-22.247-50.405-39.637a204.667,204.667,0,0,1-28.183-40.788,240.83,240.83,0,0,1-18.348-45.269,221.241,221.241,0,0,1-8.369-44.623c-1.123-14.369-.53-27.443,1.764-38.859q.808-4.025,1.592-7.977c6.155-30.93,11.471-57.641,24.39-84.023a175.856,175.856,0,0,1,46.34-58.936,180.054,180.054,0,0,1,62.327-33.21c19.056-5.807,36.371-8.53,51.462-8.095,15.357.444,28.919,4.173,40.308,11.083,11.258,6.831,20.749,16.987,28.21,30.184,7.539,13.337,13.245,30.207,16.959,50.142,4.868,26.125,23.335,57.711,41.195,88.257,10.3,17.615,20.948,35.829,28.833,52.746,6.624,14.211,10.723,26.942,12.183,37.839,1.645,12.283.017,22.752-4.839,31.115-4.261,7.337-11.126,13.27-20.4,17.634-9.888,4.65-22.823,7.662-38.446,8.953-26.048,2.152-43.68,8.05-53.9,18.029-9.018,8.8-11.344,19.623-13.593,30.086-4.3,20.016-8.365,38.921-58.972,39.281C2339.646,840.548,2339.319,840.55,2338.995,840.55Zm-27.947-407.039.067.219c-48.042,14.64-86.535,47.281-108.389,91.909-12.893,26.328-18.2,53.013-24.352,83.91q-.787,3.954-1.593,7.978c-8.878,44.2,8.529,119.551,53.028,169.143,31.809,35.451,68.539,53.42,109.178,53.421.328,0,.653,0,.981,0,22.944-.163,37.724-4.006,46.512-12.094,7.792-7.171,9.843-16.718,12.015-26.824,2.263-10.531,4.6-21.419,13.72-30.318,4.925-4.807,11.324-8.573,19.564-11.513,9.284-3.313,20.609-5.487,34.624-6.645,30.1-2.486,49.778-11.356,58.491-26.36,9.176-15.8,6.767-38.217-7.362-68.531-7.876-16.9-18.52-35.1-28.814-52.708-17.879-30.58-36.367-62.2-41.249-88.4-7.352-39.456-22.478-66.378-44.957-80.018-22.417-13.6-53.168-14.592-91.4-2.942Z" transform="translate(-2174.017 -425.152)" fill="url(#linear-gradient-3)"/>
    </g>
    <g id="그룹_21098" data-name="그룹 21098" transform="translate(2064.074 402.344)">
      <path id="패스_2751" data-name="패스 2751" d="M2335.515,851.108a132.426,132.426,0,0,1-56.75-12.566c-18.228-8.559-35.72-21.758-51.99-39.23a191.591,191.591,0,0,1-28.729-40.774,225.082,225.082,0,0,1-18.109-45.635c-8.449-30.608-9.885-61.224-3.94-84,2.357-9.028,4.358-17.8,6.293-26.29,5.2-22.8,10.109-44.333,20.826-65.946A163.084,163.084,0,0,1,2250.4,479a167.339,167.339,0,0,1,30-18.26A175.118,175.118,0,0,1,2312.65,449.2l.055.222-.055-.222c40.031-10.049,68.585-8.667,89.862,4.351,10.692,6.542,19.5,15.931,26.933,28.7,7.524,12.932,13.434,28.986,18.069,49.079,5.669,24.578,23.378,54.429,40.5,83.3,10.612,17.888,21.586,36.385,29.747,53.656,13.988,29.6,16.286,52.853,6.829,69.112-4.416,7.594-11.481,13.718-21,18.2-10.156,4.784-23.368,7.823-39.269,9.031-25.6,1.945-43.01,7.6-53.222,17.3-9.021,8.567-11.534,19.209-13.963,29.5-4.673,19.794-9.086,38.49-58.333,39.635C2337.709,851.1,2336.609,851.108,2335.515,851.108Zm23.466-408.057c-13.44,0-28.727,2.2-46.219,6.595-48.6,12.2-87.391,43.178-109.233,87.227-10.693,21.564-15.6,43.073-20.79,65.844-1.936,8.49-3.937,17.269-6.3,26.3-11.583,44.368,4.2,120.079,50.669,169.979,33.248,35.7,69.779,52.582,111.688,51.612,48.893-1.137,53.267-19.666,57.9-39.282,2.445-10.357,4.973-21.066,14.093-29.727,4.924-4.675,11.274-8.321,19.416-11.146,9.165-3.18,20.315-5.234,34.086-6.28,30.685-2.331,50.841-11.417,59.907-27.006,9.375-16.121,7.072-39.231-6.848-68.686-8.152-17.252-19.12-35.739-29.727-53.618-17.144-28.9-34.872-58.781-40.557-83.429-9.051-39.241-23.7-64.59-44.794-77.494C2390.386,446.67,2376.2,443.051,2358.98,443.051Z" transform="translate(-2172.382 -442.593)" fill="url(#linear-gradient-4)"/>
    </g>
    <g id="그룹_21099" data-name="그룹 21099" transform="translate(2063.386 406.561)">
      <path id="패스_2752" data-name="패스 2752" d="M2331.149,859.933c-39.922,0-75.189-16.418-107.646-50.065a180.767,180.767,0,0,1-29.261-40.766,211.736,211.736,0,0,1-17.874-46c-8.1-31.094-8.564-61.9-1.282-84.508,3.906-12.128,6.7-23.753,9.392-34.995,4.7-19.593,9.141-38.1,18.863-57.476a147.283,147.283,0,0,1,48.34-55.588c17.627-12.21,38.5-21.361,62.048-27.2l.055.222-.055-.222c37.609-9.327,66.43-7.378,88.11,5.96,10.683,6.572,19.827,16.145,27.179,28.454,7.389,12.372,13.281,28.032,17.511,46.544,5.385,23.564,22.141,50.712,39.881,79.454,10.962,17.761,22.3,36.126,30.593,53.441,6.579,13.731,10.561,26.4,11.837,37.663,1.394,12.307-.456,22.938-5.5,31.6-9.509,16.326-30.271,25.709-61.708,27.887-56.146,3.891-61.606,25.059-66.887,45.529-2.549,9.883-4.957,19.217-12.785,26.548-4.2,3.936-9.579,6.911-16.434,9.1-7.649,2.438-16.958,3.846-28.458,4.305Q2334.093,859.933,2331.149,859.933Zm24.77-401.918c-12.605,0-26.592,1.924-42.078,5.765-35.778,8.873-83.921,30.4-110.089,82.549-9.7,19.329-14.133,37.811-18.828,57.378-2.7,11.25-5.49,22.884-9.4,35.029-7.257,22.531-6.787,53.24,1.288,84.252,8.7,33.405,25.4,64.147,47.022,86.564,32.363,33.55,67.53,49.922,107.319,49.924,1.957,0,3.918-.039,5.9-.118,47.525-1.9,52.25-20.213,57.252-39.605,2.628-10.189,5.346-20.724,14.471-29.155,4.922-4.548,11.226-8.077,19.271-10.79,9.047-3.05,20.023-4.989,33.556-5.927,31.277-2.168,51.916-11.474,61.344-27.661,9.556-16.407,7.359-40.209-6.354-68.832-8.285-17.294-19.614-35.648-30.57-53.4-17.76-28.775-34.536-55.954-39.937-79.592-8.471-37.069-23.021-61.507-44.483-74.711C2388.942,461.9,2373.825,458.015,2355.919,458.015Z" transform="translate(-2169.941 -457.556)" fill="url(#linear-gradient-5)"/>
    </g>
    <g id="그룹_21100" data-name="그룹 21100" transform="translate(2062.533 409.776)">
      <path id="패스_2753" data-name="패스 2753" d="M2326.063,866.262a131.766,131.766,0,0,1-51.087-9.976c-19.26-7.944-37.306-20.509-55.167-38.414-22.282-22.336-39.125-53.279-47.427-87.129-7.745-31.581-7.246-62.566,1.371-85.011,5.339-13.908,8.579-27.154,11.713-39.964,4.35-17.78,8.458-34.573,17.678-52.744,24.714-48.7,70.1-66.814,111.238-78.106,16.212-4.45,31.19-6.421,44.517-5.857,14.44.611,27.417,4.215,38.569,10.712,10.862,6.328,20.311,15.582,28.083,27.507,8.211,12.6,14.8,28.551,19.572,47.417,5.642,22.286,21.917,47.911,39.146,75.04,11.323,17.829,23.032,36.265,31.55,53.8,13.776,28.362,15.8,52.361,5.865,69.4-9.881,16.939-31.133,26.545-63.168,28.551-55.144,3.453-60.97,24.218-66.6,44.3-2.73,9.729-5.309,18.918-13.1,26.269a43.122,43.122,0,0,1-16.188,9.239c-7.492,2.533-16.559,4.075-27.719,4.711Q2330.432,866.261,2326.063,866.262Zm-11.621-391.124.061.221c-41.041,11.266-86.317,29.327-110.951,77.872-9.2,18.123-13.3,34.892-17.641,52.645-3.137,12.824-6.381,26.084-11.73,40.019-8.584,22.36-9.077,53.246-1.354,84.738,8.282,33.77,25.083,64.637,47.307,86.915,32.7,32.774,66.547,48.257,105.879,48.257q4.387,0,8.866-.256c21.031-1.2,34.891-5.593,43.618-13.826,7.7-7.263,10.261-16.393,12.973-26.059,5.678-20.235,11.549-41.16,67.017-44.633,31.873-2,53-11.526,62.8-28.325,9.858-16.9,7.825-40.75-5.881-68.969-8.506-17.514-20.208-35.939-31.525-53.757-17.25-27.161-33.544-52.816-39.2-75.173-9.261-36.585-25.223-61.7-47.441-74.64-21.307-12.412-49.142-14.03-82.735-4.809Z" transform="translate(-2166.912 -468.966)" fill="url(#linear-gradient-6)"/>
    </g>
    <g id="그룹_21101" data-name="그룹 21101" transform="translate(2061.542 413.882)">
      <path id="패스_2754" data-name="패스 2754" d="M2320.734,874.907c-38.671,0-72.29-15.044-104.967-46.766-22.881-22.212-39.826-53.286-47.714-87.5-7.392-32.066-5.927-63.233,4.019-85.508,6.707-15.021,10.214-29.292,13.6-43.094,3.909-15.911,7.953-32.364,16.921-49.85,12.263-23.909,29.449-43.534,49.7-56.752a108.056,108.056,0,0,1,30.718-14.013,85.585,85.585,0,0,1,31.718-2.673c32.376-8.694,59.715-6.523,81.255,6.453,21.815,13.141,37.756,37.419,47.379,72.157,5.833,21.055,21.644,45.184,38.384,70.73,11.7,17.854,23.8,36.316,32.535,54.059,6.558,13.318,10.438,25.927,11.531,37.476,1.166,12.324-.892,23.108-6.117,32.054-4.9,8.39-12.591,15.109-22.854,19.968-11,5.206-25.058,8.32-41.794,9.256-24.292,1.358-41.05,6.348-51.234,15.255-9.042,7.908-12.125,18.051-15.107,27.86-2.782,9.151-5.659,18.613-13.412,25.975a44.2,44.2,0,0,1-15.937,9.369c-7.332,2.623-16.153,4.292-26.969,5.1Q2326.488,874.907,2320.734,874.907Zm-14.681-386.164c-39.405,0-79.942,28.606-103.048,73.656-8.944,17.439-12.98,33.865-16.884,49.751-3.4,13.822-6.908,28.114-13.632,43.172-9.906,22.187-11.361,53.247-3.99,85.219,7.867,34.127,24.767,65.121,47.586,87.272,35.817,34.769,72.764,49.447,116.273,46.195,44.733-3.344,50.163-21.208,55.913-40.12,6.037-19.859,12.28-40.393,66.754-43.439,32.473-1.816,54.1-11.572,64.278-29,10.006-17.128,8.078-41.667-5.429-69.1-8.724-17.718-20.814-36.168-32.507-54.011-16.761-25.577-32.591-49.734-38.443-70.859-19.282-69.608-62.386-95.945-128.115-78.279a.223.223,0,0,1-.084.006A79.87,79.87,0,0,0,2306.054,488.744Z" transform="translate(-2163.398 -483.532)" fill="url(#linear-gradient-7)"/>
    </g>
    <g id="그룹_21102" data-name="그룹 21102" transform="translate(2060.467 418.315)">
      <path id="패스_2755" data-name="패스 2755" d="M2314.76,884.469a131.292,131.292,0,0,1-44.9-7.625c-20.014-7.176-39.1-19.474-58.353-37.6a157.247,157.247,0,0,1-30.8-40.791,181.838,181.838,0,0,1-17.194-47.083,165.353,165.353,0,0,1-3.534-46.612c1.134-15.092,4.565-28.343,10.2-39.385,8.032-15.751,11.7-30.715,15.237-45.185,3.718-15.188,7.562-30.893,16.423-48a152.974,152.974,0,0,1,22.592-32.645,128.05,128.05,0,0,1,28.005-23.335,98.734,98.734,0,0,1,30.972-12.535,76.7,76.7,0,0,1,31.436-.245c31.285-7.51,57.86-4.874,78.982,7.838,21.45,12.909,37.456,36.324,47.573,69.594,6.029,19.827,21.35,42.461,37.571,66.425,12.1,17.87,24.6,36.348,33.572,54.312,13.577,27.2,15.346,51.935,4.981,69.653-5.068,8.664-12.973,15.587-23.494,20.576-11.287,5.353-25.638,8.491-42.655,9.328-23.866,1.174-40.416,5.956-50.595,14.619-9.053,7.7-12.332,17.7-15.5,27.357-2.953,9-6.007,18.3-13.719,25.668a45.381,45.381,0,0,1-15.681,9.484c-7.168,2.708-15.74,4.5-26.208,5.471Q2322.05,884.468,2314.76,884.469Zm-14.768-382.08c-36.88,0-75.455,26.985-97.75,70.016-8.837,17.055-12.674,32.733-16.385,47.895-3.548,14.5-7.218,29.486-15.274,45.285-11.225,22.011-13.64,53.245-6.623,85.692,7.456,34.477,24.453,65.6,47.863,87.637,37.005,34.835,73.337,48.525,117.8,44.39,43.307-4.028,49.092-21.651,55.215-40.31,3.19-9.722,6.49-19.775,15.641-27.563,4.927-4.193,11.1-7.4,18.86-9.794,8.705-2.689,19.176-4.3,32.01-4.934,32.611-1.6,55.356-11.867,65.776-29.677,10.284-17.58,8.51-42.162-5-69.217-8.954-17.936-21.453-36.4-33.541-54.259-16.241-23.993-31.582-46.655-37.63-66.548-20.2-66.418-62.609-92.36-126.06-77.108a.231.231,0,0,1-.1,0A72.77,72.77,0,0,0,2299.992,502.389Z" transform="translate(-2159.583 -499.262)" fill="url(#linear-gradient-8)"/>
    </g>
    <g id="그룹_21103" data-name="그룹 21103" transform="translate(2059.278 422.687)">
      <path id="패스_2756" data-name="패스 2756" d="M2308.5,893.942a130.257,130.257,0,0,1-41.6-6.559c-20.381-6.781-39.99-18.945-59.949-37.187a151.463,151.463,0,0,1-31.3-40.814,174.232,174.232,0,0,1-16.975-47.443,157.92,157.92,0,0,1-2.585-47c1.59-15.23,5.589-28.514,11.889-39.482,9.328-16.242,12.909-31,16.7-46.634,3.563-14.688,7.247-29.876,16.095-46.787a146.911,146.911,0,0,1,23.005-32.568,120.923,120.923,0,0,1,28.488-22.641,90.667,90.667,0,0,1,31.227-11.055,69.907,69.907,0,0,1,31.155,2.184c30.2-6.327,56.008-3.222,76.716,9.228a93.582,93.582,0,0,1,27.707,26.156c7.99,11.17,14.737,24.92,20.053,40.87,6.206,18.62,21.027,39.776,36.717,62.174,12.51,17.858,25.446,36.325,34.649,54.509,6.556,12.955,10.346,25.5,11.263,37.281.96,12.336-1.292,23.267-6.694,32.488-5.239,8.942-13.363,16.073-24.146,21.194-11.583,5.5-26.227,8.663-43.522,9.4-23.447.995-39.792,5.576-49.969,14.008-9.067,7.511-12.544,17.358-15.907,26.88-3.123,8.842-6.352,17.986-14.021,25.347a46.669,46.669,0,0,1-15.42,9.584c-7,2.786-15.321,4.69-25.436,5.821A163.17,163.17,0,0,1,2308.5,893.942Zm-13.963-378.521c-34.839,0-71.748,25.538-93.352,66.832-8.822,16.861-12.5,32.022-16.056,46.683-3.8,15.662-7.387,30.455-16.748,46.753-12.541,21.835-15.913,53.24-9.252,86.16,7.045,34.823,24.14,66.078,48.135,88.009,37.708,34.464,74.509,47.6,119.33,42.583,41.864-4.683,48.285-22.865,54.494-40.45,3.384-9.581,6.882-19.489,16.047-27.08,4.93-4.084,11.057-7.188,18.731-9.488,8.6-2.577,18.9-4.089,31.511-4.624,33.21-1.409,56.48-11.909,67.292-30.364,10.555-18.016,8.927-42.638-4.582-69.331-9.188-18.156-22.115-36.609-34.616-54.454-15.71-22.427-30.549-43.61-36.777-62.292-21.077-63.233-62.8-88.782-124.005-75.938a.228.228,0,0,1-.115-.005A67.466,67.466,0,0,0,2294.542,515.421Z" transform="translate(-2155.365 -514.773)" fill="url(#linear-gradient-9)"/>
    </g>
    <g id="그룹_21104" data-name="그룹 21104" transform="translate(2058.007 424.396)">
      <path id="패스_2757" data-name="패스 2757" d="M2301.688,896.749a126.984,126.984,0,0,1-37.941-5.608c-20.738-6.38-40.869-18.41-61.545-36.778a146.378,146.378,0,0,1-31.793-40.844,167.5,167.5,0,0,1-16.759-47.8,151.385,151.385,0,0,1-1.641-47.377c2.045-15.365,6.615-28.68,13.583-39.575,10.6-16.575,14.218-31.673,18.047-47.656,3.435-14.335,6.986-29.157,15.882-46,12.726-24.1,31.331-43.432,52.388-54.44,21.226-11.1,43.369-12.857,62.358-4.963,14.452-2.551,28.02-2.969,40.33-1.24a90.2,90.2,0,0,1,34.129,11.861,96.513,96.513,0,0,1,27.476,25.328c8.021,10.74,14.9,23.9,20.461,39.124,6.364,17.435,20.674,37.134,35.823,57.989,12.941,17.815,26.323,36.236,35.767,54.643,6.561,12.787,10.31,25.3,11.143,37.181.865,12.341-1.48,23.342-6.969,32.7-11.3,19.257-35.229,30.075-69.206,31.284-23.034.82-39.18,5.21-49.359,13.42-9.084,7.326-12.763,17.037-16.321,26.429-3.29,8.684-6.692,17.664-14.314,25.012-8.56,8.252-21.58,13.426-39.805,15.82A166.745,166.745,0,0,1,2301.688,896.749ZM2289.5,521.3c-12.222,0-24.956,3.279-37.378,9.773-20.976,10.965-39.512,30.231-52.2,54.248-8.869,16.795-12.413,31.589-15.841,45.9-3.839,16.022-7.465,31.156-18.107,47.8-13.852,21.659-18.181,53.231-11.878,86.621,6.638,35.164,23.829,66.554,48.406,88.389,38.94,34.594,75.085,46.789,120.858,40.778,40.4-5.306,47.188-23.218,53.75-40.54,3.58-9.449,7.281-19.219,16.461-26.624,4.936-3.981,11.023-6.989,18.609-9.2,8.49-2.469,18.636-3.884,31.021-4.325,33.813-1.2,57.613-11.943,68.827-31.058,10.659-18.169,9.134-43.478-4.187-69.438-9.428-18.375-22.8-36.782-35.73-54.583-15.169-20.882-29.5-40.606-35.883-58.1-21.92-60.053-62.951-85.209-121.951-74.769a.226.226,0,0,1-.128-.014A63.747,63.747,0,0,0,2289.5,521.3Z" transform="translate(-2150.854 -520.839)" fill="url(#linear-gradient-10)"/>
    </g>
    <g id="그룹_21105" data-name="그룹 21105" transform="translate(2056.666 425.584)">
      <path id="패스_2758" data-name="패스 2758" d="M2294.974,898.282a125.128,125.128,0,0,1-34.565-4.713c-21.086-5.972-41.741-17.869-63.144-36.37a141.893,141.893,0,0,1-32.279-40.881,161.47,161.47,0,0,1-16.546-48.162,145.644,145.644,0,0,1-.7-47.754c2.5-15.5,7.643-28.842,15.279-39.664,11.854-16.8,15.477-32.141,19.312-48.385,3.325-14.082,6.763-28.644,15.752-45.514,12.944-24.295,31.866-43.355,53.281-53.67,21.683-10.444,43.816-10.817,62.335-1.052a129.609,129.609,0,0,1,38.915-.01,93.868,93.868,0,0,1,33.3,12.03,100.062,100.062,0,0,1,27.247,24.5c8.052,10.311,15.069,22.885,20.856,37.372,6.5,16.276,20.292,34.543,34.893,53.883,13.389,17.734,27.233,36.072,36.922,54.7,13.405,25.768,14.789,51.276,3.8,69.984-5.586,9.508-14.159,17.063-25.48,22.456-12.193,5.808-27.427,9.013-45.281,9.526-50.345,1.446-57.711,19.621-65.509,38.863-6.958,17.169-14.153,34.922-53.336,40.858A166.957,166.957,0,0,1,2294.974,898.282Zm-10.143-372.768a76.772,76.772,0,0,0-33.27,8.067c-21.328,10.273-40.177,29.264-53.075,53.473-8.96,16.818-12.392,31.35-15.71,45.4-3.845,16.288-7.478,31.672-19.383,48.543-15.159,21.483-20.445,53.22-14.5,87.075,6.142,34.988,23.883,67.346,48.674,88.776,39.68,34.3,76.281,45.956,122.385,38.972,38.925-5.9,46.07-23.527,52.979-40.577,3.779-9.325,7.687-18.967,16.887-26.195a52.356,52.356,0,0,1,18.493-8.917c8.385-2.367,18.376-3.688,30.541-4.037,34.417-.989,58.755-11.97,70.379-31.756,10.91-18.569,9.521-43.916-3.809-69.541-9.671-18.591-23.5-36.913-36.881-54.632-14.62-19.365-28.429-37.656-34.954-53.989-22.719-56.873-63.06-81.636-119.9-73.6a.228.228,0,0,1-.139-.025A60.945,60.945,0,0,0,2284.831,525.514Z" transform="translate(-2146.096 -525.055)" fill="url(#linear-gradient-11)"/>
    </g>
    <g id="그룹_21106" data-name="그룹 21106" transform="translate(2055.265 426.516)">
      <path id="패스_2759" data-name="패스 2759" d="M2288.117,899.252a122.815,122.815,0,0,1-31.2-3.907c-21.425-5.56-42.6-17.323-64.743-35.963a137.943,137.943,0,0,1-32.762-40.926,158.265,158.265,0,0,1-16.335-48.523,140.6,140.6,0,0,1,.236-48.128c2.918-15.406,8.789-29.15,16.977-39.747,13.092-16.944,16.7-32.467,20.515-48.9,3.229-13.9,6.568-28.278,15.682-45.237a130.337,130.337,0,0,1,29.805-37.4c11.454-9.738,24.234-16.618,36.957-19.9,17.97-4.63,35.162-2.121,49.724,7.257a130.882,130.882,0,0,1,37.5,1.22,98.425,98.425,0,0,1,32.473,12.2,104.354,104.354,0,0,1,27.02,23.675,152.839,152.839,0,0,1,21.238,35.615c6.619,15.145,19.885,32.011,33.929,49.867,13.851,17.611,28.174,35.822,38.111,54.661,13.421,25.443,14.674,50.988,3.439,70.085-5.764,9.8-14.567,17.568-26.164,23.1-12.5,5.965-28.039,9.19-46.171,9.585-49.434,1.078-57.174,18.979-65.369,37.931-7.3,16.881-14.846,34.336-52.522,40.83A166.587,166.587,0,0,1,2288.117,899.252Zm-7.594-370.432a68.712,68.712,0,0,0-17.158,2.246c-26.022,6.7-50.872,28.04-66.472,57.072-9.084,16.906-12.417,31.251-15.639,45.125-3.829,16.484-7.445,32.054-20.6,49.077-16.463,21.306-22.7,53.206-17.123,87.521,5.744,35.32,23.582,67.822,48.94,89.171,50.71,42.694,89.523,43.093,123.913,37.166,37.432-6.452,44.929-23.791,52.179-40.56,4.166-9.635,8.1-18.736,17.325-25.8a52.439,52.439,0,0,1,18.384-8.652c8.285-2.269,18.121-3.5,30.071-3.759,44.25-.964,63.551-18.184,71.95-32.459,11.153-18.956,9.9-44.338-3.449-69.638-9.918-18.8-24.228-37-38.066-54.592-14.062-17.88-27.345-34.768-33.988-49.967-23.465-53.689-63.113-78.058-117.847-72.43a.228.228,0,0,1-.148-.035A58.763,58.763,0,0,0,2280.523,528.819Z" transform="translate(-2141.124 -528.36)" fill="url(#linear-gradient-12)"/>
    </g>
    <g id="그룹_21107" data-name="그룹 21107" transform="translate(2053.803 427.241)">
      <path id="패스_2760" data-name="패스 2760" d="M2281.216,899.808a120.068,120.068,0,0,1-27.941-3.212c-21.754-5.143-43.455-16.774-66.343-35.559a135.053,135.053,0,0,1-35.246-44.875,153.008,153.008,0,0,1-15.135-53.345c-2.921-31.574,4.682-60.72,20.859-79.964,14.318-17.031,17.89-32.686,21.672-49.26,3.144-13.776,6.394-28.021,15.658-45.12,15.961-29.459,41.3-50.41,67.777-56.044,18.245-3.881,35.387-.187,49.579,10.685a133.608,133.608,0,0,1,36.1,2.451,104.18,104.18,0,0,1,31.657,12.375,109.6,109.6,0,0,1,26.793,22.849,153.743,153.743,0,0,1,21.6,33.853c6.716,14.043,19.45,29.544,32.933,45.955,14.328,17.441,29.145,35.475,39.332,54.522,6.5,12.157,10.25,24.909,10.837,36.879.606,12.352-2,23.557-7.741,33.3-5.943,10.088-14.979,18.079-26.856,23.752-12.823,6.124-28.659,9.367-47.068,9.639-48.54.718-56.663,18.369-65.262,37.058-7.63,16.582-15.521,33.729-51.675,40.744a167.612,167.612,0,0,1-29.46,3.3Q2282.248,899.808,2281.216,899.808Zm-4.837-368.418a66.111,66.111,0,0,0-13.765,1.488c-26.35,5.606-51.572,26.471-67.47,55.814-9.234,17.044-12.478,31.258-15.614,45-3.795,16.629-7.379,32.336-21.769,49.452-16.1,19.151-23.664,48.174-20.754,79.627,3.607,38.992,21.91,74.679,50.215,97.908,51.7,42.434,90.845,42.072,125.44,35.36,35.924-6.97,43.764-24.008,51.346-40.485,8.661-18.823,16.843-36.6,65.671-37.324,35.125-.519,61.241-12.3,73.536-33.165,11.39-19.332,10.258-44.748-3.1-69.733-10.166-19.007-24.968-37.024-39.282-54.447-13.5-16.433-26.252-31.955-32.992-46.048-24.146-50.492-63.107-74.469-115.8-71.262a.225.225,0,0,1-.154-.047A57.373,57.373,0,0,0,2276.379,531.39Z" transform="translate(-2135.937 -530.931)" fill="url(#linear-gradient-13)"/>
    </g>
    <g id="그룹_21108" data-name="그룹 21108" transform="translate(2052.305 427.789)">
      <path id="패스_2761" data-name="패스 2761" d="M2274.272,900a116.966,116.966,0,0,1-24.731-2.6c-22.073-4.723-44.3-16.223-67.945-35.156a131.8,131.8,0,0,1-35.705-44.9,148.494,148.494,0,0,1-14.831-53.7c-2.527-32.012,5.994-61.332,23.377-80.443,15.532-17.076,18.9-32.1,22.793-49.5,2.923-13.052,6.236-27.846,15.671-45.122a121.679,121.679,0,0,1,30.705-37.006c11.88-9.4,24.983-15.535,37.892-17.752a59.857,59.857,0,0,1,26,1.053,58.184,58.184,0,0,1,23.633,13.03,138.4,138.4,0,0,1,34.7,3.682,111.547,111.547,0,0,1,30.851,12.55,116.065,116.065,0,0,1,26.569,22.023,155.482,155.482,0,0,1,21.952,32.087c6.791,12.973,18.991,27.148,31.908,42.157,14.82,17.219,30.144,35.024,40.582,54.269,6.519,12.019,10.237,24.737,10.752,36.778a60.571,60.571,0,0,1-7.983,33.5c-6.126,10.382-15.4,18.595-27.559,24.41-13.145,6.286-29.285,9.546-47.97,9.69-47.664.367-56.178,17.794-65.191,36.243-3.92,8.025-7.974,16.323-15.366,23.526-8.346,8.133-19.934,13.717-35.426,17.071A163.207,163.207,0,0,1,2274.272,900Zm-1.847-366.676a64.064,64.064,0,0,0-10.849.945c-26.6,4.567-52.122,24.951-68.273,54.526-9.4,17.219-12.566,31.344-15.626,45-3.91,17.461-7.288,32.54-22.9,49.706-17.3,19.018-25.776,48.213-23.26,80.1,3.058,38.737,21.886,75.477,50.365,98.279,49.806,39.878,86.778,42.255,126.967,33.554,34.4-7.448,42.574-24.175,50.477-40.351,9.078-18.581,17.652-36.132,65.6-36.5,35.727-.275,62.411-12.305,75.138-33.874,11.621-19.695,10.609-45.145-2.777-69.825-10.415-19.2-25.722-36.988-40.527-54.189-12.935-15.029-25.152-29.224-31.967-42.243-24.358-46.531-61.827-70.112-111.378-70.112-.79,0-1.574.006-2.37.018a.217.217,0,0,1-.156-.059A56.552,56.552,0,0,0,2272.425,533.326Z" transform="translate(-2130.623 -532.876)" fill="url(#linear-gradient-14)"/>
    </g>
    <g id="그룹_21109" data-name="그룹 21109" transform="translate(2050.77 428.166)">
      <path id="패스_2762" data-name="패스 2762" d="M2267.429,899.827a114.111,114.111,0,0,1-21.716-2.058c-22.383-4.3-45.133-15.67-69.549-34.757a125.192,125.192,0,0,1-20.751-20.613,135.358,135.358,0,0,1-15.393-24.293,144.38,144.38,0,0,1-14.544-54.009c-2.15-32.476,7.287-62,25.892-80.989,16.738-17.087,20.051-32.174,23.887-49.643,2.855-13,6.09-27.735,15.712-45.219A117.9,117.9,0,0,1,2222,551.526c12.041-9.216,25.256-15.007,38.217-16.748a57.724,57.724,0,0,1,26.311,2.347,59,59,0,0,1,23.537,15.13,146.092,146.092,0,0,1,33.31,4.912,121.149,121.149,0,0,1,30.055,12.726,124.177,124.177,0,0,1,26.346,21.2,158.262,158.262,0,0,1,22.28,30.32c6.844,11.935,18.509,24.831,30.859,38.484,14.61,16.152,31.168,34.459,41.857,53.891,6.538,11.887,10.23,24.57,10.675,36.678a61.556,61.556,0,0,1-8.218,33.691c-13.253,22.428-40.652,34.79-77.15,34.809-46.808.024-55.723,17.252-65.161,35.492-4.063,7.853-8.265,15.974-15.584,23.116-8.273,8.073-19.487,13.723-34.284,17.272C2291.133,898.183,2278.923,899.827,2267.429,899.827Zm1.173-365.162a62.506,62.506,0,0,0-8.327.567c-26.385,3.543-52.788,23.942-68.907,53.235-9.589,17.426-12.817,32.126-15.665,45.1-3.851,17.538-7.177,32.684-24.007,49.865-18.514,18.9-27.9,48.292-25.762,80.639,2.584,39.025,21.467,75.878,50.512,98.584,34.987,27.351,63.565,36.679,91.142,36.679,12.489,0,24.77-1.912,37.352-4.93,32.871-7.885,41.359-24.289,49.568-40.154,4.837-9.348,9.406-18.177,18.729-24.8,10.485-7.451,25.368-10.926,46.838-10.937,36.329-.018,63.588-12.3,76.756-34.584,11.672-19.753,10.751-45.89-2.464-69.916-10.663-19.385-26.49-36.883-41.8-53.8-12.367-13.672-24.048-26.586-30.917-38.564-25.242-44.013-62.823-67.2-111.7-68.928a.23.23,0,0,1-.156-.07C2298.306,540.791,2284.194,534.666,2268.6,534.666Z" transform="translate(-2125.175 -534.215)" fill="url(#linear-gradient-15)"/>
    </g>
    <g id="그룹_21110" data-name="그룹 21110" transform="translate(2049.201 428.402)">
      <path id="패스_2763" data-name="패스 2763" d="M2260.827,899.393a112.3,112.3,0,0,1-19.025-1.61c-22.684-3.878-45.959-15.117-71.155-34.361a122.985,122.985,0,0,1-21.043-20.545,132.234,132.234,0,0,1-15.521-24.337,140.632,140.632,0,0,1-14.274-54.285c-1.791-32.965,8.563-62.706,28.406-81.6,17.935-17.073,21.189-32.2,24.958-49.714,2.791-12.972,5.954-27.675,15.774-45.391a114.425,114.425,0,0,1,31.288-36.395c12.174-9.033,25.476-14.5,38.469-15.8a56.142,56.142,0,0,1,26.7,3.611,60.465,60.465,0,0,1,23.5,17.278c22.875,2.086,43.464,8.493,61.2,19.042a134.509,134.509,0,0,1,26.125,20.371,162.309,162.309,0,0,1,22.586,28.553c6.876,10.93,18.005,22.6,29.787,34.947,15.1,15.83,32.217,33.772,43.156,53.378a80.969,80.969,0,0,1,10.606,36.58A62.526,62.526,0,0,1,2493.923,783c-6.5,10.98-16.253,19.643-28.994,25.747-13.541,6.488-29.92,9.775-48.691,9.776-.367,0-.731,0-1.1,0-.413,0-.829,0-1.235,0-44.91,0-54.152,16.913-63.939,34.811-4.2,7.679-8.54,15.618-15.779,22.689-8.189,8-19.023,13.7-33.121,17.425a174.556,174.556,0,0,1-28.942,5.42C2268.289,899.216,2264.532,899.393,2260.827,899.393Zm4.053-363.887q-3.026,0-6.13.311c-26.517,2.66-53.11,22.57-69.4,51.96-9.788,17.657-12.944,32.324-15.728,45.265-3.784,17.589-7.052,32.779-25.09,49.95-19.746,18.8-30.048,48.408-28.264,81.239,2.134,39.285,21.072,76.23,50.659,98.828,51.911,39.648,89.521,40.644,130.021,29.943,31.33-8.278,40.117-24.349,48.615-39.89,5.073-9.278,9.866-18.042,19.235-24.548,10.522-7.306,25.243-10.633,46.344-10.5.361,0,.726,0,1.085,0,36.395,0,63.819-12.513,77.3-35.3,11.89-20.093,11.08-46.263-2.166-70.006-10.91-19.555-28-37.475-43.087-53.285-11.8-12.368-22.943-24.05-29.844-35.019-25.957-41.261-61.826-63.426-109.656-67.763a.229.229,0,0,1-.154-.08C2296.777,542.728,2281.753,535.506,2264.88,535.506Z" transform="translate(-2119.609 -535.053)" fill="url(#linear-gradient-16)"/>
    </g>
    <g id="그룹_21111" data-name="그룹 21111" transform="translate(2047.603 428.515)">
      <path id="패스_2764" data-name="패스 2764" d="M2254.229,898.706a110.145,110.145,0,0,1-16.41-1.217c-22.975-3.454-46.777-14.565-72.763-33.97a121.061,121.061,0,0,1-21.323-20.47,129.378,129.378,0,0,1-15.645-24.368,137.206,137.206,0,0,1-14.024-54.529c-1.447-33.477,9.824-63.458,30.922-82.255,19.125-17.039,22.315-32.186,26.01-49.726,2.73-12.962,5.825-27.654,15.856-45.622,16.509-29.57,43.389-49.093,70.152-50.951a55.032,55.032,0,0,1,27.163,4.851c8.917,4.111,16.828,10.666,23.517,19.482,21.959,3.348,41.827,10.226,59.052,20.443,18.835,11.172,35.245,26.76,48.775,46.333,6.885,9.959,17.479,20.448,28.7,31.552,15.6,15.448,33.29,32.958,44.475,52.723a78.778,78.778,0,0,1,10.546,36.483,62.458,62.458,0,0,1-20.9,48.92,73.883,73.883,0,0,1-17.495,11.579c-14.143,6.782-31.2,10.083-50.709,9.8-.83-.012-1.655-.018-2.461-.018-43.06,0-52.638,16.625-62.776,34.209-4.324,7.5-8.8,15.256-15.944,22.243-8.095,7.912-18.542,13.645-31.939,17.526C2284.616,895.318,2270.276,898.705,2254.229,898.706Zm7.006-362.8q-2.081,0-4.2.147c-26.611,1.847-53.351,21.281-69.784,50.717-10,17.907-13.084,32.562-15.808,45.493-3.711,17.619-6.916,32.834-26.154,49.973-21,18.7-32.21,48.554-30.769,81.893,1.708,39.522,20.7,76.539,50.809,99.019,53.225,39.744,89.795,40.232,131.547,28.137,29.781-8.626,38.847-24.351,47.614-39.558,5.318-9.223,10.341-17.936,19.764-24.334,10.568-7.176,25.147-10.381,45.877-10.087.752.011,1.5.016,2.248.016,36.422,0,63.99-12.745,77.785-36.02,12.1-20.423,11.4-46.628-1.882-70.1-11.154-19.71-28.816-37.2-44.4-52.623-11.232-11.12-21.841-21.623-28.749-31.617-26.115-37.777-61.314-59.562-107.612-66.6a.231.231,0,0,1-.148-.088C2295.262,544.276,2279.377,535.908,2261.235,535.908Z" transform="translate(-2113.94 -535.453)" fill="url(#linear-gradient-17)"/>
    </g>
    <g id="그룹_21112" data-name="그룹 21112" transform="translate(2045.979 428.519)">
      <path id="패스_2765" data-name="패스 2765" d="M2247.605,897.813a106.865,106.865,0,0,1-13.831-.891c-23.259-3.031-47.587-14.016-74.376-33.585a119.31,119.31,0,0,1-21.592-20.387,126.745,126.745,0,0,1-15.766-24.386,134.061,134.061,0,0,1-13.791-54.744c-1.118-34.01,11.071-64.249,33.442-82.962,20.309-16.988,23.431-32.142,27.048-49.689,2.673-12.968,5.7-27.666,15.953-45.9,8.187-14.563,19.129-26.9,31.643-35.67,12.371-8.672,25.792-13.54,38.812-14.078a54.294,54.294,0,0,1,27.678,6.076c9.052,4.714,16.98,12.029,23.567,21.743,45.142,9.96,79.734,31.414,105.747,65.585,6.869,9.023,16.93,18.39,27.583,28.307,16.117,15,34.384,32.01,45.815,51.918,13.406,23.349,14.006,49.761,1.606,70.652-6.782,11.427-17.317,20.8-30.465,27.11-14.485,6.951-31.854,10.257-51.63,9.826-44.36-.961-54.089,15.075-65.354,33.649-4.439,7.318-9.029,14.886-16.077,21.778-7.987,7.81-18.041,13.558-30.734,17.573C2279.834,893.863,2264.635,897.813,2247.605,897.813Zm9.925-361.886q-1.178,0-2.365.049c-26.674,1.1-53.525,20.076-70.074,49.515-10.216,18.174-13.238,32.835-15.9,45.77-1.82,8.83-3.539,17.171-7.324,25.282-4.2,8.994-10.514,16.831-19.879,24.665-22.262,18.622-34.392,48.727-33.278,82.6,1.306,39.736,20.357,76.806,50.962,99.163,60.318,44.061,98.814,37.168,133.074,26.332,28.226-8.928,37.545-24.293,46.558-39.152,5.571-9.185,10.833-17.861,20.318-24.166,10.625-7.063,25.066-10.148,45.438-9.7,1.085.024,2.169.035,3.24.035,36.052,0,64.53-13.3,78.451-36.748,12.315-20.747,11.714-46.986-1.609-70.19-11.4-19.848-29.636-36.829-45.73-51.811-10.667-9.931-20.743-19.312-27.636-28.365-25.962-34.1-60.495-55.507-105.57-65.435a.227.227,0,0,1-.14-.1C2293.913,545.711,2276.751,535.927,2257.53,535.927Z" transform="translate(-2108.178 -535.468)" fill="url(#linear-gradient-18)"/>
    </g>
    <g id="그룹_21113" data-name="그룹 21113" transform="translate(2044.334 428.426)">
      <path id="패스_2766" data-name="패스 2766" d="M2241.379,896.761a105.974,105.974,0,0,1-11.7-.647c-23.533-2.608-48.391-13.47-75.992-33.206a117.751,117.751,0,0,1-21.851-20.3,124.331,124.331,0,0,1-15.885-24.394,131.171,131.171,0,0,1-13.577-54.934,115.834,115.834,0,0,1,8.355-46.7,90.425,90.425,0,0,1,27.613-37.012c21.487-16.925,24.393-31.349,28.073-49.612,2.617-12.986,5.582-27.7,16.062-46.223,8.208-14.5,19.189-26.706,31.76-35.289,12.442-8.5,25.9-13.1,38.924-13.3a53.848,53.848,0,0,1,28.239,7.291c9.2,5.328,17.156,13.423,23.643,24.06,20.871,6.2,38.806,13.794,54.831,23.222a185.8,185.8,0,0,1,48.835,41.17c6.827,8.119,16.36,16.424,26.453,25.216,16.641,14.5,35.5,30.927,47.174,50.96,13.454,23.092,13.958,49.541,1.348,70.751-6.974,11.731-17.768,21.344-31.215,27.8-14.832,7.121-32.513,10.431-52.554,9.84-43.591-1.286-53.757,14.688-65.532,33.183-4.54,7.132-9.235,14.506-16.172,21.291-7.864,7.692-17.516,13.438-29.507,17.565C2274.467,892.395,2259,896.761,2241.379,896.761ZM2254.065,535.6c-.3,0-.6,0-.9.007-26.717.423-53.651,18.953-70.292,48.36-10.444,18.455-13.4,33.135-16.012,46.088-1.787,8.868-3.475,17.245-7.377,25.329-4.315,8.939-10.944,16.74-20.861,24.552-23.546,18.547-36.593,48.923-35.793,83.34.927,39.931,20.038,77.039,51.122,99.264,61.73,44.139,100.342,36.319,134.6,24.526,26.668-9.18,36.212-24.171,45.442-38.669,5.834-9.163,11.344-17.819,20.9-24.046,10.694-6.969,25-9.941,45.031-9.349,1.461.043,2.914.065,4.352.065,36.126,0,64.77-13.529,79.01-37.481,12.523-21.065,12.019-47.34-1.35-70.286-11.633-19.968-30.465-36.372-47.079-50.845-10.107-8.8-19.653-17.12-26.5-25.266-25.647-30.5-58.544-50.927-103.53-64.273a.229.229,0,0,1-.131-.1C2292.431,546.652,2274.477,535.6,2254.065,535.6Z" transform="translate(-2102.339 -535.137)" fill="url(#linear-gradient-19)"/>
    </g>
    <g id="그룹_21114" data-name="그룹 21114" transform="translate(2042.665 428.247)">
      <path id="패스_2767" data-name="패스 2767" d="M2235,895.529c-3.091,0-6.247-.138-9.476-.435a121.94,121.94,0,0,1-35.37-9.042c-13.406-5.493-27.224-13.275-42.243-23.793a116.328,116.328,0,0,1-22.1-20.206,122.1,122.1,0,0,1-16-24.392,128.5,128.5,0,0,1-13.381-55.1,114.273,114.273,0,0,1,9.195-47.258,91.493,91.493,0,0,1,29.306-37.237c22.66-16.851,25.5-31.259,29.088-49.5,2.562-13.014,5.466-27.764,16.181-46.577,8.221-14.433,19.233-26.5,31.846-34.9,12.5-8.327,25.994-12.673,39.011-12.58A53.714,53.714,0,0,1,2279.9,543c9.363,5.952,17.35,14.846,23.737,26.435,32.839,12.577,70.576,29.925,101.584,63.2,6.756,7.249,15.763,14.55,25.3,22.28,17.178,13.924,36.648,29.7,48.556,49.845,13.507,22.844,13.918,49.331,1.1,70.855-7.169,12.038-18.225,21.891-31.973,28.494-15.183,7.292-33.177,10.6-53.481,9.845-42.841-1.6-53.47,14.34-65.777,32.8-4.627,6.94-9.411,14.116-16.223,20.78a78.919,78.919,0,0,1-28.256,17.5C2269.664,890.564,2253.526,895.529,2235,895.529Zm15.638-360.57c-26.216,0-53.666,18.5-70.042,47.255-10.678,18.748-13.575,33.459-16.13,46.439-3.611,18.339-6.462,32.824-29.264,49.78-24.849,18.478-38.814,49.139-38.316,84.121.572,40.109,19.745,77.241,51.288,99.33,63.277,44.311,100.5,36.032,136.126,22.721,25.109-9.381,35.283-24.64,44.259-38.1,6.108-9.161,11.876-17.814,21.515-23.98,10.776-6.893,24.967-9.76,44.66-9.024q2.76.1,5.47.1c36.2,0,65.011-13.765,79.573-38.219,12.73-21.377,12.319-47.691-1.1-70.388-11.866-20.069-31.3-35.823-48.45-49.722-9.549-7.74-18.569-15.052-25.347-22.324-30.969-33.231-68.683-50.552-101.491-63.113a.23.23,0,0,1-.119-.1c-12.246-22.263-30.791-34.612-52.218-34.771Z" transform="translate(-2096.419 -534.501)" fill="url(#linear-gradient-20)"/>
    </g>
    <g id="그룹_21115" data-name="그룹 21115" transform="translate(2040.978 427.989)">
      <path id="패스_2768" data-name="패스 2768" d="M2228.754,894.156q-3.645,0-7.417-.273a120.732,120.732,0,0,1-35.894-8.632c-13.694-5.424-27.873-13.222-43.347-23.84a115.048,115.048,0,0,1-22.342-20.11,120.035,120.035,0,0,1-16.117-24.383,126.036,126.036,0,0,1-13.2-55.246,112.925,112.925,0,0,1,10.025-47.836,92.762,92.762,0,0,1,31.015-37.475c23.828-16.768,26.594-31.151,30.094-49.362,2.509-13.051,5.353-27.843,16.31-46.96,8.229-14.358,19.263-26.3,31.908-34.521,12.548-8.163,26.06-12.28,39.078-11.907a53.769,53.769,0,0,1,29.468,9.705c9.535,6.587,17.556,16.3,23.843,28.864l3.205,1.54c16.122,7.743,32.793,15.749,49.172,25.391,18.562,10.928,33.977,22.4,47.126,35.073,6.653,6.412,15.138,12.77,24.122,19.5,17.729,13.286,37.823,28.344,49.965,48.574a71.282,71.282,0,0,1,10.381,36.123,67.185,67.185,0,0,1-9.517,34.841c-7.366,12.348-18.687,22.442-32.74,29.194-15.539,7.465-33.845,10.775-54.409,9.839-42.12-1.915-53.231,14.035-66.1,32.506-4.7,6.742-9.552,13.713-16.224,20.241a81.362,81.362,0,0,1-26.979,17.37C2264.89,888.561,2248.152,894.156,2228.754,894.156Zm18.508-360.11c-25.874,0-52.8,17.979-68.985,46.22-10.919,19.051-13.755,33.8-16.257,46.819-3.521,18.312-6.3,32.776-30.281,49.65-26.168,18.414-41.056,49.372-40.846,84.934.238,40.271,19.476,77.416,51.462,99.364,64.865,44.508,102.126,35.291,137.652,20.916,23.551-9.529,33.883-24.362,43-37.448,6.394-9.179,12.434-17.849,22.168-23.971,10.874-6.838,24.959-9.613,44.326-8.731q3.335.151,6.6.151c36.268,0,65.25-14,80.138-38.962,12.937-21.686,12.614-48.039-.863-70.494-12.095-20.152-32.151-35.182-49.846-48.443-8.995-6.741-17.491-13.108-24.165-19.539-29.35-28.286-63.323-44.6-96.179-60.381l-3.276-1.574a.229.229,0,0,1-.106-.1c-12.044-24.12-30.848-37.752-52.949-38.386Q2248.058,534.046,2247.262,534.046Z" transform="translate(-2090.433 -533.587)" fill="url(#linear-gradient-21)"/>
    </g>
    <g id="그룹_21116" data-name="그룹 21116" transform="translate(2039.274 427.662)">
      <path id="패스_2769" data-name="패스 2769" d="M2222.628,892.659q-2.722,0-5.515-.154a119.608,119.608,0,0,1-36.422-8.231c-13.982-5.356-28.524-13.17-44.456-23.887a116.134,116.134,0,0,1-38.807-44.378,123.752,123.752,0,0,1-13.04-55.375,111.768,111.768,0,0,1,10.847-48.432,94.2,94.2,0,0,1,32.741-37.722c24.993-16.678,27.685-31.029,31.094-49.2,2.457-13.1,5.241-27.937,16.446-47.368,8.233-14.279,19.282-26.084,31.952-34.142,12.587-8,26.119-11.9,39.13-11.279a54.008,54.008,0,0,1,30.125,10.909c9.713,7.232,17.772,17.777,23.954,31.345,8.4,4.982,17.023,9.712,26.148,14.718,24.044,13.194,48.906,26.837,71.274,46.09,6.514,5.607,14.479,11.084,22.91,16.882,18.3,12.583,39.038,26.844,51.407,47.144a69.659,69.659,0,0,1,10.358,36.043,68.091,68.091,0,0,1-9.722,35.04c-7.566,12.66-19.155,23-33.516,29.9-15.9,7.638-34.517,10.942-55.338,9.821-41.425-2.232-53.046,13.775-66.5,32.308-4.746,6.536-9.653,13.294-16.168,19.671a84.293,84.293,0,0,1-25.674,17.177C2260.149,886.407,2242.886,892.658,2222.628,892.659Zm21.285-359.773c-25.554,0-51.995,17.5-68,45.255-11.166,19.363-13.942,34.165-16.392,47.224-3.429,18.276-6.136,32.711-31.29,49.5-27.5,18.354-43.317,49.617-43.385,85.774-.075,40.42,19.231,77.568,51.644,99.372,66.549,44.766,103.808,34.584,139.178,19.111,22-9.622,32.441-24.007,41.655-36.7,6.695-9.22,13.018-17.929,22.862-24.024,10.99-6.806,24.984-9.5,44.036-8.471,2.609.14,5.193.21,7.735.211,36.337,0,65.482-14.238,80.7-39.706,13.143-21.993,12.905-48.389-.635-70.609-12.319-20.216-33.015-34.448-51.275-47-8.443-5.806-16.417-11.289-22.95-16.913-22.332-19.222-47.172-32.853-71.2-46.035-9.15-5.021-17.793-9.764-26.223-14.763a.229.229,0,0,1-.092-.1c-11.836-26.02-30.912-40.954-53.714-42.051C2245.69,532.907,2244.8,532.886,2243.913,532.886Z" transform="translate(-2084.388 -532.427)" fill="url(#linear-gradient-22)"/>
    </g>
    <g id="그룹_21117" data-name="그룹 21117" transform="translate(2037.555 427.272)">
      <path id="패스_2770" data-name="패스 2770" d="M2216.614,891.049q-1.86,0-3.756-.073c-11.881-.461-23.968-3.026-36.954-7.84-14.27-5.291-29.176-13.12-45.57-23.935a114.715,114.715,0,0,1-39.148-44.255,121.629,121.629,0,0,1-12.893-55.487,110.78,110.78,0,0,1,11.663-49.042,95.8,95.8,0,0,1,34.482-37.978c26.153-16.582,28.642-30.186,32.086-49.016,2.4-13.145,5.131-28.044,16.588-47.8,8.235-14.2,19.294-25.874,31.982-33.769,12.619-7.853,26.166-11.549,39.172-10.692,23.691,1.563,43.177,17.9,54.871,45.987,13.1,9.466,27.489,17.671,42.719,26.357,17.6,10.038,35.8,20.417,52.621,33.256,6.335,4.835,13.777,9.49,21.657,14.419,18.889,11.815,40.3,25.206,52.893,45.557a68.114,68.114,0,0,1,10.343,35.967,68.988,68.988,0,0,1-9.925,35.243c-7.768,12.974-19.63,23.557-34.3,30.6a100.393,100.393,0,0,1-25.553,8.158,127.8,127.8,0,0,1-30.714,1.632c-40.761-2.544-52.924,13.564-67.006,32.215-9.3,12.315-19.836,26.273-40.384,35.979C2255.448,884.115,2237.735,891.049,2216.614,891.049ZM2240.592,531.5c-25.254,0-51.25,17.058-67.083,44.353-11.417,19.683-14.135,34.54-16.533,47.649-1.712,9.356-3.189,17.436-7.551,25.364-4.766,8.664-12.628,16.276-24.741,23.956-28.857,18.3-45.6,49.874-45.932,86.637-.362,39.951,19.5,78.023,51.836,99.356,68.335,45.084,105.549,33.912,140.7,17.306,20.446-9.658,30.948-23.568,40.214-35.841,7.011-9.286,13.633-18.057,23.6-24.148,11.127-6.8,25.044-9.418,43.8-8.247,39.9,2.488,73.594-12.527,90.146-40.172,13.351-22.3,13.2-48.74-.414-70.733-12.538-20.26-33.9-33.622-52.746-45.41-7.889-4.934-15.341-9.595-21.692-14.443-16.8-12.821-34.982-23.192-52.57-33.222-15.261-8.7-29.677-16.924-42.813-26.421a.23.23,0,0,1-.077-.1c-11.621-27.961-30.977-44.214-54.5-45.766Q2242.418,531.5,2240.592,531.5Z" transform="translate(-2078.289 -531.044)" fill="url(#linear-gradient-23)"/>
    </g>
    <g id="그룹_21118" data-name="그룹 21118" transform="translate(2035.822 426.826)">
      <path id="패스_2771" data-name="패스 2771" d="M2210.7,889.338c-.7,0-1.409-.008-2.121-.023-11.991-.267-24.256-2.707-37.492-7.459-14.56-5.227-29.832-13.073-46.688-23.985a113.4,113.4,0,0,1-39.483-44.126,119.645,119.645,0,0,1-12.762-55.586,109.929,109.929,0,0,1,12.471-49.665,98.071,98.071,0,0,1,36.239-38.241c27.31-16.481,29.728-30.043,33.074-48.815,2.354-13.2,5.021-28.162,16.736-48.243,16.71-28.642,44.661-45.737,71.208-43.548,24.44,2.013,44.212,19.688,55.678,49.767,15.868,13.875,34.8,24.423,54.833,35.589,12.776,7.12,25.988,14.482,38.426,22.828,6.108,4.1,13.024,7.992,20.348,12.114,19.509,10.981,41.62,23.428,54.434,43.812a66.644,66.644,0,0,1,10.335,35.9,69.882,69.882,0,0,1-10.129,35.452c-7.975,13.292-20.11,24.12-35.1,31.315a101.021,101.021,0,0,1-26.03,8.272,126.7,126.7,0,0,1-31.164,1.472c-40.134-2.862-52.871,13.4-67.62,32.239-9.292,11.866-19.823,25.315-38.814,34.994C2250.79,881.7,2232.7,889.338,2210.7,889.338Zm26.6-359.421c-24.976,0-50.56,16.65-66.229,43.509-11.674,20.01-14.334,34.929-16.68,48.092-1.671,9.371-3.113,17.464-7.588,25.345-4.875,8.585-13.041,16.142-25.7,23.781-30.225,18.24-47.9,50.14-48.489,87.521-.632,40.076,19.307,78.134,52.036,99.321,70.231,45.465,107.353,33.276,142.229,15.5,18.9-9.633,28.947-22.461,38.662-34.868,14.829-18.938,27.636-35.291,68.013-32.413q4.873.347,9.625.346c36.232,0,66.538-15.014,82.239-41.184,13.561-22.6,13.486-49.1-.2-70.869-12.753-20.286-34.81-32.7-54.271-43.657-7.332-4.127-14.256-8.025-20.379-12.133-12.423-8.335-25.625-15.693-38.394-22.808-20.077-11.188-39.041-21.756-54.955-35.682a.23.23,0,0,1-.063-.091c-11.4-29.938-31.039-47.527-55.308-49.527C2240.334,529.978,2238.815,529.917,2237.3,529.917Z" transform="translate(-2072.139 -529.459)" fill="url(#linear-gradient-24)"/>
    </g>
    <g id="그룹_21119" data-name="그룹 21119" transform="translate(2034.076 426.327)">
      <path id="패스_2772" data-name="패스 2772" d="M2204.872,887.534l-.59,0c-12.1-.076-24.544-2.394-38.037-7.088-14.85-5.166-30.49-13.029-47.814-24.037a112.2,112.2,0,0,1-39.812-43.993,117.793,117.793,0,0,1-12.646-55.673,109.213,109.213,0,0,1,13.274-50.3,99.77,99.77,0,0,1,15.866-21.383,101.805,101.805,0,0,1,22.144-17.126c28.463-16.375,30.81-29.891,34.057-48.6,2.188-12.6,4.911-28.29,16.888-48.7,16.731-28.517,44.7-45.27,71.25-42.681a55.548,55.548,0,0,1,32.2,14.525c10.281,9.228,18.455,22.371,24.294,39.067,17.227,18.172,39.828,29.936,63.755,42.389,9.078,4.725,18.465,9.61,27.423,14.833,5.828,3.4,12.212,6.59,18.971,9.969,20.162,10.081,43.015,21.507,56.045,41.906a65.237,65.237,0,0,1,10.335,35.833,70.778,70.778,0,0,1-10.333,35.668,83.677,83.677,0,0,1-35.9,32.029,101.677,101.677,0,0,1-26.509,8.381,125.5,125.5,0,0,1-31.61,1.3c-39.547-3.185-52.9,13.3-68.363,32.395-9.672,11.942-19.673,24.29-37.115,33.875C2246.181,879.171,2227.785,887.533,2204.872,887.534Zm29.159-359.388c-24.714,0-49.92,16.275-65.433,42.717-11.935,20.343-14.537,35.329-16.832,48.551-3.269,18.83-5.63,32.435-34.28,48.917-31.609,18.185-50.218,50.413-51.054,88.42-.884,40.191,19.135,78.229,52.245,99.269,72.244,45.908,109.223,32.675,143.754,13.7,17.363-9.542,27.336-21.855,36.98-33.762,15.544-19.192,28.97-35.767,68.756-32.563q5.458.439,10.77.438c36.3,0,66.775-15.245,82.817-41.927,13.775-22.91,13.777-49.459.005-71.018C2448.8,670.593,2426,659.2,2405.894,649.143c-6.765-3.383-13.156-6.578-19-9.983-8.948-5.218-18.33-10.1-27.4-14.823-22.923-11.93-46.626-24.267-63.91-42.516a.23.23,0,0,1-.05-.082c-11.163-31.951-31.1-50.892-56.126-53.334Q2236.728,528.144,2234.031,528.145Z" transform="translate(-2065.945 -527.688)" fill="url(#linear-gradient-25)"/>
    </g>
    <g id="그룹_21120" data-name="그룹 21120" transform="translate(2032.319 425.779)">
      <path id="패스_2773" data-name="패스 2773" d="M2199.118,885.642c-25.091,0-53.456-10.088-86.685-30.823a111.1,111.1,0,0,1-40.136-43.856,116.054,116.054,0,0,1-12.542-55.75,108.6,108.6,0,0,1,14.071-50.941,100.929,100.929,0,0,1,16.632-21.592,104.69,104.69,0,0,1,23.164-17.19c29.613-16.266,31.888-29.732,35.036-48.368,2.139-12.664,4.8-28.426,17.045-49.18,16.746-28.388,44.726-44.819,71.285-41.855,12.255,1.367,23.332,6.661,32.923,15.734,10.479,9.914,18.69,23.955,24.4,41.734,14.969,22.747,41.279,34.412,66.724,45.694,7.43,3.294,15.112,6.7,22.37,10.324,5.49,2.741,11.33,5.292,17.512,7.993,10.693,4.671,21.75,9.5,31.866,15.743,11.489,7.089,19.951,14.968,25.873,24.088A63.9,63.9,0,0,1,2469,723.173a71.687,71.687,0,0,1-10.541,35.893,85.651,85.651,0,0,1-36.708,32.745,102.226,102.226,0,0,1-26.988,8.485,124.28,124.28,0,0,1-32.051,1.114c-39-3.513-53.025,13.27-69.258,32.7-9.521,11.4-19.365,23.183-35.264,32.6-16.369,9.7-34.75,18.705-58.217,18.92C2199.688,885.64,2199.4,885.642,2199.118,885.642Zm31.669-359.44c-24.472,0-49.326,15.924-64.691,41.972-12.2,20.681-14.854,36.4-16.988,49.023-3.17,18.764-5.46,32.321-35.268,48.694-32.522,17.864-52.571,51.26-53.629,89.334-1.12,40.3,18.982,78.312,52.464,99.2,74.32,46.376,112.521,31.306,145.279,11.894,15.83-9.381,25.65-21.136,35.145-32.5,16.316-19.532,30.406-36.4,69.651-32.866,4.036.364,8.022.543,11.936.543,36.363,0,66.991-15.476,83.378-42.667,13.994-23.221,14.072-49.832.208-71.184-13.167-20.279-36.74-30.576-57.538-39.66-6.188-2.7-12.032-5.256-17.534-8-7.248-3.619-14.925-7.023-22.351-10.315-12.729-5.644-25.891-11.48-37.509-18.655-13.055-8.062-22.681-16.97-29.428-27.233a.223.223,0,0,1-.027-.056c-10.919-34-31.144-54.3-56.951-57.182A55.411,55.411,0,0,0,2230.787,526.2Z" transform="translate(-2059.709 -525.744)" fill="url(#linear-gradient-26)"/>
    </g>
    <g id="그룹_21121" data-name="그룹 21121" transform="translate(2030.55 426.759)">
      <path id="패스_2774" data-name="패스 2774" d="M2193.427,887.677c-25.011,0-53.509-10.01-87.022-30.554a110.1,110.1,0,0,1-40.457-43.716,114.435,114.435,0,0,1-12.452-55.818A108.1,108.1,0,0,1,2068.36,706a102.183,102.183,0,0,1,17.4-21.8,107.692,107.692,0,0,1,24.194-17.254c30.76-16.154,32.963-29.565,36.012-48.127,2.091-12.728,4.693-28.568,17.2-49.667,7.678-12.948,17.329-23.414,27.909-30.268,10.6-6.869,22.254-10.185,33.695-9.59,12.647.657,24.785,5.843,36.078,15.413,12.174,10.316,22.868,25.37,31.785,44.741,12.181,26.464,40.754,37.2,68.385,47.574,6.2,2.328,12.607,4.735,18.631,7.26,5.092,2.135,10.373,4.107,15.963,6.2,11.108,4.149,22.595,8.44,33.018,14.248,11.819,6.586,20.489,14.217,26.5,23.328a62.608,62.608,0,0,1,10.355,35.729,72.6,72.6,0,0,1-10.752,36.129,87.648,87.648,0,0,1-37.529,33.463,102.741,102.741,0,0,1-27.468,8.584,122.977,122.977,0,0,1-32.486.913c-38.524-3.856-53.266,13.313-70.337,33.193-9.278,10.8-18.871,21.975-33.229,31.152-16.084,10.28-34.248,19.871-58.046,20.442Q2194.543,887.677,2193.427,887.677Zm28.627-358c-22.253,0-43.442,14.331-58.489,39.7C2151.1,590.4,2148.5,606.2,2146.419,618.887c-1.544,9.4-2.877,17.514-7.688,25.239-5.192,8.334-14.267,15.712-28.562,23.219-33.914,17.81-54.929,51.552-56.214,90.259-1.341,40.4,18.849,78.383,52.691,99.128,76.584,46.945,114.515,30.727,146.8,10.09,14.3-9.14,23.872-20.286,33.128-31.064,8.486-9.883,16.5-19.217,27.212-25.562,11.964-7.088,25.792-9.562,43.518-7.789,49.52,4.956,82.6-18.83,97.046-42.741,14.008-23.185,14.164-50.532.407-71.368-13.365-20.241-36.717-28.964-59.3-37.4-5.595-2.09-10.879-4.064-15.979-6.2-6.016-2.522-12.421-4.927-18.615-7.254-27.719-10.411-56.381-21.176-68.641-47.811-17.146-37.249-41.107-58.518-67.471-59.888Q2223.4,529.676,2222.055,529.676Z" transform="translate(-2053.434 -529.221)" fill="url(#linear-gradient-27)"/>
    </g>
    <g id="그룹_21122" data-name="그룹 21122" transform="translate(2028.772 425.674)">
      <path id="패스_2775" data-name="패스 2775" d="M2187.8,884.483c-24.968,0-53.621-9.941-87.446-30.317a109.177,109.177,0,0,1-40.774-43.575,112.911,112.911,0,0,1-12.374-55.878,107.683,107.683,0,0,1,15.651-52.249,103.549,103.549,0,0,1,18.176-22.018,110.849,110.849,0,0,1,25.233-17.318c31.9-16.039,33.925-28.7,36.984-47.875,2.042-12.794,4.583-28.717,17.368-50.165,15.908-26.687,39.7-41.472,63.644-39.551a54.569,54.569,0,0,1,18.478,4.907,69.15,69.15,0,0,1,17.79,12.067c12.074,11.107,22.308,27.11,30.416,47.565,11.842,29.872,42.691,39.873,72.524,49.545,4.1,1.33,8.348,2.706,12.411,4.1,4.633,1.587,9.338,3.047,14.319,4.592,11.559,3.586,23.511,7.294,34.255,12.633,12.16,6.043,21.04,13.4,27.147,22.493a61.364,61.364,0,0,1,10.376,35.689,73.527,73.527,0,0,1-10.968,36.378,89.664,89.664,0,0,1-38.358,34.183,103.216,103.216,0,0,1-27.948,8.675,121.641,121.641,0,0,1-32.914.694c-38.113-4.213-53.649,13.451-71.639,33.9-8.925,10.146-18.154,20.638-30.971,29.479-10,6.9-18.142,11.511-26.4,14.955a89.213,89.213,0,0,1-31.458,7.023Q2189.575,884.483,2187.8,884.483Zm32.3-358.654c-22.352,0-44.187,14.5-59.089,39.494-12.74,21.372-15.273,37.247-17.309,50-1.5,9.4-2.8,17.522-7.72,25.19-5.295,8.247-14.672,15.562-29.511,23.022-35.32,17.756-57.3,51.847-58.807,91.193-1.547,40.494,18.734,78.445,52.927,99.044,78.983,47.58,116.584,30.183,148.328,8.287,12.771-8.809,21.981-19.279,30.887-29.4,8.926-10.148,17.356-19.732,28.334-26.235,12.279-7.273,26.164-9.758,43.7-7.82a129.274,129.274,0,0,0,14.2.8c42.329,0,71.141-21.948,84.581-44.132,14.239-23.5,14.471-50.929.6-71.574-13.551-20.175-37.753-27.683-61.158-34.944-4.984-1.546-9.692-3.007-14.332-4.6-4.06-1.391-8.3-2.766-12.4-4.1-14.744-4.78-29.99-9.722-43-17.21-14.721-8.473-24.472-19.137-29.809-32.6-15.559-39.251-39.1-62.069-66.293-64.251Q2222.162,525.829,2220.1,525.829Z" transform="translate(-2047.124 -525.371)" fill="url(#linear-gradient-28)"/>
    </g>
    <g id="그룹_21123" data-name="그룹 21123" transform="translate(2026.958 424.605)">
      <path id="패스_2776" data-name="패스 2776" d="M2182.165,881.359c-24.958,0-53.793-9.881-87.953-30.109a108.362,108.362,0,0,1-41.127-43.511,111.6,111.6,0,0,1-12.29-56.036,107.232,107.232,0,0,1,16.46-52.845,104.726,104.726,0,0,1,18.954-22.183,113.783,113.783,0,0,1,26.275-17.318c32.981-15.963,34.933-28.552,37.89-47.607,2-12.861,4.478-28.867,17.6-50.679,7.882-13.209,18.1-23.814,29.542-30.666,11.472-6.868,23.935-9.82,36.041-8.535a55.084,55.084,0,0,1,18.76,5.543,69.166,69.166,0,0,1,17.784,12.969c11.991,11.9,21.768,28.842,29.059,50.368,11.36,33.54,44.43,42.283,76.41,50.739,2.12.56,4.312,1.14,6.443,1.714,4.12,1.108,8.426,2.173,12.59,3.2,24.358,6.019,49.547,12.244,63.368,32.462a60.168,60.168,0,0,1,10.4,35.661,74.483,74.483,0,0,1-11.192,36.641,91.7,91.7,0,0,1-39.2,34.9,103.6,103.6,0,0,1-28.426,8.759,120.211,120.211,0,0,1-33.333.458c-37.8-4.591-54.212,13.7-73.22,34.889-8.439,9.407-17.167,19.134-28.432,27.529-9.615,7.165-17.9,12.2-26.078,15.859a87.117,87.117,0,0,1-31.559,7.67Q2184.575,881.359,2182.165,881.359Zm35.9-359.32c-22.527,0-45,14.628-59.7,39.267-13.075,21.735-15.55,37.692-17.539,50.514-1.456,9.384-2.713,17.489-7.74,25.1-5.465,8.271-14.841,15.319-30.4,22.851-36.717,17.61-59.681,51.985-61.431,91.953a109.241,109.241,0,0,0,53.193,99.132c81.52,48.276,120.095,28.66,149.853,6.485,11.229-8.367,19.94-18.077,28.365-27.467,9.4-10.482,18.288-20.382,29.585-27.1,12.657-7.527,26.649-10.049,44.031-7.937a127.893,127.893,0,0,0,15.413.952c42.3,0,71.355-22.242,85.1-44.856,14.481-23.831,14.789-51.346.8-71.806-13.723-20.074-38.824-26.277-63.1-32.276-4.167-1.03-8.475-2.094-12.6-3.2-2.131-.573-4.322-1.153-6.442-1.713-15.743-4.162-32.022-8.467-45.837-15.956-15.667-8.494-25.771-19.968-30.889-35.078-13.968-41.239-37.129-65.59-65.217-68.571A51.579,51.579,0,0,0,2218.069,522.04Z" transform="translate(-2040.688 -521.578)" fill="url(#linear-gradient-29)"/>
    </g>
    <g id="그룹_21124" data-name="그룹 21124" transform="translate(2025.171 423.601)">
      <path id="패스_2777" data-name="패스 2777" d="M2176.677,878.428c-24.979,0-54.024-9.829-88.539-29.928a107.582,107.582,0,0,1-41.426-43.342,110.2,110.2,0,0,1-12.24-56.049,105.842,105.842,0,0,1,36.966-75.953,117.264,117.264,0,0,1,27.333-17.4c34.14-15.83,36.025-28.366,38.879-47.341,1.945-12.932,4.365-29.026,17.746-51.191,8-13.316,18.506-23.963,30.394-30.788,11.917-6.841,24.786-9.594,37.217-7.958a55.687,55.687,0,0,1,19.029,6.183,69.314,69.314,0,0,1,17.756,13.857c11.882,12.666,21.184,30.522,27.649,53.075,10.707,37.35,45.819,44.323,79.775,51.066l1,.2c3.563.708,7.241,1.386,10.8,2.043,25.278,4.662,51.416,9.483,65.4,29.566a59.013,59.013,0,0,1,10.438,35.645,75.466,75.466,0,0,1-11.426,36.923,90.579,90.579,0,0,1-16.794,20.142,97.23,97.23,0,0,1-23.252,15.481,103.915,103.915,0,0,1-28.9,8.835,118.729,118.729,0,0,1-33.742.2c-37.609-5.006-55.012,14.109-75.163,36.242-7.79,8.556-15.844,17.4-25.532,25.213-14.252,11.49-32.216,23.456-57.392,25.093Q2179.7,878.428,2176.677,878.428Zm39.244-359.958c-22.844,0-45.386,14.429-60.133,38.987-13.334,22.087-15.747,38.131-17.686,51.022-2.876,19.122-4.775,31.755-39.14,47.689-38.154,17.584-62.092,52.336-64.033,92.962a108.026,108.026,0,0,0,53.438,98.973c84.211,49.039,122.292,28.13,151.377,4.682,9.661-7.788,17.7-16.622,25.481-25.164,9.93-10.907,19.31-21.209,30.994-28.22,13.12-7.873,27.281-10.468,44.568-8.167,51.244,6.82,86.413-18.486,102.239-44.443,14.737-24.171,15.121-51.785,1-72.067-13.872-19.928-39.916-24.732-65.1-29.377-3.559-.656-7.239-1.335-10.8-2.044l-1-.2c-16.7-3.317-33.974-6.747-48.486-14.056-16.467-8.294-26.816-20.506-31.64-37.333-16.683-58.194-47.292-70.582-64.053-72.787A53.835,53.835,0,0,0,2215.921,518.471Z" transform="translate(-2034.346 -518.016)" fill="url(#linear-gradient-30)"/>
    </g>
    <g id="그룹_21125" data-name="그룹 21125" transform="translate(2023.405 422.632)">
      <path id="패스_2778" data-name="패스 2778" d="M2171.415,875.548c-25.021,0-54.326-9.762-89.3-29.708a107.186,107.186,0,0,1-41.719-43.29,108.983,108.983,0,0,1-12.168-56.121,106.736,106.736,0,0,1,18.009-54.124,107.985,107.985,0,0,1,20.5-22.609,120.875,120.875,0,0,1,28.367-17.458c35.3-15.7,37.115-28.176,39.866-47.067,1.895-13,4.252-29.19,17.9-51.711,8.1-13.408,18.9-24.08,31.217-30.863,12.351-6.8,25.615-9.346,38.36-7.366a56.412,56.412,0,0,1,19.317,6.814,69.63,69.63,0,0,1,17.747,14.735c11.778,13.426,20.614,32.179,26.261,55.737,9.838,41.043,48.015,46.052,78.692,50.078,2.982.391,6.035.765,8.987,1.127,13.09,1.6,26.626,3.261,38.386,6.967,13.22,4.166,22.725,10.53,29.056,19.459a57.89,57.89,0,0,1,10.479,35.642c-.393,12.518-4.429,25.391-11.671,37.225a92.9,92.9,0,0,1-17.183,20.563,99.013,99.013,0,0,1-23.722,15.78,104.14,104.14,0,0,1-29.375,8.9,117.162,117.162,0,0,1-34.139-.079c-37.6-5.467-57.023,15.7-77.588,38.1-6.927,7.547-14.091,15.351-22.149,22.391-9.026,7.885-17.077,13.509-25.336,17.7a82.967,82.967,0,0,1-31.748,8.916Q2175,875.548,2171.415,875.548Zm42.674-360.5c-23.039,0-46.222,14.483-60.823,38.65-13.6,22.443-15.946,38.576-17.834,51.54-1.425,9.782-2.55,17.509-7.806,25-5.673,8.086-15.643,15-32.328,22.419-39.547,17.531-64.448,52.595-66.609,93.8a107.113,107.113,0,0,0,53.657,98.989c78.431,44.735,117.848,33.505,152.9,2.88,8.04-7.024,15.194-14.818,22.114-22.356,10.516-11.456,20.448-22.276,32.606-29.686a62.878,62.878,0,0,1,20.166-8.092,71.512,71.512,0,0,1,25.219-.464c51.767,7.526,87.646-18.284,103.962-44.948,15.008-24.525,15.471-52.253,1.209-72.363-13.99-19.728-41-23.036-67.125-26.236-2.953-.362-6.006-.736-8.991-1.127-17.67-2.319-34.693-4.972-48.718-11.874-16.112-7.929-26.042-20.539-30.36-38.551-10.627-44.333-33.571-72.377-62.95-76.941A53.972,53.972,0,0,0,2214.089,515.048Z" transform="translate(-2028.081 -514.58)" fill="url(#linear-gradient-31)"/>
    </g>
    <g id="그룹_21126" data-name="그룹 21126" transform="translate(2021.57 421.695)">
      <path id="패스_2779" data-name="패스 2779" d="M2165.916,872.9c-22.985,0-51.906-8.169-89.994-29.637a106.217,106.217,0,0,1-42.019-43.01,107.6,107.6,0,0,1,6.59-110.985,109.851,109.851,0,0,1,21.311-22.891,124.5,124.5,0,0,1,29.471-17.57c36.451-15.557,38.107-27.311,40.852-46.785,1.844-13.079,4.138-29.357,18.047-52.239,8.2-13.485,19.264-24.168,32.007-30.894,12.77-6.741,26.416-9.08,39.463-6.764,14.1,2.5,27.025,10.47,37.383,23.04,11.685,14.18,20.065,33.816,24.907,58.364,3.954,20.043,14.186,33.318,31.279,40.582,15.223,6.469,34.2,7.637,52.544,8.767,13.63.839,27.725,1.707,39.821,4.791a63.361,63.361,0,0,1,16.69,6.594,41.689,41.689,0,0,1,12.944,11.654,56.8,56.8,0,0,1,10.527,35.656c-.441,12.581-4.567,25.566-11.932,37.552a95.28,95.28,0,0,1-17.579,20.984,100.794,100.794,0,0,1-24.195,16.074,104.261,104.261,0,0,1-29.844,8.951,115.459,115.459,0,0,1-34.521-.385c-37.855-6-58.661,16.683-80.688,40.7-5.783,6.3-11.763,12.823-18.093,18.829C2214.368,859.946,2194.845,872.894,2165.916,872.9Zm45.793-361.188c-23.317,0-46.525,14.261-61.143,38.31-13.86,22.8-16.147,39.027-17.984,52.065-1.379,9.785-2.468,17.514-7.839,24.946-5.775,7.991-16.041,14.836-33.287,22.2-41.065,17.527-66.958,53.035-69.265,94.984a105.821,105.821,0,0,0,53.956,98.65c85.768,48.342,124.907,29.088,154.426,1.079,6.319-5.995,12.293-12.508,18.071-18.807,11.174-12.181,21.729-23.687,34.486-31.656a65.429,65.429,0,0,1,20.953-8.715,68.3,68.3,0,0,1,25.657-.467c52.311,8.287,89.621-19.283,105.677-45.412,15.3-24.9,15.844-52.755,1.424-72.7-14.071-19.461-40.807-21.107-69.112-22.85-37.045-2.281-75.351-4.64-84.244-49.717-9.1-46.133-31.67-75.672-61.92-81.042A56.352,56.352,0,0,0,2211.709,511.707Z" transform="translate(-2021.57 -511.253)" fill="url(#linear-gradient-32)"/>
    </g>
  </g>
</svg>
