<svg xmlns="http://www.w3.org/2000/svg" xmlns:xlink="http://www.w3.org/1999/xlink" width="1920" height="810" viewBox="0 0 1920 810">
  <defs>
    <clipPath id="clip-path">
      <rect id="mask" width="1920" height="810" transform="translate(0 2032)" fill="#e34891"/>
    </clipPath>
  </defs>
  <g id="bg" transform="translate(0 -2032)" clip-path="url(#clip-path)">
    <g id="round" transform="translate(211 131)">
      <path id="타원_148" data-name="타원 148" d="M46.5,1A45.512,45.512,0,0,0,28.79,88.425,45.512,45.512,0,0,0,64.21,4.575,45.214,45.214,0,0,0,46.5,1m0-1A46.5,46.5,0,1,1,0,46.5,46.5,46.5,0,0,1,46.5,0Z" transform="translate(114 2155)" fill="#fff" opacity="0.5"/>
      <path id="타원_150" data-name="타원 150" d="M119.5,1A119.381,119.381,0,0,0,95.617,3.408a117.846,117.846,0,0,0-42.371,17.83A118.849,118.849,0,0,0,10.312,73.375a117.9,117.9,0,0,0-6.9,22.242,119.666,119.666,0,0,0,0,47.766,117.846,117.846,0,0,0,17.83,42.371,118.849,118.849,0,0,0,52.137,42.934,117.9,117.9,0,0,0,22.242,6.9,119.666,119.666,0,0,0,47.766,0,117.846,117.846,0,0,0,42.371-17.83,118.848,118.848,0,0,0,42.934-52.137,117.9,117.9,0,0,0,6.9-22.242,119.666,119.666,0,0,0,0-47.766,117.846,117.846,0,0,0-17.83-42.371,118.849,118.849,0,0,0-52.137-42.934,117.9,117.9,0,0,0-22.242-6.9A119.381,119.381,0,0,0,119.5,1m0-1A119.5,119.5,0,1,1,0,119.5,119.5,119.5,0,0,1,119.5,0Z" transform="translate(41 2082)" fill="#fff" opacity="0.5"/>
      <path id="타원_149" data-name="타원 149" d="M85.5,1A85.129,85.129,0,0,0,68.469,2.717,84.031,84.031,0,0,0,38.256,15.431,84.75,84.75,0,0,0,7.64,52.609a84.066,84.066,0,0,0-4.923,15.86,85.333,85.333,0,0,0,0,34.062,84.031,84.031,0,0,0,12.714,30.213A84.75,84.75,0,0,0,52.609,163.36a84.066,84.066,0,0,0,15.86,4.923,85.333,85.333,0,0,0,34.062,0,84.031,84.031,0,0,0,30.213-12.714,84.75,84.75,0,0,0,30.616-37.178,84.065,84.065,0,0,0,4.923-15.86,85.333,85.333,0,0,0,0-34.062,84.031,84.031,0,0,0-12.714-30.213A84.75,84.75,0,0,0,118.391,7.64a84.065,84.065,0,0,0-15.86-4.923A85.129,85.129,0,0,0,85.5,1m0-1A85.5,85.5,0,1,1,0,85.5,85.5,85.5,0,0,1,85.5,0Z" transform="translate(75 2116)" fill="rgba(251,251,252,0.5)" opacity="0.5"/>
      <path id="타원_151" data-name="타원 151" d="M189.5,1a189.9,189.9,0,0,0-37.99,3.83,187.461,187.461,0,0,0-67.4,28.363,189.054,189.054,0,0,0-68.3,82.935A187.548,187.548,0,0,0,4.83,151.51a190.349,190.349,0,0,0,0,75.981,187.461,187.461,0,0,0,28.363,67.4,189.054,189.054,0,0,0,82.935,68.3A187.548,187.548,0,0,0,151.51,374.17a190.349,190.349,0,0,0,75.981,0,187.461,187.461,0,0,0,67.4-28.363,189.054,189.054,0,0,0,68.3-82.935A187.548,187.548,0,0,0,374.17,227.49a190.349,190.349,0,0,0,0-75.981,187.461,187.461,0,0,0-28.363-67.4,189.054,189.054,0,0,0-82.935-68.3A187.548,187.548,0,0,0,227.49,4.83,189.9,189.9,0,0,0,189.5,1m0-1C294.158,0,379,84.842,379,189.5S294.158,379,189.5,379,0,294.158,0,189.5,84.842,0,189.5,0Z" transform="translate(-29 2012)" fill="rgba(251,251,252,0.5)" opacity="0.5"/>
      <path id="타원_152" data-name="타원 152" d="M262.5,1a263.438,263.438,0,0,0-52.7,5.313,260.061,260.061,0,0,0-93.5,39.347A262.267,262.267,0,0,0,21.55,160.713,260.177,260.177,0,0,0,6.313,209.8a264.06,264.06,0,0,0,0,105.4,260.062,260.062,0,0,0,39.347,93.5A262.267,262.267,0,0,0,160.713,503.45,260.177,260.177,0,0,0,209.8,518.687a264.06,264.06,0,0,0,105.4,0,260.062,260.062,0,0,0,93.5-39.347A262.267,262.267,0,0,0,503.45,364.287,260.176,260.176,0,0,0,518.687,315.2a264.06,264.06,0,0,0,0-105.4,260.061,260.061,0,0,0-39.347-93.5A262.267,262.267,0,0,0,364.287,21.55,260.176,260.176,0,0,0,315.2,6.313,263.438,263.438,0,0,0,262.5,1m0-1C407.475,0,525,117.525,525,262.5S407.475,525,262.5,525,0,407.475,0,262.5,117.525,0,262.5,0Z" transform="translate(-102 1939)" fill="rgba(251,251,252,0.5)" opacity="0.5"/>
    </g>
    <path id="round2" d="M262.5,22C129.888,22,22,129.888,22,262.5S129.888,503,262.5,503,503,395.112,503,262.5,395.112,22,262.5,22m0-22C407.475,0,525,117.525,525,262.5S407.475,525,262.5,525,0,407.475,0,262.5,117.525,0,262.5,0Z" transform="translate(1228 2749)" fill="rgba(251,251,252,0.5)" opacity="0.2"/>
  </g>
</svg>
