<svg xmlns="http://www.w3.org/2000/svg" xmlns:xlink="http://www.w3.org/1999/xlink" width="42.54" height="52.684" viewBox="0 0 42.54 52.684">
  <defs>
    <clipPath id="clip-path">
      <rect id="사각형_57727" data-name="사각형 57727" width="42.54" height="52.684" fill="none" stroke="#202020" stroke-width="1.5"/>
    </clipPath>
  </defs>
  <g id="icon2" transform="translate(0 0)">
    <g id="그룹_22972" data-name="그룹 22972" transform="translate(0 0)" clip-path="url(#clip-path)">
      <path id="패스_48314" data-name="패스 48314" d="M23.278,19.366a7.78,7.78,0,1,0-14.656.026A7.757,7.757,0,0,0,9.276,34.88a7.638,7.638,0,0,0,3.948-1.089l2.84-1.731,2.786,1.7a7.6,7.6,0,0,0,4,1.123,7.763,7.763,0,0,0,.427-15.515Z" transform="translate(-0.644 -3.901)" fill="none" stroke="#202020" stroke-linecap="round" stroke-linejoin="round" stroke-width="1.5"/>
      <line id="선_666" data-name="선 666" y2="32.575" transform="translate(15.421 19.253)" fill="none" stroke="#202020" stroke-linecap="round" stroke-linejoin="round" stroke-width="1.5"/>
      <path id="패스_48315" data-name="패스 48315" d="M28.187,40.17l-4.95,2.794-4.92-2.794" transform="translate(-7.866 -17.25)" fill="none" stroke="#202020" stroke-linecap="round" stroke-linejoin="round" stroke-width="1.5"/>
      <path id="패스_48316" data-name="패스 48316" d="M57.288,60.844a4.19,4.19,0,1,0-7.894.014,4.178,4.178,0,0,0,.353,8.342,4.112,4.112,0,0,0,2.127-.587l1.53-.932,1.5.913a4.1,4.1,0,0,0,2.155.6,4.181,4.181,0,0,0,.23-8.356Z" transform="translate(-19.564 -23.75)" fill="none" stroke="#202020" stroke-linecap="round" stroke-linejoin="round" stroke-width="1.5"/>
      <line id="선_667" data-name="선 667" y2="12.164" transform="translate(33.84 39.135)" fill="none" stroke="#202020" stroke-linecap="round" stroke-linejoin="round" stroke-width="1.5"/>
      <path id="패스_48317" data-name="패스 48317" d="M59.932,72.05l-2.666,1.5-2.65-1.5" transform="translate(-23.453 -30.94)" fill="none" stroke="#202020" stroke-linecap="round" stroke-linejoin="round" stroke-width="1.5"/>
      <line id="선_668" data-name="선 668" x2="40.828" transform="translate(0.856 51.829)" fill="none" stroke="#202020" stroke-linecap="round" stroke-linejoin="round" stroke-width="1.5"/>
      <line id="선_669" data-name="선 669" y2="3.423" transform="translate(38.875 4.967)" fill="none" stroke="#202020" stroke-linecap="round" stroke-linejoin="round" stroke-width="1.5"/>
      <line id="선_670" data-name="선 670" y2="5.575" transform="translate(38.875 12.107)" fill="none" stroke="#202020" stroke-linecap="round" stroke-linejoin="round" stroke-width="1.5" stroke-dasharray="6.514 6.514"/>
      <line id="선_671" data-name="선 671" y2="3.423" transform="translate(38.875 19.541)" fill="none" stroke="#202020" stroke-linecap="round" stroke-linejoin="round" stroke-width="1.5"/>
      <line id="선_672" data-name="선 672" y2="3.423" transform="translate(7.615 22.776)" fill="none" stroke="#202020" stroke-linecap="round" stroke-linejoin="round" stroke-width="1.5"/>
      <line id="선_673" data-name="선 673" y2="5.575" transform="translate(7.615 29.917)" fill="none" stroke="#202020" stroke-linecap="round" stroke-linejoin="round" stroke-width="1.5" stroke-dasharray="6.514 6.514"/>
      <line id="선_674" data-name="선 674" y2="3.423" transform="translate(7.615 37.35)" fill="none" stroke="#202020" stroke-linecap="round" stroke-linejoin="round" stroke-width="1.5"/>
      <line id="선_675" data-name="선 675" y2="3.423" transform="translate(1.653 34.298)" fill="none" stroke="#202020" stroke-linecap="round" stroke-linejoin="round" stroke-width="1.5"/>
      <line id="선_676" data-name="선 676" y2="3.423" transform="translate(1.653 40.98)" fill="none" stroke="#202020" stroke-linecap="round" stroke-linejoin="round" stroke-width="1.5"/>
      <line id="선_677" data-name="선 677" y2="3.423" transform="translate(33.243 9.35)" fill="none" stroke="#202020" stroke-linecap="round" stroke-linejoin="round" stroke-width="1.5"/>
      <line id="선_678" data-name="선 678" y2="5.575" transform="translate(33.243 16.491)" fill="none" stroke="#202020" stroke-linecap="round" stroke-linejoin="round" stroke-width="1.5" stroke-dasharray="6.514 6.514"/>
      <line id="선_679" data-name="선 679" y2="3.423" transform="translate(33.243 23.925)" fill="none" stroke="#202020" stroke-linecap="round" stroke-linejoin="round" stroke-width="1.5"/>
      <line id="선_680" data-name="선 680" y2="3.423" transform="translate(27.467 0.856)" fill="none" stroke="#202020" stroke-linecap="round" stroke-linejoin="round" stroke-width="1.5"/>
      <line id="선_681" data-name="선 681" y2="5.575" transform="translate(27.467 7.996)" fill="none" stroke="#202020" stroke-linecap="round" stroke-linejoin="round" stroke-width="1.5" stroke-dasharray="6.514 6.514"/>
      <line id="선_682" data-name="선 682" y2="3.423" transform="translate(27.467 15.43)" fill="none" stroke="#202020" stroke-linecap="round" stroke-linejoin="round" stroke-width="1.5"/>
    </g>
  </g>
</svg>
