<svg xmlns="http://www.w3.org/2000/svg" xmlns:xlink="http://www.w3.org/1999/xlink" width="55.212" height="48.685" viewBox="0 0 55.212 48.685">
  <defs>
    <clipPath id="clip-path">
      <rect id="사각형_57723" data-name="사각형 57723" width="55.212" height="48.685" fill="none" stroke="#202020" stroke-width="1.5"/>
    </clipPath>
  </defs>
  <g id="icon3" transform="translate(0 0)">
    <line id="선_650" data-name="선 650" y1="7.017" x2="11.161" transform="translate(21.861 26.07)" fill="none" stroke="#202020" stroke-linecap="round" stroke-linejoin="round" stroke-width="1.5"/>
    <g id="그룹_22964" data-name="그룹 22964" transform="translate(0 0)">
      <g id="그룹_22963" data-name="그룹 22963" clip-path="url(#clip-path)">
        <line id="선_651" data-name="선 651" y1="11.532" x2="19.42" transform="translate(18.359 36.064)" fill="none" stroke="#202020" stroke-linecap="round" stroke-linejoin="round" stroke-width="1.5"/>
        <path id="패스_48311" data-name="패스 48311" d="M20.636,54.3l14.1-29.782L48.912,54.3Z" transform="translate(-5.644 -6.706)" fill="none" stroke="#202020" stroke-linecap="round" stroke-linejoin="round" stroke-width="1.5"/>
      </g>
    </g>
    <path id="패스_48312" data-name="패스 48312" d="M37.667,3.112l2.528,5.12,5.65.82-4.089,3.986.965,5.628-5.054-2.658-5.054,2.658.966-5.628L29.491,9.052l5.65-.82Z" transform="translate(-8.066 -0.851)" fill="#f6f6f6" stroke="#202020" stroke-width="1.5"/>
    <g id="그룹_22966" data-name="그룹 22966" transform="translate(0 0)">
      <g id="그룹_22965" data-name="그룹 22965" clip-path="url(#clip-path)">
        <path id="패스_48313" data-name="패스 48313" d="M37.667,3.112l2.528,5.12,5.65.82-4.089,3.986.965,5.628-5.054-2.658-5.054,2.658.966-5.628L29.491,9.052l5.65-.82Z" transform="translate(-8.066 -0.851)" fill="none" stroke="#202020" stroke-linecap="round" stroke-linejoin="round" stroke-width="1.5"/>
      </g>
    </g>
    <line id="선_652" data-name="선 652" x1="1.07" y1="0.607" transform="translate(9.103 8.282)" fill="none" stroke="#202020" stroke-linecap="round" stroke-linejoin="round" stroke-width="1.5"/>
    <line id="선_653" data-name="선 653" x1="1.061" y2="0.623" transform="translate(9.073 3.668)" fill="none" stroke="#202020" stroke-linecap="round" stroke-linejoin="round" stroke-width="1.5"/>
    <g id="그룹_22968" data-name="그룹 22968" transform="translate(0 0)">
      <g id="그룹_22967" data-name="그룹 22967" clip-path="url(#clip-path)">
        <line id="선_654" data-name="선 654" x2="0.009" y2="1.231" transform="translate(5.593 1.09)" fill="none" stroke="#202020" stroke-linecap="round" stroke-linejoin="round" stroke-width="1.5"/>
        <line id="선_655" data-name="선 655" x2="1.07" y2="0.607" transform="translate(1.09 3.734)" fill="none" stroke="#202020" stroke-linecap="round" stroke-linejoin="round" stroke-width="1.5"/>
        <line id="선_656" data-name="선 656" y1="0.623" x2="1.061" transform="translate(1.128 8.333)" fill="none" stroke="#202020" stroke-linecap="round" stroke-linejoin="round" stroke-width="1.5"/>
      </g>
    </g>
    <line id="선_657" data-name="선 657" x1="0.009" y1="1.231" transform="translate(5.661 10.303)" fill="none" stroke="#202020" stroke-linecap="round" stroke-linejoin="round" stroke-width="1.5"/>
    <line id="선_658" data-name="선 658" y2="11.186" transform="translate(5.632 16.114)" fill="none" stroke="#202020" stroke-linecap="round" stroke-linejoin="round" stroke-width="1.5"/>
    <g id="그룹_22970" data-name="그룹 22970" transform="translate(0 0)">
      <g id="그룹_22969" data-name="그룹 22969" clip-path="url(#clip-path)">
        <line id="선_659" data-name="선 659" x1="1.07" y1="0.607" transform="translate(53.052 19.663)" fill="none" stroke="#202020" stroke-linecap="round" stroke-linejoin="round" stroke-width="1.5"/>
        <line id="선_660" data-name="선 660" x1="1.061" y2="0.623" transform="translate(53.022 15.048)" fill="none" stroke="#202020" stroke-linecap="round" stroke-linejoin="round" stroke-width="1.5"/>
      </g>
    </g>
    <line id="선_661" data-name="선 661" x2="0.009" y2="1.231" transform="translate(49.542 12.47)" fill="none" stroke="#202020" stroke-linecap="round" stroke-linejoin="round" stroke-width="1.5"/>
    <line id="선_662" data-name="선 662" x2="1.07" y2="0.607" transform="translate(45.038 15.114)" fill="none" stroke="#202020" stroke-linecap="round" stroke-linejoin="round" stroke-width="1.5"/>
    <line id="선_663" data-name="선 663" y1="0.623" x2="1.061" transform="translate(45.077 19.713)" fill="none" stroke="#202020" stroke-linecap="round" stroke-linejoin="round" stroke-width="1.5"/>
    <line id="선_664" data-name="선 664" x1="0.009" y1="1.231" transform="translate(49.61 21.683)" fill="none" stroke="#202020" stroke-linecap="round" stroke-linejoin="round" stroke-width="1.5"/>
    <line id="선_665" data-name="선 665" y2="7.432" transform="translate(49.58 26.724)" fill="none" stroke="#202020" stroke-linecap="round" stroke-linejoin="round" stroke-width="1.5"/>
  </g>
</svg>
