<svg xmlns="http://www.w3.org/2000/svg" width="204.077" height="190.372" viewBox="0 0 204.077 190.372">
  <g id="그룹_23335" data-name="그룹 23335" transform="translate(-651.508 -5076.628)">
    <path id="패스_2738" data-name="패스 2738" d="M1203.692,197.625c-30.1,13.2-24.837,53.487-7.07,72.628,8.219,4.391,16.943-.591,22.586-6.787,13.134,5.841,32.309,8.6,42.035-5.419C1317.752,230.88,1244.021,166.8,1203.692,197.625Z" transform="translate(-426.199 4908.7)" fill="#a4d6c1"/>
    <path id="패스_2739" data-name="패스 2739" d="M1228.846,242.3c-6.79.189-13.721.228-20.1,2.523-3.884,1.426-6.551,2.91-8.755,5.6a132.95,132.95,0,0,0,5.427-24.54c9.971-2.841,10.746-15.512,9.359-23.622-1.443-8.463-4.971-16.887-7.36-25.366-2.276,4.4-4.583,8.79-6.859,13.194-2.852,5.534-5.761,11.159-6.144,17.4-.333,5.891,2.913,13.1,8.711,17.878l-.185-.009a132.609,132.609,0,0,1-10.344,37.414c-.1-12.809-11.067-25.762-23.354-29.506-5.86-1.78-12.179-1.7-17.986-3.7a37.648,37.648,0,0,0,10.491,25.765c6.326,6.491,18.764,11.562,29.141,11.141-1.6,3.357-3.317,6.688-5.219,9.88a233.609,233.609,0,0,1-17.244,24.511,19.382,19.382,0,0,0-.908-9.426c-1.476-4.213-4.07-7.827-6.729-11.268-2.816-3.666-5.9-7.349-10.013-9.169-3.943-1.755-8.387-1.612-12.671-1.455q-8.09.348-16.191.646a1.13,1.13,0,0,0-.783.234,1.482,1.482,0,0,0-.253,1.054c.611,10.516,7.726,19.39,16.249,24.4,8.089,4.72,19.253,6.787,28.623,8.459-3.673,4.7-7.466,9.564-11.013,14.473a141.155,141.155,0,0,0-14.947,25.156c-.349-7.251-2.315-14.022-7.01-19.687-6.544-7.88-18.125-8.7-27.332-13.158a35.535,35.535,0,0,1-10.159-7.433c-1.8,6.126-.459,12.676.885,18.91.89,4.166,1.822,8.4,3.943,12.125,3.257,5.789,9.2,9.83,15.622,11.558,5.956,1.627,16.074,2.235,22.647,1a77.354,77.354,0,0,0-5.161,19.713l2.526.277c1.624-14.308,8.191-27.408,14.748-37.73a89.029,89.029,0,0,0,45.047,14.567,24.105,24.105,0,0,0,6.777-.475c5.779-1.5,9.848-6.53,13.332-11.373a35.847,35.847,0,0,1-16.041-5.019c-2.707-1.623-5.186-3.613-7.932-5.175-11.526-6.67-26.913-6.735-37.85,2.432,1.02-1.468,2-2.875,2.953-4.195,3.552-4.885,7.34-9.771,11.013-14.474,3.187-4.092,6.431-8.277,9.577-12.543,2.07,4.966,4.963,10.317,9.326,13.2a22.493,22.493,0,0,0,8.65,2.966c8.133,1.3,16.865.455,23.836-3.915,3.378-2.146,6.652-5.185,10.653-5.094-6.65-.445-12.824-3.462-18.763-6.481-5.963-3.014-12.086-6.148-18.708-6.809a23.473,23.473,0,0,0-12.581,2.767c2.845-3.987,5.616-8.061,8.093-12.277a136.078,136.078,0,0,0,9.375-19.383,14.525,14.525,0,0,0,6.622,2.913c5.637,1.047,11.405,2.09,17.039,1.1,6.163-1.091,11.715-4.581,16.2-8.924s8.073-9.548,11.581-14.736C1242.624,241.634,1235.631,242.081,1228.846,242.3Zm-23.66-35.223c.2-3.214.342-6.416.613-9.648.251-3.2.472-6.42.928-9.642.329,3.222.479,6.461.549,9.692s-.039,6.477-.2,9.71c-.19,3.239-.46,6.47-.947,9.673a65.761,65.761,0,0,1-2.033,9.507ZM1127.6,341.786a70.377,70.377,0,0,1-11-7.577,60.74,60.74,0,0,1-9.281-9.627,36.666,36.666,0,0,1-6.22-11.779,50.107,50.107,0,0,0,7.368,10.857,85.483,85.483,0,0,0,9.364,9.085,112.6,112.6,0,0,0,10.531,7.792,106.971,106.971,0,0,0,11.475,6.446A56.451,56.451,0,0,1,1127.6,341.786Zm36.815-16.357a55.269,55.269,0,0,1,15.224,2.747c4.887,1.535,9.639,3.39,14.451,4.943a55.158,55.158,0,0,0,14.837,3l-.017.265a45.244,45.244,0,0,1-15.259-1.77c-4.965-1.308-9.78-3.1-14.587-4.624a67.117,67.117,0,0,0-14.735-3.122,31.738,31.738,0,0,0-14.84,2.06C1153.894,326.224,1159.261,325.318,1164.419,325.429Zm-4.61-30.772c-1.656-1.265-3.367-2.543-5.032-3.963a41.814,41.814,0,0,0-5.024-3.7c-3.481-2.36-7.165-4.463-10.829-6.6q-5.526-3.155-11.171-6.151a88.28,88.28,0,0,1,11.867,4.863,94.831,94.831,0,0,1,11.2,6.275,43.721,43.721,0,0,1,5.162,3.96c1.511,1.429,3.222,2.707,4.8,4.2a22.373,22.373,0,0,1,4.155,5.031,21.9,21.9,0,0,1,2.312,6.01A23.977,23.977,0,0,0,1159.809,294.657Zm27.19,1.276c3.515,1.043,7.052,1.949,10.628,2.69,3.557.77,7.154,1.375,10.77,1.949s7.253,1.012,10.946,1.463a70.8,70.8,0,0,1-11.1.013,83.911,83.911,0,0,1-11.024-1.576,64.8,64.8,0,0,1-10.683-3.148,37.106,37.106,0,0,1-9.735-5.384A64.431,64.431,0,0,0,1187,295.933Zm-4.749-35.426a109.723,109.723,0,0,1-9.525-6.847,81.537,81.537,0,0,1-8.635-7.971,45.371,45.371,0,0,1-6.919-9.495,82.862,82.862,0,0,0,7.958,8.442c2.858,2.609,5.774,5.126,8.8,7.54,2.978,2.45,6.083,4.767,9.168,7.114s6.215,4.657,9.268,7.09A109.77,109.77,0,0,1,1182.25,260.507Zm41.911-10.314c-3,1.168-6.044,2.163-9.117,3.139-3.09.9-6.186,1.778-9.328,2.456a87.393,87.393,0,0,1-9.507,1.685c3.014-1.119,6.081-2.12,9.129-3.09,3.036-1.02,6.095-1.94,9.149-2.885,3.059-.921,6.113-1.866,9.22-2.693,3.071-.871,6.173-1.722,9.309-2.425A92.382,92.382,0,0,1,1224.161,250.193Z" transform="translate(-442.91 4899.742)" fill="#1b1b2e"/>
  </g>
</svg>
