<svg xmlns="http://www.w3.org/2000/svg" width="166.521" height="196.123" viewBox="0 0 166.521 196.123">
  <g id="그룹_23334" data-name="그룹 23334" transform="translate(-674.999 -3787.877)">
    <path id="패스_2724" data-name="패스 2724" d="M854.276,284.3a66.42,66.42,0,0,0-12.633-13.685,63.271,63.271,0,0,0-15.131-9.883,90.772,90.772,0,0,0-14.083-5.257c-6.306-1.756-12.71-2.461-18.206,1.786A30.9,30.9,0,0,0,789,262.867c-.383.485-.762.973-1.143,1.459a38.14,38.14,0,0,0-3.451,2.076,38.722,38.722,0,0,0-15.951,22.733,83.419,83.419,0,0,0-2.219,16.747,53.567,53.567,0,0,0,1.439,16.545,33.267,33.267,0,0,0,5.892,11.694,66.5,66.5,0,0,0,3.216,6.438,68,68,0,0,0,8.885,12.141c3.681,4.027,8.139,7.629,13.47,9.144,6.066,1.724,12.514.45,18.539-.8a127.662,127.662,0,0,0,15.709-4.31,125.905,125.905,0,0,0,15.572-6.453,41.015,41.015,0,0,0,11.752-8.393,26.965,26.965,0,0,0,7.075-16.1c.538-5.364-.588-10.938-1.976-16.1A81.858,81.858,0,0,0,854.276,284.3Zm-31.051-9.159c-.248-.116-.391-.188,0,0Zm-19.244,73.734h0c.121,0,.225,0,.306.006Zm11.292-75.891.013,0c-.715.055-.936.036-.9.008A8.626,8.626,0,0,0,815.273,272.985Zm-15.834,55.644c-.158-.1-.313-.213-.469-.321-.066-.067-.135-.13-.2-.2s-.117-.137-.176-.2-.1-.152-.178-.259c-.248-.472-.533-.952-.8-1.415-.035-.062-.066-.113-.095-.161l-.023-.082a55.145,55.145,0,0,0,6.251,5.02l-.207-.056A36.323,36.323,0,0,1,799.439,328.629Zm9.492-23.1c.152.047-.015.182-.647.1l.1-.035C808.561,305.578,808.752,305.549,808.931,305.526Zm8.415,16.033.013,0a2.426,2.426,0,0,1-.7.221A6.714,6.714,0,0,0,817.346,321.559Zm-7.628-12.411c-.045-.067-.088-.135-.132-.2.135.043.272.082.407.127Zm31.318-17.372a85.785,85.785,0,0,0-19.65-17.272,11.012,11.012,0,0,0,2.355.881c.321.15.642.3.96.453q1.314.645,2.585,1.37c1.546.883,3.009,1.871,4.46,2.9a49.164,49.164,0,0,1,4.357,4.183c.694.757,1.35,1.544,2,2.336l.05.06.125.186c.283.413.583.815.862,1.231a38.424,38.424,0,0,1,2.6,4.547Q841.393,292.21,841.036,291.776ZM854.1,325.368a7.689,7.689,0,0,1-.495,2.208c-.1.365-.239.718-.345,1.082-.018.061-.033.114-.047.164s-.058.1-.093.157c-.49.854-.969,1.687-1.511,2.511l-.012.018-.119.121c-.15.155-.294.316-.438.476a32.146,32.146,0,0,0,1.565-5.538q.834-1.288,1.546-2.637c-.008.336-.02.673-.042,1.01C854.088,325.3,854.2,327.038,854.1,325.368Z" transform="translate(-91.143 3621.318)" fill="#5e5ea6"/>
    <g id="그룹_21076" data-name="그룹 21076" transform="translate(-98.387 3596.78)">
      <g id="그룹_21072" data-name="그룹 21072">
        <path id="패스_2725" data-name="패스 2725" d="M817.055,289.71c-2.216,0-3.807-.635-4.732-1.912-1.915-2.641-.123-7.341,4.675-12.269a1.182,1.182,0,0,1,.781-.32,79.11,79.11,0,0,0,24.3-3.617,1.062,1.062,0,0,1,1,1.825,66.359,66.359,0,0,0-10.5,11.166,1.067,1.067,0,0,1-.393.331C825.678,288.1,820.578,289.71,817.055,289.71Zm1.149-12.37c-4.217,4.448-5.127,7.879-4.161,9.212,1.2,1.653,6.361,1.732,16.967-3.43a65.207,65.207,0,0,1,7.342-8.293A78.8,78.8,0,0,1,818.2,277.34Z" fill="#1b1b2e"/>
      </g>
      <g id="그룹_21073" data-name="그룹 21073">
        <path id="패스_2726" data-name="패스 2726" d="M834.149,301.38a6.605,6.605,0,0,1-3.365-.836c-2.777-1.611-3.952-5.3-3.49-10.972a1.1,1.1,0,0,1,.081-.329c2.131-5.007,7.743-11.849,14.3-17.436a1.066,1.066,0,0,1,.381-.208,97.439,97.439,0,0,0,22.291-9.948,1.064,1.064,0,0,1,1.6.742c1.693,10.761-9.867,26.987-21.3,34.819C840.627,299.967,837.027,301.38,834.149,301.38ZM829.4,289.918c-.35,4.617.5,7.655,2.452,8.789,2.359,1.373,6.586.184,11.6-3.247,10.338-7.082,20.812-21.173,20.548-31.124a100.042,100.042,0,0,1-21.111,9.232C836.7,278.869,831.442,285.246,829.4,289.918Z" fill="#1b1b2e"/>
      </g>
      <g id="그룹_21074" data-name="그룹 21074">
        <path id="패스_2727" data-name="패스 2727" d="M864.9,263.618a1.065,1.065,0,0,1-.9-1.624,1.1,1.1,0,0,1,1.388-.389,1.063,1.063,0,0,1-.329,2A1.176,1.176,0,0,1,864.9,263.618Z" fill="#1b1b2e"/>
        <path id="패스_2728" data-name="패스 2728" d="M887.915,302.48a10.911,10.911,0,0,1-4.543-1.026C872.13,296.348,865,273.3,863.844,262.673a1.062,1.062,0,0,1,1.7-.961,29.29,29.29,0,0,0,10.812,5.192,1.036,1.036,0,0,1,.338.15c8.693,5.842,19.1,18.719,20.008,27.208a6.708,6.708,0,0,1-1.552,5.618,1.073,1.073,0,0,1-.158.136A12.316,12.316,0,0,1,887.915,302.48Zm-21.633-37.652c1.848,11.377,8.666,30.467,17.969,34.692,3.127,1.421,6.213,1.033,9.433-1.183a4.793,4.793,0,0,0,.9-3.849c-.76-7.077-9.934-19.452-18.928-25.567A31.29,31.29,0,0,1,866.282,264.828Z" fill="#1b1b2e"/>
      </g>
      <g id="그룹_21075" data-name="그룹 21075">
        <path id="패스_2729" data-name="패스 2729" d="M903.793,278.017c-8.045,0-19.02-4.649-27.418-8.621a1.16,1.16,0,0,1-.157-.09c-.169-.119-.339-.233-.51-.346l-.225-.149a1.063,1.063,0,0,1-.382-1.312,1.051,1.051,0,0,1,1.227-.6c6.715,1.656,14.169,1,22.156-1.966a1.073,1.073,0,0,1,.617-.037c13.308,3.2,13.83,6.305,14,7.327.25,1.492-.628,2.89-2.61,4.157A12.336,12.336,0,0,1,903.793,278.017Zm-21.252-8.128c8.175,3.591,21.077,8.364,26.808,4.7.674-.43,1.785-1.265,1.659-2.016-.22-1.311-3.518-3.446-12.091-5.537A43.42,43.42,0,0,1,882.541,269.889Z" fill="#1b1b2e"/>
      </g>
      <path id="패스_2730" data-name="패스 2730" d="M870.891,385.343a1.06,1.06,0,0,1-.932-.551c-13.694-24.924-10.732-59.271-8.118-89.573,1-11.626,1.949-22.609,2-32.671a1.062,1.062,0,0,1,1.062-1.058h.005a1.062,1.062,0,0,1,1.057,1.067c-.046,10.15-1,21.173-2,32.844-2.587,30-5.52,64.008,7.864,88.37a1.062,1.062,0,0,1-.93,1.572Z" fill="#1b1b2e"/>
      <path id="패스_2731" data-name="패스 2731" d="M864.9,263.614a1.063,1.063,0,0,1-.9-1.62c10.046-16.265,12.12-32.138,14.125-47.489.614-4.7,1.249-9.563,2.1-14.318,1.087-6.042,2.906-9.068,5.387-9.09,3.893.017,6.614,7.867,7.76,14.585,2.859,16.752.155,47.791-28.115,57.871A1.055,1.055,0,0,1,864.9,263.614Zm20.7-70.392c-.907,0-2.31,1.921-3.284,7.34-.846,4.706-1.478,9.541-2.089,14.219-1.924,14.732-3.912,29.941-12.829,45.639,24.268-10.633,26.527-38.871,23.88-54.381-1.49-8.734-4.268-12.811-5.676-12.817Z" fill="#1b1b2e"/>
      <path id="패스_2732" data-name="패스 2732" d="M864.9,263.618a1.062,1.062,0,0,1-.427-2.034c17-7.492,31.152-25.8,37.85-48.984.237-.82.445-1.575.638-2.274,1.136-4.116,1.822-6.6,4.786-8.939,2.956-2.055,9.276-3.877,13.1-1.9a5.546,5.546,0,0,1,3,5.25c.2,14.7-8.169,30.7-22.4,42.8-13.31,9.155-24.844,14.241-36.386,16.068A1.053,1.053,0,0,1,864.9,263.618Zm51.939-62.866a15.388,15.388,0,0,0-7.828,2.342c-2.366,1.868-2.878,3.727-4,7.8-.2.706-.406,1.47-.646,2.3-5.954,20.607-17.709,37.49-32.176,46.665,8.818-2.512,17.882-7.063,27.976-14,13.665-11.63,21.758-27.015,21.564-41.088v0a3.5,3.5,0,0,0-1.85-3.388A6.677,6.677,0,0,0,916.837,200.752Z" fill="#1b1b2e"/>
      <path id="패스_2733" data-name="패스 2733" d="M864.9,263.614a1.061,1.061,0,0,1-.971-.634c-8.885-20.232-15.888-55.949-5.311-67.605,2.13-2.347,4.093-3.1,5.835-2.214,9.107,4.589,3.52,59.417,1.49,69.6a1.063,1.063,0,0,1-.927.847A.9.9,0,0,1,864.9,263.614Zm-1.905-68.672c-.906,0-1.992.965-2.8,1.86-9.09,10.019-3.805,41.55,4.286,61.975,2.717-17.681,5.291-60.559-.98-63.719A1.082,1.082,0,0,0,862.993,194.942Z" fill="#1b1b2e"/>
      <path id="패스_2734" data-name="패스 2734" d="M864.9,263.614a1.041,1.041,0,0,1-.234-.025c-26.787-6.046-38.582-23.722-40.69-38.247-1.235-8.517.9-15.662,5.448-18.205,1.9-1.067,5.941-2.164,11.53,2.5a1,1,0,0,1,.165.173c3.345,4.4,4.13,9.911,4.89,15.245.292,2.049.593,4.168,1.037,6.164,2.85,12.834,9.229,20.455,18.634,30.617a1.062,1.062,0,0,1-.78,1.783Zm-31.823-55.3a5.28,5.28,0,0,0-2.616.676c-3.713,2.077-5.474,8.525-4.382,16.047,1.914,13.2,12.314,29.148,35.644,35.622-8.117-8.955-14.051-16.827-16.751-28.985-.461-2.077-.769-4.236-1.066-6.326-.748-5.255-1.456-10.221-4.405-14.162C837.185,209.281,835.009,208.315,833.076,208.315Z" fill="#1b1b2e"/>
      <path id="패스_2735" data-name="패스 2735" d="M856.307,264.321c-17.56,0-41.358-7.3-53.871-19.858-6.471-6.491-9.175-13.762-7.821-21.023.571-3.063,1.7-4.822,3.456-5.376,4.011-1.28,9.729,4.314,18.387,12.764,12.418,12.124,29.425,28.725,48.548,30.667a1.063,1.063,0,0,1,.084,2.1A49.327,49.327,0,0,1,856.307,264.321ZM799.3,220a2.01,2.01,0,0,0-.591.085c-.924.293-1.6,1.552-2.009,3.742-1.237,6.636,1.2,13.074,7.238,19.134,12.44,12.479,36.381,19.582,53.54,19.232-16.8-4.752-31.442-19.046-42.507-29.847C808.221,225.756,802.327,220,799.3,220Z" fill="#1b1b2e"/>
      <path id="패스_2736" data-name="패스 2736" d="M819.037,277.292c-12.264,0-24.028-3.3-33.288-11.355-4.221-3.708-13.719-14.737-12.2-20.047a3.824,3.824,0,0,1,3.4-2.719c6.889-1.138,17.93,2.911,30.716,7.6,17.624,6.469,39.555,14.518,57.021,10.738a1.062,1.062,0,0,1,.778,1.945C852.19,271.572,835.182,277.292,819.037,277.292Zm-39.491-32.2a13.738,13.738,0,0,0-2.25.171c-1.281.212-1.587.79-1.706,1.205-1,3.517,6.318,13.264,11.557,17.866,19.211,16.716,49.866,12.012,72.332.088-16.909,1.416-36.491-5.764-52.547-11.656C795.8,248.685,786.027,245.1,779.546,245.1Z" fill="#1b1b2e"/>
      <path id="패스_2737" data-name="패스 2737" d="M883.722,269.937a31.363,31.363,0,0,1-19.466-6.536,1.061,1.061,0,0,1,.477-1.893c22.571-3.575,42.454-20.23,60-34.926l1.7-1.419c4.228-4.24,8.637-4.228,11.1-2.308,2.508,1.957,3.609,6.313.414,11.635-8.875,14.552-27.8,31.151-46.818,34.731A40,40,0,0,1,883.722,269.937Zm-16.127-6.786c6.661,4.28,14.431,5.619,23.132,3.982,18.4-3.465,36.767-19.6,45.394-33.742,2.522-4.2,1.867-7.48.1-8.861-1.725-1.347-4.979-1.187-8.361,2.2l-1.764,1.484C908.989,242.538,889.687,258.707,867.595,263.151Z" fill="#1b1b2e"/>
    </g>
  </g>
</svg>
