<svg xmlns="http://www.w3.org/2000/svg" width="154.261" height="178.59" viewBox="0 0 154.261 178.59">
  <g id="그룹_23333" data-name="그룹 23333" transform="translate(-667 -2531.213)">
    <path id="패스_2722" data-name="패스 2722" d="M453.972,318.891h0a3.593,3.593,0,0,0,.914,1.551q.753.752,1.554,1.456a29.025,29.025,0,0,1,1.9,4.031c1.514,4.187,2.533,8.657,4.977,12.427a33.7,33.7,0,0,0,10.267,9.868,47.325,47.325,0,0,0,23.218,7.147,52.865,52.865,0,0,0,24-4.592,26.366,26.366,0,0,0,11.257-8.751c2.628-3.821,3.8-8.979,2.277-13.455a17.756,17.756,0,0,0-3.354-5.908,24,24,0,0,0-4.588-4.026c-3.535-2.466-7.628-3.918-11.609-5.485-.118-.046-.234-.095-.352-.141l-5.035-5.206c-.218-1.051-.405-2.109-.58-3.167-.506-3.067-.864-6.155-1.231-9.24-.7-5.85-1.437-11.734-3.252-17.361-1.914-5.932-4.834-11.582-9.4-15.916a51.575,51.575,0,0,0-8.237-6.259,40.781,40.781,0,0,0-8.569-4.142,23.468,23.468,0,0,0-9.125-1.252,30.208,30.208,0,0,0-9.242,2.294,51.565,51.565,0,0,0-7.086,3.679c-2.5,1.512-4.98,3.084-7.4,4.731-5.581,3.8-10.985,8.1-14.6,13.913a25.907,25.907,0,0,0-3.459,8.39,27.927,27.927,0,0,0-.35,8.8,28.52,28.52,0,0,0,6.182,14.511,25.8,25.8,0,0,0,5.905,5.352,35.536,35.536,0,0,0,8.466,3.733c1.3.435,2.593.88,3.856,1.41A16.6,16.6,0,0,1,453.972,318.891Zm-11.425-45.236c-.051.025-.1.053-.153.079l.156-.144C442.549,273.612,442.549,273.634,442.547,273.656Z" transform="translate(240.313 2354.372)" fill="#f7d16f"/>
    <path id="패스_2723" data-name="패스 2723" d="M594.919,250.542a3,3,0,0,0-.528-1.477,4.36,4.36,0,0,0-2.5-1.353,18.122,18.122,0,0,0-18.166,5.309c-3.967,4.465-5.746,10.5-7.466,16.436-1.645,5.67-3.185,12.254-4.771,18.434-1.86,4.551-3.426,10.112-3.544,14.6a333.987,333.987,0,0,0-14.655-30.69,26.676,26.676,0,0,1,2-8.48c2.759-4.857,6.916-8.745,11.325-12.283a66.169,66.169,0,0,0,6.581-5.373c2.617-2.721,4.327-6.169,5.925-9.589q2-4.278,3.849-8.625c1.09-2.559,2.163-5.315,1.659-8.052s-3.266-5.236-5.92-4.4a7.2,7.2,0,0,0-3.067,2.41,91.668,91.668,0,0,0-21.1,45.662,30.756,30.756,0,0,0-1.973,7.4q-2.009-3.688-4.057-7.256l-.014-.023c-4.2-7.313-8.478-14.2-12.653-20.471h0a23.608,23.608,0,0,1,.117-5.293,24.9,24.9,0,0,1,2.963-1.329c2.335-1.212,3.317-3.965,4.881-6.081,3.219-4.356,8.868-5.942,13.711-8.366a37.48,37.48,0,0,0,8.83-6.151c2.265-2.122,4.388-4.872,4.185-7.97-.26-3.99-4.534-6.812-8.532-6.707s-7.61,2.4-10.639,5.008a46.416,46.416,0,0,0-14.471,23.5,40.238,40.238,0,0,0-1.938,12.056q-.669-.994-1.334-1.966a.391.391,0,0,0-.07-.184c-.056-.058-.119-.118-.177-.176-3.311-4.83-6.53-9.237-9.556-13.116a.381.381,0,0,0-.016-.12,67.738,67.738,0,0,1-2.224-11.2c2.82-6.2,7.643-11.277,11.277-17.057,3.781-6.015,6.222-13.781,3.072-20.149-.792-1.6-2.106-3.155-3.879-3.367-2.453-.295-4.373,2.012-5.619,4.145a48.69,48.69,0,0,0-5.972,20.575.382.382,0,0,0-.1.181c-1.188,5.951.552,19.159,2.145,25.322-2.749-3.449-5.318-6.428-7.635-8.868-1.851-4.034-4.78-7.515-7.784-10.809-3.908-4.286-8.077-8.457-13.133-11.3s-11.154-4.248-16.743-2.7c-1.874.52-3.861,1.592-4.342,3.477a5.27,5.27,0,0,0,1.384,4.424,20.852,20.852,0,0,0,5.95,4.638,86.272,86.272,0,0,0,17.807,7.8c5.58,1.725,11.374,2.918,16.643,5.41a192.91,192.91,0,0,1,16.3,20.613,62.361,62.361,0,0,0-9.853-5.82,27.767,27.767,0,0,0-10.234-9.874,59.726,59.726,0,0,0-14.181-5.591c-5.3-1.478-10.839-2.652-16.376-1.909-2.5.336-5.481,1.647-5.666,4.132-.172,2.32,2.216,3.835,4.3,4.814q4.623,2.171,9.331,4.168c6.786,2.88,13.851,5.522,21.316,5.809a64.134,64.134,0,0,0,11.229-.8c4.867,2.386,9.452,5.157,11.974,7.736,4.589,6.7,9.356,14.209,14.038,22.268a56.592,56.592,0,0,0-8.383-4.441c-3.136-3.589-6.6-6.948-11.139-8.346a27.4,27.4,0,0,0-7.179-.88c-5.719-.193-11.438-.386-17.159-.437-4.509-.039-9.118.026-13.368,1.534a8.127,8.127,0,0,0-3.248,1.9,3.729,3.729,0,0,0-1.03,3.478,5.236,5.236,0,0,0,2.633,2.761c6.1,3.6,13.45,4.573,20.524,4.191s14.009-2.029,20.969-3.351a21.652,21.652,0,0,1,7.967-.428c4.27,1.858,8.241,3.938,10.438,5.8q2.336,4.072,4.628,8.311a.391.391,0,0,0,.127.234c2.289,4.246,4.529,8.6,6.686,13.026a45.226,45.226,0,0,0-8.99-5.607,24.638,24.638,0,0,0-14.869-5.771c-5.809-.379-11.608.751-17.26,2.139-4.087,1-8.139,2.144-12.19,3.285l-8.97,2.526a24.35,24.35,0,0,0-6.707,2.629,8.229,8.229,0,0,0-3.962,5.762c-.325,3.078,1.821,6.025,4.573,7.441s5.981,1.565,9.068,1.347a42.835,42.835,0,0,0,20.866-7.208c4.987-3.374,9.552-7.937,15.483-8.97,5.234-.911,10.256.955,14.429-2.064,3.676,1.854,7.646,4.39,9.475,6.544a.34.34,0,0,0,.068.052c2.737,5.719,5.328,11.549,7.7,17.422.005.047,0,.1.009.144a.393.393,0,0,0,.154.264c6.4,15.889,11.206,32.064,13.015,47.084a.4.4,0,0,0,.4.356l.049,0a.4.4,0,0,0,.353-.45c-1.827-15.166-6.7-31.507-13.183-47.549a29.287,29.287,0,0,1,1.239-10.094,16.215,16.215,0,0,0,6.935-6.861c1.147-2.2,1.8-4.707,3.063-6.835,1.8-3.048,4.761-5.2,7.566-7.425A117.4,117.4,0,0,0,589.6,262.474C592.635,259.292,595.589,255.569,594.919,250.542Z" transform="translate(226.246 2357.181)" fill="#1b1b2e"/>
  </g>
</svg>
