<svg xmlns="http://www.w3.org/2000/svg" width="190.836" height="198.785" viewBox="0 0 190.836 198.785">
  <g id="그룹_23332" data-name="그룹 23332" transform="translate(-671.237 -1229)">
    <path id="패스_2698" data-name="패스 2698" d="M253.613,280.076a6.055,6.055,0,0,0-1.757-3.449c-7.378-6.9-16.907-10.928-27.338-13.322a162.533,162.533,0,0,0-18.428-2.9c-6.674-.738-14.266-1.891-21.363,1.374a22.654,22.654,0,0,0-11.213,11.076,26.429,26.429,0,0,0-2.135,14.419c.145,1.045.341,2.064.566,3.065-2.738,5.559-2.71,12.058-1.64,17.629a33.524,33.524,0,0,0,6.43,14A38.269,38.269,0,0,0,187,331.286a43.106,43.106,0,0,0,20.577,6.528,38.942,38.942,0,0,0,19.428-4.387,42.812,42.812,0,0,0,12.966-10.61,2.927,2.927,0,0,0,.732-.423,77.8,77.8,0,0,0,7.75-6.97,46.387,46.387,0,0,0,6.194-7.6,25.328,25.328,0,0,0,3.675-11.309,24.988,24.988,0,0,0-1.222-9.744A27.032,27.032,0,0,0,253.613,280.076Z" transform="translate(501.605 1074.15)" fill="#d96c3f" opacity="0.9"/>
    <g id="그룹_21071" data-name="그룹 21071" transform="translate(562.066 1052.336)">
      <path id="패스_2699" data-name="패스 2699" d="M184.5,375.2a.586.586,0,0,1-.318.224.667.667,0,0,1-.788-.515C167.9,319.529,200,263.242,240.094,232.267a.682.682,0,0,1,.951.059.654.654,0,0,1-.116.927C201.16,264,169.3,319.775,184.6,374.586A.737.737,0,0,1,184.5,375.2Z" fill="#1b1b2e"/>
      <path id="패스_2700" data-name="패스 2700" d="M216.31,256.084c11.193-24.806,7.171-53.28,18.96-79.42-15.8,15.9-13.238,37.585-17.446,55.876-1.8,7.805-3.01,16-1.514,23.544Z" fill="#1b1b2e"/>
      <path id="패스_2701" data-name="패스 2701" d="M211.679,261.646c1.845-25.868-9.082-51.527-5.83-79.014-14.088,28.719,3.537,52.967,5.83,79.014Z" fill="#1b1b2e"/>
      <path id="패스_2702" data-name="패스 2702" d="M207.985,266.452c-1.272-28.87-20.767-34.566-22.517-60.249-6.019,25.159,17.381,39.633,22.517,60.249Z" fill="#1b1b2e"/>
      <path id="패스_2703" data-name="패스 2703" d="M204.278,271.672c-6.821-16.82-22.764-48.392-45.468-28.762,8.884-6.852,20.857-1.538,27.505,3.979,6.834,7.674,11.709,16.6,17.963,24.783Z" fill="#1b1b2e"/>
      <path id="패스_2704" data-name="패스 2704" d="M199.293,279.484c-8.4-25.925-33.256-33.043-49.42-16.187,31.961-14.767,44.351,10.17,49.42,16.187Z" fill="#1b1b2e"/>
      <path id="패스_2705" data-name="패스 2705" d="M193.225,290.727c-7.093-16.1-26-36.576-40.287-12.789,6.831-8.5,17.83-8.167,24.758-2.382,5.9,3.751,12.6,8.544,15.529,15.171Z" fill="#1b1b2e"/>
      <path id="패스_2706" data-name="패스 2706" d="M188.2,302.43c-9.779-19.544-18.11-16.12-35.475-18.229,13.686,10.036,22.576-2.767,35.475,18.229Z" fill="#1b1b2e"/>
      <path id="패스_2707" data-name="패스 2707" d="M186.188,308.2c-10.578-14.314-30.35-16.613-38.254,4.95,7.443-19.436,28.039-15.124,38.254-4.95Z" fill="#1b1b2e"/>
      <path id="패스_2708" data-name="패스 2708" d="M183.939,316.286c-11.5-11.266-33.347-5.173-30.112,15.723,3.635-14.951,19.174-16.569,30.112-15.723Z" fill="#1b1b2e"/>
      <path id="패스_2709" data-name="패스 2709" d="M226.9,244.883c-4.031-12.756-1.008-27.977,3.841-41.514,1.657-6.812,7.607-14.55,5.591-21.117,6.563,19.936-12.549,42.162-9.432,62.631Z" fill="#1b1b2e"/>
      <path id="패스_2710" data-name="패스 2710" d="M232.943,239.293c-2.286-26.885,10.959-25.509,26.766-43.178-9.383,20.133-24.076,17.006-26.766,43.178Z" fill="#1b1b2e"/>
      <path id="패스_2711" data-name="패스 2711" d="M239.084,234.363c14.782-29.643,39.375-25.209,60.923-38.556-8.3,7.83-19.067,12.3-29.75,16.681a100.271,100.271,0,0,0-31.173,21.875Z" fill="#1b1b2e"/>
      <path id="패스_2712" data-name="패스 2712" d="M238.779,233.644c16.217-10.336,35.726-9.614,53.159-8.285a285.586,285.586,0,0,1-53.159,8.285Z" fill="#1b1b2e"/>
      <path id="패스_2713" data-name="패스 2713" d="M228.54,243.3c18.629-1.2,43.487-2.488,57.552,10.279-18-7.515-37.757-8.992-57.552-10.279Z" fill="#1b1b2e"/>
      <path id="패스_2714" data-name="패스 2714" d="M219.24,252.98c18.713-3.063,64.891-1.045,66.117,21.81-7.569-18.927-46.888-18.866-66.117-21.81Z" fill="#1b1b2e"/>
      <path id="패스_2715" data-name="패스 2715" d="M210.725,262.852c8.979-5.435,19.786-3.278,29.462-3.19,15.69.3,35.663,5.949,39.745,22.112-7.851-10.287-20.334-15-32.979-17.09a113.133,113.133,0,0,0-36.228-1.832Z" fill="#1b1b2e"/>
      <path id="패스_2716" data-name="패스 2716" d="M205.287,270.208c17.71-6.676,59.762-3.082,65.035,17.454C254.1,268.6,227.329,274.83,205.287,270.208Z" fill="#1b1b2e"/>
      <path id="패스_2717" data-name="패스 2717" d="M196.455,284.748c11.5-10.23,63.681-4.758,62.892,13.666-11.537-12.637-26.965-14.955-43.171-15.044-6.264-.693-13.649-.62-19.721,1.378Z" fill="#1b1b2e"/>
      <path id="패스_2718" data-name="패스 2718" d="M192.012,293.3c20-9.794,59.037-5.386,57.866,20.327-10.37-18.6-37.213-24.247-57.866-20.327Z" fill="#1b1b2e"/>
      <path id="패스_2719" data-name="패스 2719" d="M188.951,300.479c15.518-11.7,39.057-3.911,42.714,16.24-11.19-15.556-25.072-21.645-42.714-16.24Z" fill="#1b1b2e"/>
      <path id="패스_2720" data-name="패스 2720" d="M186.826,306.692c40.276-.549,34.8,29.628,50.261,34.484-13.084-1.089-20.513-11.952-28.36-21.343-6.675-5.915-14.308-8.654-21.9-13.141Z" fill="#1b1b2e"/>
      <path id="패스_2721" data-name="패스 2721" d="M182.324,323.177c12.8-6.463,28.46,8.881,28.665,21.609-4.068-12.114-16.475-22.517-28.665-21.609Z" fill="#1b1b2e"/>
    </g>
  </g>
</svg>
