<svg id="문장웹진bi" xmlns="http://www.w3.org/2000/svg" xmlns:xlink="http://www.w3.org/1999/xlink" width="290.895" height="74.447" viewBox="0 0 290.895 74.447">
  <defs>
    <clipPath id="clip-path">
      <rect id="사각형_57799" data-name="사각형 57799" width="290.895" height="74.447" fill="none"/>
    </clipPath>
  </defs>
  <g id="그룹_23484" data-name="그룹 23484" transform="translate(0 0)" clip-path="url(#clip-path)">
    <path id="패스_64399" data-name="패스 64399" d="M53.263,19.2a9.628,9.628,0,0,0-9.629,9.629V76.256a1.253,1.253,0,0,0,2.376.555c2.3-4.694,6.733-9.794,15.128-9.794H91.453V19.2Z" transform="translate(-6.969 -3.066)" fill="#523e2e"/>
    <path id="패스_64400" data-name="패스 64400" d="M91.452,41.827v-3.4H43.634v3.4H65.845v8.54c0,8.918-8.887,16.172-19.811,16.172h-2.4v3.4h2.4c9.72,0,18.06-5.068,21.509-12.233,3.449,7.165,11.788,12.233,21.508,12.233h2.4v-3.4h-2.4c-10.923,0-19.81-7.254-19.81-16.172v-8.54Z" transform="translate(-6.969 -6.138)" fill="#006bdc"/>
    <path id="패스_64401" data-name="패스 64401" d="M194.817,51.647c-13.264,0-20.569,3.649-20.569,10.276s7.3,10.276,20.569,10.276,20.569-3.649,20.569-10.276-7.305-10.276-20.569-10.276m13.523,10.276c0,2.8-5.181,4.537-13.523,4.537s-13.523-1.739-13.523-4.537c0-2.756,5.308-4.537,13.523-4.537s13.523,1.781,13.523,4.537" transform="translate(-27.829 -8.249)" fill="#523e2e"/>
    <path id="패스_64402" data-name="패스 64402" d="M221.1,27.41V19.078H214.43V45.512H221.1V38.5a6.118,6.118,0,0,0-1.818-4.7l8.354,0V27.41Z" transform="translate(-34.247 -3.047)" fill="#523e2e"/>
    <path id="패스_64403" data-name="패스 64403" d="M184.81,25.052c-.951,7.105-5.8,12.093-12.665,13.019l-.368.049v5.688l.468-.048a20.973,20.973,0,0,0,15.573-9.088l.186-.28.057.095.156.182a20.973,20.973,0,0,0,15.571,9.091l.467.048V38.119l-.367-.049c-6.862-.925-11.714-5.913-12.664-13.018l-.033-.24,13.064,0v-5.48H171.777v5.48h13.065Z" transform="translate(-27.434 -3.088)" fill="#523e2e"/>
    <path id="패스_64404" data-name="패스 64404" d="M23.265,56.907h-.318c.105,0,.207.013.311.016Z" transform="translate(-3.665 -9.089)" fill="#1764af"/>
    <path id="패스_64405" data-name="패스 64405" d="M39.888,0H0V51.215H4.894v-3.4H3.4V3.4H39.888a7.94,7.94,0,0,1,7.931,7.931h3.4A11.339,11.339,0,0,0,39.888,0" transform="translate(0 0)" fill="#1764af"/>
    <path id="패스_64406" data-name="패스 64406" d="M19.169,60.3h1.044a7.794,7.794,0,0,1,7.629,7.931h3.4A11.448,11.448,0,0,0,28.072,60.3a10.853,10.853,0,0,0-7.548-3.38c-.1,0-.206-.017-.311-.017H5.824v3.4Z" transform="translate(-0.93 -9.089)" fill="#006bdc"/>
    <rect id="사각형_57796" data-name="사각형 57796" width="19.049" height="3.396" transform="translate(16.083 19.105)" fill="#006bdc"/>
    <rect id="사각형_57797" data-name="사각형 57797" width="6.122" height="28.369" transform="translate(234.777 16.031)" fill="#523e2e"/>
    <path id="패스_64407" data-name="패스 64407" d="M268.009,47.447h6.067V19.078h-6.067v8.341h-5.227v5.844h5.227Z" transform="translate(-41.969 -3.047)" fill="#523e2e"/>
    <rect id="사각형_57798" data-name="사각형 57798" width="6.567" height="33.925" transform="translate(284.328 16.031)" fill="#523e2e"/>
    <path id="패스_64408" data-name="패스 64408" d="M310.385,34.843l.1-.149.124.145a21.081,21.081,0,0,0,15.649,9.138l.585.061v-5.9l-.46-.062c-6.812-.918-11.63-5.87-12.573-12.925l-.017-.12,13.05,0V19.336H294.15v5.692l13.05,0-.017.12c-.944,7.057-5.763,12.009-12.573,12.926l-.46.062v5.9l.585-.061a21.082,21.082,0,0,0,15.65-9.134" transform="translate(-46.979 -3.088)" fill="#523e2e"/>
    <path id="패스_64409" data-name="패스 64409" d="M303.85,56.848h-6.721V73.012h41.22v-5.9h-34.5Z" transform="translate(-47.454 -9.079)" fill="#523e2e"/>
    <path id="패스_64410" data-name="패스 64410" d="M245.353,36.3c6.8,0,11.028-3.3,11.028-8.6,0-5.276-4.226-8.553-11.028-8.553s-11.029,3.277-11.029,8.553c0,5.307,4.226,8.6,11.029,8.6m-5.867-8.6c0-2.57,3.03-3.486,5.867-3.486s5.866.916,5.866,3.486c0,2.608-3.03,3.538-5.866,3.538s-5.867-.93-5.867-3.538" transform="translate(-37.424 -3.058)" fill="#523e2e"/>
    <path id="패스_64411" data-name="패스 64411" d="M272.272,60.543h-29.3V56.594h-6.457V72.972h42.217V56.594h-6.456Zm-29.3,5.288h29.3v1.963h-29.3Z" transform="translate(-37.773 -9.039)" fill="#523e2e"/>
    <path id="패스_64412" data-name="패스 64412" d="M242.741,52.219h5.844V47.555l12.165-.016h.106V42.13H232.932v5.425h9.809Z" transform="translate(-37.202 -6.729)" fill="#523e2e"/>
    <path id="패스_64413" data-name="패스 64413" d="M135.932,49.605c-.72-1.341-2.257-2.74-5.549-2.74H109.371v5.848h20.477v8.005h6.72V52.713H157.1V46.865H141.481c-3.292,0-4.829,1.4-5.549,2.74" transform="translate(-17.468 -7.485)" fill="#523e2e"/>
    <path id="패스_64414" data-name="패스 64414" d="M154.355,19.127h-16.3l-.1.008a5.226,5.226,0,0,0-4.087,2.633,5.229,5.229,0,0,0-4.088-2.633l-16.455-.008v19.9h41.03Zm-6.666,14.159h-27.7v-8.42h27.7Z" transform="translate(-18.099 -3.055)" fill="#523e2e"/>
    <path id="패스_64415" data-name="패스 64415" d="M119.98,58.4h-6.721V73.238h42.12v-5.9h-35.4Z" transform="translate(-18.089 -9.328)" fill="#523e2e"/>
  </g>
</svg>
