<svg id="문학집배원bi" xmlns="http://www.w3.org/2000/svg" xmlns:xlink="http://www.w3.org/1999/xlink" width="385.306" height="74.426" viewBox="0 0 385.306 74.426">
  <defs>
    <clipPath id="clip-path">
      <rect id="사각형_57810" data-name="사각형 57810" width="385.306" height="74.426" fill="none"/>
    </clipPath>
  </defs>
  <rect id="사각형_57806" data-name="사각형 57806" width="29.972" height="3.396" transform="translate(51.965 38.109)" fill="#009a74"/>
  <g id="그룹_23492" data-name="그룹 23492" transform="translate(0 0)">
    <g id="그룹_23491" data-name="그룹 23491" clip-path="url(#clip-path)">
      <path id="패스_64440" data-name="패스 64440" d="M89.087,0H49.209V19.738h0v3.4h0v9.856h0V51.224H69.422a7.791,7.791,0,0,1,7.627,7.929h3.4A11.441,11.441,0,0,0,77.258,51.2a10.84,10.84,0,0,0-7.837-3.373H54.08L52.6,47.8V3.4h6.156V23.534H90.842V3.6a7.937,7.937,0,0,1,6.173,7.726h3.4A11.336,11.336,0,0,0,89.087,0M87.446,20.138H62.156V3.4H87.446Z" transform="translate(-7.859 0)" fill="#009a74"/>
      <path id="패스_64441" data-name="패스 64441" d="M254.652,22.8H241.585v-3.7h-6.718v3.7H221.8V28.37h32.852Z" transform="translate(-35.424 -3.05)" fill="#523e2e"/>
      <path id="패스_64442" data-name="패스 64442" d="M272.328,19.094h-6.664v30.4h6.664l0-8.9a5.663,5.663,0,0,0-1.759-3.728h8.3V30.419h-6.533Z" transform="translate(-42.429 -3.05)" fill="#523e2e"/>
      <path id="패스_64443" data-name="패스 64443" d="M238.61,50.894c8.586,0,14.356-3.888,14.356-9.675,0-5.664-5.9-9.62-14.356-9.62-8.486,0-14.412,3.956-14.412,9.62,0,5.787,5.791,9.675,14.412,9.675M230.7,41.219c0-2.51,3.254-4.263,7.912-4.263s7.91,1.753,7.91,4.263c0,2.543-3.252,4.318-7.91,4.318-4.733,0-7.912-1.735-7.912-4.318" transform="translate(-35.807 -5.047)" fill="#523e2e"/>
      <path id="패스_64444" data-name="패스 64444" d="M225.3,63.453h33.865v9.691h6.717V57.552H225.3Z" transform="translate(-35.982 -9.192)" fill="#523e2e"/>
      <path id="패스_64445" data-name="패스 64445" d="M298,25.358c-.973,7.312-5.964,12.446-13.024,13.4l-.276.037v5.576l.351-.036a21.278,21.278,0,0,0,15.817-9.237l.278-.422.1.164.2.253a21.272,21.272,0,0,0,15.814,9.242l.35.036V38.791l-.275-.037c-7.061-.951-12.051-6.084-13.024-13.4l-.047-.36,13.345,0v-5.36H284.7V25h13.346Z" transform="translate(-45.47 -3.136)" fill="#523e2e"/>
      <path id="패스_64446" data-name="패스 64446" d="M323.645,55.875H295.363v-5.3h-6.682V72.037H330.33V50.576h-6.685Zm-28.282,5.737h28.283v4.633H295.363Z" transform="translate(-46.105 -8.078)" fill="#523e2e"/>
      <rect id="사각형_57807" data-name="사각형 57807" width="6.795" height="24.807" transform="translate(277.43 16.129)" fill="#523e2e"/>
      <path id="패스_64447" data-name="패스 64447" d="M421.8,37.789c9.1,0,14.745-3.591,14.745-9.372,0-5.746-5.65-9.315-14.745-9.315s-14.744,3.57-14.744,9.315c0,5.78,5.649,9.372,14.744,9.372m-8.063-9.372c0-2.922,4.165-3.963,8.063-3.963s8.063,1.041,8.063,3.963c0,2.963-4.165,4.018-8.063,4.018s-8.063-1.055-8.063-4.018" transform="translate(-65.01 -3.051)" fill="#523e2e"/>
      <path id="패스_64448" data-name="패스 64448" d="M447.708,19.1V46.524H433.265v5.732h14.443v4.03h6.8V19.1Z" transform="translate(-69.197 -3.051)" fill="#523e2e"/>
      <path id="패스_64449" data-name="패스 64449" d="M413.846,57.412h-6.8V73.129h43.266V67.174h-36.47Z" transform="translate(-65.01 -9.169)" fill="#523e2e"/>
      <path id="패스_64450" data-name="패스 64450" d="M416.826,57.254h6.8V48.722h.2c.382,0,.756-.005,1.13-.01l15.286-.005v-5.83H403.663v5.845h13.163Z" transform="translate(-64.469 -6.848)" fill="#523e2e"/>
      <path id="패스_64451" data-name="패스 64451" d="M359.544,36.267H350.67V19.293h-6.4V64.421h21.684V19.293h-6.4ZM350.67,42.5h8.874V58.13H350.67Z" transform="translate(-54.982 -3.082)" fill="#523e2e"/>
      <path id="패스_64452" data-name="패스 64452" d="M388.314,36.256h-6.485V19.262h-6.51V67.01h6.51V47.05a5.978,5.978,0,0,0-1.737-4.55h8.189l.034,24.51h6.513V19.094h-6.514Z" transform="translate(-59.942 -3.05)" fill="#523e2e"/>
      <path id="패스_64453" data-name="패스 64453" d="M38.5,3.423V.027H0v51.2H38.5v-5c-6.62-2.615-11.2-8.151-11.2-14.543v-.013h0V23.138H38.5v-3.4H3.4V3.423ZM34.055,47.833H17.146A20.743,20.743,0,0,0,25.6,39a20.745,20.745,0,0,0,8.455,8.83M23.9,23.138V31.7c-.018,8.9-8.894,16.135-19.8,16.135H3.4v-24.7Z" transform="translate(0 -0.005)" fill="#009a74"/>
      <path id="패스_64454" data-name="패스 64454" d="M103.571,19.194a9.626,9.626,0,0,0-9.626,9.626V76.235a1.252,1.252,0,0,0,2.376.555C98.621,72.1,103.052,67,111.445,67h30.306V19.194Z" transform="translate(-15.004 -3.066)" fill="#523e2e"/>
      <line id="선_586" data-name="선 586" transform="translate(112.366 33.898)" fill="#009a74"/>
      <line id="선_587" data-name="선 587" transform="translate(112.366 33.898)" fill="none" stroke="#fff" stroke-linecap="round" stroke-linejoin="round"/>
      <path id="패스_64455" data-name="패스 64455" d="M130.1,38.321H111.06v3.4H130.1v-3.4Z" transform="translate(-17.737 -6.12)" fill="#009a74"/>
      <path id="패스_64456" data-name="패스 64456" d="M186.218,49.664c-.72-1.341-2.256-2.74-5.548-2.74h-21v5.848h20.471v8h6.718v-8H207.38V46.924H191.767c-3.292,0-4.828,1.4-5.548,2.74m0,2.47h0Z" transform="translate(-25.5 -7.494)" fill="#523e2e"/>
      <path id="패스_64457" data-name="패스 64457" d="M204.635,19.193h-16.3l-.1.008a5.229,5.229,0,0,0-4.086,2.633,5.229,5.229,0,0,0-4.086-2.633l-16.45-.008V39.086h41.018Zm-6.664,14.156h-27.69V24.931h27.69Z" transform="translate(-26.131 -3.066)" fill="#523e2e"/>
      <path id="패스_64458" data-name="패스 64458" d="M170.27,58.459h-6.719v14.83h42.108v-5.9H170.27Z" transform="translate(-26.121 -9.337)" fill="#523e2e"/>
      <rect id="사각형_57808" data-name="사각형 57808" width="4.679" height="0.024" transform="translate(44.746 3.396)" fill="#2f906f"/>
      <rect id="사각형_57809" data-name="사각형 57809" width="0.004" height="3.396" transform="translate(41.346 0.024)" fill="#2f906f"/>
    </g>
  </g>
</svg>
