<svg id="문장의소리bi" xmlns="http://www.w3.org/2000/svg" xmlns:xlink="http://www.w3.org/1999/xlink" width="342.396" height="74.461" viewBox="0 0 342.396 74.461">
  <defs>
    <clipPath id="clip-path">
      <rect id="사각형_57816" data-name="사각형 57816" width="342.396" height="74.461" fill="none"/>
    </clipPath>
  </defs>
  <g id="그룹_23493" data-name="그룹 23493" transform="translate(0 0)" clip-path="url(#clip-path)">
    <path id="패스_64459" data-name="패스 64459" d="M194.853,51.524c-13.266,0-20.573,3.65-20.573,10.278s7.306,10.278,20.573,10.278,20.573-3.65,20.573-10.278-7.306-10.278-20.573-10.278M208.378,61.8c0,2.8-5.182,4.538-13.525,4.538S181.328,64.6,181.328,61.8c0-2.756,5.309-4.538,13.525-4.538s13.525,1.781,13.525,4.538" transform="translate(-27.834 -8.229)" fill="#523e2e"/>
    <path id="패스_64460" data-name="패스 64460" d="M221.137,27.536V19.2H214.47V45.641h6.667V38.633a6.121,6.121,0,0,0-1.82-4.7l8.356,0V27.536Z" transform="translate(-34.253 -3.067)" fill="#523e2e"/>
    <path id="패스_64461" data-name="패스 64461" d="M184.845,25.177c-.951,7.107-5.806,12.1-12.667,13.021l-.367.049v5.689l.467-.048A20.974,20.974,0,0,0,187.853,34.8l.186-.28.057.095.157.182a20.976,20.976,0,0,0,15.573,9.092l.468.048V38.246l-.368-.049c-6.863-.925-11.715-5.914-12.667-13.02l-.032-.24,13.067,0v-5.48H171.81v5.48h13.067Z" transform="translate(-27.44 -3.107)" fill="#523e2e"/>
    <path id="패스_64462" data-name="패스 64462" d="M135.958,49.687c-.722-1.341-2.258-2.741-5.552-2.741H109.391V52.8h20.481V60.8h6.721V52.8h20.536v-5.85H141.508c-3.294,0-4.83,1.4-5.55,2.741" transform="translate(-17.471 -7.498)" fill="#523e2e"/>
    <path id="패스_64463" data-name="패스 64463" d="M154.383,19.2H138.077l-.1.008a5.23,5.23,0,0,0-4.089,2.633A5.228,5.228,0,0,0,129.8,19.21L113.346,19.2V39.1h41.037Zm-6.667,14.161h-27.7V24.942h27.7Z" transform="translate(-18.102 -3.067)" fill="#523e2e"/>
    <path id="패스_64464" data-name="패스 64464" d="M120,58.486H113.28V73.323h42.128v-5.9H120Z" transform="translate(-18.092 -9.341)" fill="#523e2e"/>
    <path id="패스_64465" data-name="패스 64465" d="M26.375,30.029V3.4H39.9a7.94,7.94,0,0,1,7.931,7.931h3.4A11.342,11.342,0,0,0,39.9,0H0V51.225H19.285a7.794,7.794,0,0,1,7.63,7.931h3.4a11.449,11.449,0,0,0-3.167-7.931,10.85,10.85,0,0,0-7.55-3.381c-.1,0-.206-.016-.311-.016H12.8A21.631,21.631,0,0,0,24.676,37.367C28.126,44.534,36.467,49.6,46.189,49.6h2.4v-3.4h-2.4c-10.925,0-19.814-7.257-19.814-16.176M3.4,46.2V3.4h19.58V30.029c0,8.856-8.763,16.068-19.58,16.171" transform="translate(0 0)" fill="#bbbc0a"/>
    <path id="패스_64466" data-name="패스 64466" d="M53.273,19.2a9.63,9.63,0,0,0-9.631,9.631V76.269a1.253,1.253,0,0,0,2.376.556c2.3-4.695,6.735-9.8,15.131-9.8H91.47V19.2Z" transform="translate(-6.97 -3.067)" fill="#523e2e"/>
    <rect id="사각형_57811" data-name="사각형 57811" width="28.697" height="3.397" transform="translate(55.804 52.541)" fill="#bbbc0a"/>
    <rect id="사각형_57812" data-name="사각형 57812" width="28.696" height="3.397" transform="translate(36.673 23.963)" fill="#bbbc0a"/>
    <path id="패스_64467" data-name="패스 64467" d="M319.851,65.943V52.649h-6.892V65.943H292.1v6.448h48.723V65.943Z" transform="translate(-46.651 -8.409)" fill="#523e2e"/>
    <path id="패스_64468" data-name="패스 64468" d="M317.075,38.87c5.582,6.9,12.851,10.7,20.5,10.7h.638v-6.5h-.638c-5.64,0-11.325-3.319-15.6-9.105a6.851,6.851,0,0,1-1.288-4.051V19.2h-7.223V29.91a6.85,6.85,0,0,1-1.289,4.051c-4.271,5.786-9.956,9.105-15.6,9.105h-.638v6.5h.638c7.644,0,14.913-3.8,20.5-10.7" transform="translate(-47.265 -3.067)" fill="#523e2e"/>
    <path id="패스_64469" data-name="패스 64469" d="M249.667,50.583c9.021,0,15.322-6.415,15.322-15.6s-6.3-15.6-15.322-15.6-15.323,6.415-15.323,15.6,6.3,15.6,15.323,15.6m0-24.976c5.094,0,8.652,3.855,8.652,9.375,0,5.488-3.558,9.32-8.652,9.32s-8.653-3.832-8.653-9.32c0-5.52,3.559-9.375,8.653-9.375" transform="translate(-37.427 -3.096)" fill="#523e2e"/>
    <rect id="사각형_57813" data-name="사각형 57813" width="6.781" height="47.928" transform="translate(233.101 16.135)" fill="#523e2e"/>
    <rect id="사각형_57814" data-name="사각형 57814" width="36.263" height="6.448" transform="translate(194.957 54.779)" fill="#523e2e"/>
    <rect id="사각형_57815" data-name="사각형 57815" width="6.781" height="47.928" transform="translate(335.615 15.645)" fill="#523e2e"/>
    <path id="패스_64470" data-name="패스 64470" d="M363.2,45.742h21.249V20.826H356.309v6.337h21.36V39.405H356.42V65.043H389.4V58.6H363.2Z" transform="translate(-56.906 -3.327)" fill="#523e2e"/>
  </g>
</svg>
