<svg xmlns="http://www.w3.org/2000/svg" xmlns:xlink="http://www.w3.org/1999/xlink" width="433.433" height="107.926" viewBox="0 0 433.433 107.926">
  <defs>
    <clipPath id="clip-path">
      <rect id="사각형_57805" data-name="사각형 57805" width="433.433" height="107.926" fill="none"/>
    </clipPath>
  </defs>
  <g id="bi" transform="translate(0 0)">
    <path id="패스_64423" data-name="패스 64423" d="M266.949,44.651h9.662V19.2h-39.9v8.4h30.239Z" transform="translate(51.66 4.19)" fill="#523e2e"/>
    <g id="그룹_23490" data-name="그룹 23490" transform="translate(0 0)">
      <g id="그룹_23489" data-name="그룹 23489" clip-path="url(#clip-path)">
        <path id="패스_64424" data-name="패스 64424" d="M287.525,19.2h-9.663V57.635h9.663V47.225c-.1-3.407-1.256-5.454-2.634-6.683h11.95V31.277h-9.316Z" transform="translate(60.641 4.19)" fill="#523e2e"/>
        <path id="패스_64425" data-name="패스 64425" d="M267.427,53.123c-19.432,0-30.134,4.983-30.134,14.029,0,8.865,10.984,13.949,30.134,13.949s30.136-5.084,30.136-13.949c0-9.047-10.7-14.029-30.136-14.029m20.079,14.029c0,3.772-7.506,6.024-20.079,6.024s-20.077-2.253-20.077-6.024c0-3.822,7.506-6.1,20.077-6.1s20.079,2.282,20.079,6.1" transform="translate(51.787 11.594)" fill="#523e2e"/>
        <path id="패스_64426" data-name="패스 64426" d="M255.9,53.82h27.764V45.5H263.182c-3.227.162-5.171,1.3-6.36,2.644v-16.7h-9.583V45.5H234.053V53.82H255.9Z" transform="translate(51.08 6.863)" fill="#523e2e"/>
        <path id="패스_64427" data-name="패스 64427" d="M329.716,51.633c-19.229,0-29.819,5.29-29.819,14.9s10.59,14.9,29.819,14.9,29.819-5.291,29.819-14.9-10.59-14.9-29.819-14.9m19.6,14.9c0,4.057-7.512,6.577-19.6,6.577s-19.6-2.521-19.6-6.577c0-3.995,7.694-6.577,19.6-6.577s19.6,2.583,19.6,6.577" transform="translate(65.45 11.269)" fill="#523e2e"/>
        <path id="패스_64428" data-name="패스 64428" d="M349.739,31.277V19.2h-9.662V57.519h9.662V47.36c-.068-3.489-1.24-5.573-2.636-6.818l12.111,0V31.277Z" transform="translate(74.219 4.19)" fill="#523e2e"/>
        <path id="패스_64429" data-name="패스 64429" d="M316.444,27.737c-1.389,10.372-8.474,17.655-18.493,19l-.4.055v7.94l.509-.051a30.258,30.258,0,0,0,22.463-13.106l.4-.6.121.194.317.4A30.256,30.256,0,0,0,343.82,54.684l.508.051v-7.94l-.4-.055c-10.02-1.35-17.1-8.631-18.492-19l-.071-.523,18.961,0V19.577H297.552v7.635l18.962,0Z" transform="translate(64.938 4.273)" fill="#523e2e"/>
        <path id="패스_64430" data-name="패스 64430" d="M219.152,24.566H200.2V19.2h-9.742v5.368H171.514V32.65h47.638Z" transform="translate(37.431 4.19)" fill="#523e2e"/>
        <path id="패스_64431" data-name="패스 64431" d="M225.051,19.2h-9.663V63.282h9.663l-.006-12.911a8.21,8.21,0,0,0-2.55-5.405h12.029V35.62h-9.473Z" transform="translate(47.006 4.19)" fill="#523e2e"/>
        <path id="패스_64432" data-name="패스 64432" d="M194.811,59.684c12.452,0,20.817-5.638,20.817-14.029,0-8.213-8.561-13.95-20.817-13.95-12.305,0-20.9,5.737-20.9,13.95,0,8.391,8.4,14.029,20.9,14.029M183.338,45.655c0-3.64,4.717-6.181,11.473-6.181s11.47,2.541,11.47,6.181c0,3.686-4.716,6.262-11.47,6.262-6.862,0-11.473-2.516-11.473-6.262" transform="translate(37.955 6.92)" fill="#523e2e"/>
        <path id="패스_64433" data-name="패스 64433" d="M175.013,66.087H224.12V80.139h9.742V57.53h-58.85Z" transform="translate(38.195 12.556)" fill="#523e2e"/>
        <path id="패스_64434" data-name="패스 64434" d="M57.59,19.2A13.959,13.959,0,0,0,43.631,33.157v68.756a1.815,1.815,0,0,0,3.444.806c3.337-6.805,9.762-14.2,21.932-14.2h43.947V19.2Z" transform="translate(9.522 4.19)" fill="#523e2e"/>
        <path id="패스_64435" data-name="패스 64435" d="M112.954,43.353V38.429H43.632v4.924h32.2v12.38c0,12.927-12.884,23.445-28.72,23.445H43.632V84.1h3.479c14.093,0,26.181-7.347,31.182-17.734,5,10.387,17.088,17.734,31.18,17.734h3.481V79.178h-3.481c-15.835,0-28.718-10.518-28.718-23.445V43.353Z" transform="translate(9.522 8.387)" fill="#ffc000"/>
        <rect id="사각형_57804" data-name="사각형 57804" width="4.924" height="27.615" transform="translate(34.66 23.316)" fill="#ffc000"/>
        <path id="패스_64436" data-name="패스 64436" d="M57.825,0H0V74.247H27.953a11.3,11.3,0,0,1,11.06,11.5h4.924a16.592,16.592,0,0,0-4.59-11.5,15.726,15.726,0,0,0-11.394-4.924H4.924V4.924h52.9a11.509,11.509,0,0,1,11.5,11.5h4.925A16.44,16.44,0,0,0,57.825,0" transform="translate(0 0)" fill="#ffc000"/>
        <path id="패스_64437" data-name="패스 64437" d="M147.869,50.906c-1.044-1.943-3.272-3.971-8.045-3.971h-30.46v8.479h29.685v11.6h9.742v-11.6h29.765V46.935H155.914c-4.773,0-7,2.028-8.045,3.971" transform="translate(23.868 10.244)" fill="#523e2e"/>
        <path id="패스_64438" data-name="패스 64438" d="M172.8,19.2H149.165l-.141.011a7.581,7.581,0,0,0-5.926,3.818,7.582,7.582,0,0,0-5.926-3.818L113.317,19.2V48.045H172.8Zm-9.664,20.527H122.981V27.519h40.153Z" transform="translate(24.73 4.19)" fill="#523e2e"/>
        <path id="패스_64439" data-name="패스 64439" d="M123,58.472h-9.743v21.5h61.061V71.419H123Z" transform="translate(24.716 12.761)" fill="#523e2e"/>
      </g>
    </g>
  </g>
</svg>
