<?xml version="1.0" encoding="utf-8"?>
<!-- Generator: Adobe Illustrator 27.4.0, SVG Export Plug-In . SVG Version: 6.00 Build 0)  -->
<svg version="1.1" id="레이어_1" xmlns="http://www.w3.org/2000/svg" xmlns:xlink="http://www.w3.org/1999/xlink" x="0px"
	 y="0px" viewBox="0 0 155.9 80" style="enable-background:new 0 0 155.9 80;" xml:space="preserve">
<style type="text/css">
	.st0{clip-path:url(#SVGID_00000018232780816061426860000000390852008379350170_);}
	.st1{fill:#523E2E;}
	.st2{fill:#006BDC;}
	.st3{fill:#1764AF;}
	.st4{clip-path:url(#SVGID_00000070820607586444038380000005801830456786996366_);}
	.st5{fill:#FFFFFF;}
</style>
<g id="webzine_bi" transform="translate(0 0)">
	<g>
		<defs>
			<rect id="SVGID_1_" width="155.9" height="39.9"/>
		</defs>
		<clipPath id="SVGID_00000033340259736685979850000011520192777204721062_">
			<use xlink:href="#SVGID_1_"  style="overflow:visible;"/>
		</clipPath>
		
			<g id="그룹_23484" transform="translate(0 0)" style="clip-path:url(#SVGID_00000033340259736685979850000011520192777204721062_);">
			<path id="패스_64399" class="st1" d="M24.8,8.7c-2.9,0-5.2,2.3-5.2,5.2v25.4c0,0.4,0.3,0.7,0.7,0.7c0.3,0,0.5-0.1,0.6-0.4
				c1.4-3.2,4.6-5.3,8.1-5.3h16.2V8.7H24.8z"/>
			<path id="패스_64400" class="st2" d="M45.3,19.1v-1.8H19.7v1.8h11.9v4.6c0,4.8-4.8,8.7-10.6,8.7h-1.3v1.8h1.3
				c5.2,0,9.7-2.7,11.5-6.6c1.8,3.8,6.3,6.6,11.5,6.6h1.3v-1.8H44c-5.9,0-10.6-3.9-10.6-8.7v-4.6H45.3z"/>
			<path id="패스_64401" class="st1" d="M89.5,23.3c-7.1,0-11,2-11,5.5s3.9,5.5,11,5.5s11-2,11-5.5S96.6,23.3,89.5,23.3
				 M96.8,28.8c0,1.5-2.8,2.4-7.2,2.4s-7.2-0.9-7.2-2.4c0-1.5,2.8-2.4,7.2-2.4S96.8,27.3,96.8,28.8"/>
			<path id="패스_64402" class="st1" d="M100.2,13.1V8.6h-3.6v14.2h3.6V19c0.1-0.9-0.3-1.9-1-2.5h4.5v-3.4H100.2z"/>
			<path id="패스_64403" class="st1" d="M84.4,11.8c-0.3,3.6-3.2,6.5-6.8,7l-0.2,0v3l0.3,0c3.4-0.3,6.4-2.1,8.3-4.9l0.1-0.2l0,0.1
				l0.1,0.1c1.9,2.8,5,4.6,8.3,4.9l0.2,0v-3.1l-0.2,0c-3.6-0.4-6.4-3.3-6.8-7l0-0.1h7V8.7H77.4v2.9h7L84.4,11.8z"/>
			<path id="패스_64404" class="st3" d="M10.5,25.6h-0.2C10.4,25.6,10.4,25.6,10.5,25.6L10.5,25.6z"/>
			<path id="패스_64405" class="st3" d="M21.4,0H0v27.5h2.6v-1.8H1.8V1.8h19.6c2.3,0,4.2,1.9,4.3,4.3h1.8C27.5,2.7,24.7,0,21.4,0"
				/>
			<path id="패스_64406" class="st2" d="M9.8,27.5h0.6c2.3,0,4.1,1.9,4.1,4.3h1.8c0-1.6-0.6-3.1-1.7-4.3c-1.1-1.1-2.5-1.8-4-1.8
				c-0.1,0-0.1,0-0.2,0H2.6v1.8H9.8z"/>
			<rect id="사각형_57796" x="8.6" y="10.2" class="st2" width="10.2" height="1.8"/>
			<rect id="사각형_57797" x="125.9" y="8.6" class="st1" width="3.3" height="15.2"/>
			<path id="패스_64407" class="st1" d="M121.2,23.8h3.3V8.6h-3.3v4.5h-2.8v3.1h2.8V23.8z"/>
			<rect id="사각형_57798" x="152.4" y="8.6" class="st1" width="3.5" height="18.2"/>
			<path id="패스_64408" class="st1" d="M141.2,17L141.2,17l0.1,0c1.9,2.8,5,4.6,8.4,4.9l0.3,0v-3.2l-0.2,0
				c-3.6-0.4-6.4-3.3-6.7-6.9l0-0.1h7V8.7h-17.5v3.1h7l0,0.1c-0.3,3.6-3.1,6.5-6.7,6.9l-0.2,0V22l0.3,0
				C136.2,21.6,139.3,19.8,141.2,17"/>
			<path id="패스_64409" class="st1" d="M137.5,25.6h-3.6v8.7H156v-3.2h-18.5V25.6z"/>
			<path id="패스_64410" class="st1" d="M111.5,17.8c3.6,0,5.9-1.8,5.9-4.6c0-2.8-2.3-4.6-5.9-4.6s-5.9,1.8-5.9,4.6
				C105.6,16.1,107.8,17.8,111.5,17.8 M108.3,13.2c0-1.4,1.6-1.9,3.1-1.9s3.1,0.5,3.1,1.9c0,1.4-1.6,1.9-3.1,1.9
				S108.3,14.6,108.3,13.2"/>
			<path id="패스_64411" class="st1" d="M125.7,27.6H110v-2.1h-3.5v8.8h22.6v-8.8h-3.5V27.6z M110,30.4h15.7v1.1H110V30.4z"/>
			<path id="패스_64412" class="st1" d="M110.2,24.4h3.1v-2.5l6.5,0h0.1V19h-15v2.9h5.3L110.2,24.4z"/>
			<path id="패스_64413" class="st1" d="M63.5,22.6c-0.6-1-1.8-1.6-3-1.5H49.3v3.1h11v4.3h3.6v-4.3h11v-3.1h-8.4
				C65.3,21,64.1,21.5,63.5,22.6"/>
			<path id="패스_64414" class="st1" d="M73,8.6h-8.7h-0.1c-0.9,0.1-1.7,0.6-2.2,1.4c-0.5-0.8-1.3-1.3-2.2-1.4H51v10.7h22L73,8.6z
				 M69.5,16.2H54.6v-4.5h14.8L69.5,16.2z"/>
			<path id="패스_64415" class="st1" d="M54.6,26.3H51v8h22.6v-3.2h-19V26.3z"/>
		</g>
	</g>
</g>
<g id="webzine_bi_00000001646989688885806620000015983958476574362754_" transform="translate(0 0)">
	<g>
		<defs>
			<rect id="SVGID_00000177455143682208341470000011366763509176180102_" y="39.9" width="155.9" height="39.9"/>
		</defs>
		<clipPath id="SVGID_00000019658908725326354530000011772074800263575721_">
			<use xlink:href="#SVGID_00000177455143682208341470000011366763509176180102_"  style="overflow:visible;"/>
		</clipPath>
		
			<g id="그룹_23484_00000061449131025349085170000005836868124128033680_" transform="translate(0 0)" style="clip-path:url(#SVGID_00000019658908725326354530000011772074800263575721_);">
			<path id="패스_64399_00000031894052178039270110000015520698653836544905_" class="st1" d="M24.8,48.6c-2.9,0-5.2,2.3-5.2,5.2
				v25.4c0,0.4,0.3,0.7,0.7,0.7c0.3,0,0.5-0.1,0.6-0.4c1.4-3.2,4.6-5.3,8.1-5.3h16.2V48.6H24.8z"/>
			<path id="패스_64400_00000101795555555421838380000000552090095794596010_" class="st2" d="M45.3,59v-1.8H19.7V59h11.9v4.6
				c0,4.8-4.8,8.7-10.6,8.7h-1.3v1.8h1.3c5.2,0,9.7-2.7,11.5-6.6c1.8,3.8,6.3,6.6,11.5,6.6h1.3v-1.8H44c-5.9,0-10.6-3.9-10.6-8.7V59
				H45.3z"/>
			<path id="패스_64401_00000078042187160782142030000008066345200525081786_" class="st5" d="M89.5,63.2c-7.1,0-11,2-11,5.5
				c0,3.6,3.9,5.5,11,5.5s11-2,11-5.5S96.6,63.2,89.5,63.2 M96.8,68.7c0,1.5-2.8,2.4-7.2,2.4s-7.2-0.9-7.2-2.4
				c0-1.5,2.8-2.4,7.2-2.4S96.8,67.2,96.8,68.7"/>
			<path id="패스_64402_00000078753103319319073460000015913047267757916290_" class="st5" d="M100.2,53v-4.5h-3.6v14.2h3.6v-3.8
				c0.1-0.9-0.3-1.9-1-2.5h4.5V53H100.2z"/>
			<path id="패스_64403_00000047036572680343131310000012320087706337851059_" class="st5" d="M84.4,51.7c-0.3,3.6-3.2,6.5-6.8,7
				l-0.2,0v3l0.3,0c3.4-0.3,6.4-2.1,8.3-4.9l0.1-0.2l0,0.1l0.1,0.1c1.9,2.8,5,4.6,8.3,4.9l0.2,0v-3.1l-0.2,0c-3.6-0.4-6.4-3.3-6.8-7
				l0-0.1h7v-2.9H77.4v2.9h7L84.4,51.7z"/>
			<path id="패스_64404_00000134243909267941464980000004047988008632475264_" class="st3" d="M10.5,65.5h-0.2
				C10.4,65.5,10.4,65.6,10.5,65.5L10.5,65.5z"/>
			<path id="패스_64405_00000175289276728749350690000000474480674339512509_" class="st3" d="M21.4,39.9H0v27.5h2.6v-1.8H1.8
				V41.7h19.6c2.3,0,4.2,1.9,4.3,4.3h1.8C27.5,42.6,24.7,39.9,21.4,39.9"/>
			<path id="패스_64406_00000066488646536310242850000005920572493576393130_" class="st2" d="M9.8,67.4h0.6
				c2.3,0,4.1,1.9,4.1,4.3h1.8c0-1.6-0.6-3.1-1.7-4.3c-1.1-1.1-2.5-1.8-4-1.8c-0.1,0-0.1,0-0.2,0H2.6v1.8H9.8z"/>
			
				<rect id="사각형_57796_00000016786067318173845860000006468240072534491276_" x="8.6" y="50.2" class="st2" width="10.2" height="1.8"/>
			
				<rect id="사각형_57797_00000121242773298054389500000014398741539966668963_" x="125.9" y="48.5" class="st5" width="3.3" height="15.2"/>
			<path id="패스_64407_00000022553760606105107490000017749669338222165642_" class="st5" d="M121.2,63.7h3.3V48.5h-3.3V53h-2.8
				v3.1h2.8V63.7z"/>
			
				<rect id="사각형_57798_00000044871505259132781420000005331115523736829101_" x="152.4" y="48.5" class="st5" width="3.5" height="18.2"/>
			<path id="패스_64408_00000008118449319090203870000013573134737034248107_" class="st5" d="M141.2,56.9L141.2,56.9l0.1,0
				c1.9,2.8,5,4.6,8.4,4.9l0.3,0v-3.2l-0.2,0c-3.6-0.4-6.4-3.3-6.7-6.9l0-0.1h7v-3.1h-17.5v3.1h7l0,0.1c-0.3,3.6-3.1,6.5-6.7,6.9
				l-0.2,0v3.2l0.3,0C136.2,61.5,139.3,59.7,141.2,56.9"/>
			<path id="패스_64409_00000027587379961695317070000004778050895640807837_" class="st5" d="M137.5,65.5h-3.6v8.7H156V71h-18.5
				V65.5z"/>
			<path id="패스_64410_00000020387594881830117280000011774613450194773385_" class="st5" d="M111.5,57.7c3.6,0,5.9-1.8,5.9-4.6
				c0-2.8-2.3-4.6-5.9-4.6s-5.9,1.8-5.9,4.6C105.6,56,107.8,57.7,111.5,57.7 M108.3,53.1c0-1.4,1.6-1.9,3.1-1.9s3.1,0.5,3.1,1.9
				c0,1.4-1.6,1.9-3.1,1.9S108.3,54.5,108.3,53.1"/>
			<path id="패스_64411_00000086683414323146776850000016867458908513059771_" class="st5" d="M125.7,67.5H110v-2.1h-3.5v8.8h22.6
				v-8.8h-3.5V67.5z M110,70.4h15.7v1.1H110V70.4z"/>
			<path id="패스_64412_00000059996516495019249880000015396727519501554862_" class="st5" d="M110.2,64.3h3.1v-2.5l6.5,0h0.1
				v-2.9h-15v2.9h5.3L110.2,64.3z"/>
			<path id="패스_64413_00000011742095656727209590000017260510763981572224_" class="st5" d="M63.5,62.5c-0.6-1-1.8-1.6-3-1.5
				H49.3v3.1h11v4.3h3.6v-4.3h11V61h-8.4C65.3,60.9,64.1,61.5,63.5,62.5"/>
			<path id="패스_64414_00000119832848082291135380000014845262934542868646_" class="st5" d="M73,48.5h-8.7h-0.1
				c-0.9,0.1-1.7,0.6-2.2,1.4c-0.5-0.8-1.3-1.3-2.2-1.4H51v10.7h22L73,48.5z M69.5,56.1H54.6v-4.5h14.8L69.5,56.1z"/>
			<path id="패스_64415_00000051378530466122764820000010446622541818674307_" class="st5" d="M54.6,66.2H51v8h22.6V71h-19V66.2z"
				/>
		</g>
	</g>
</g>
</svg>
