<?xml version="1.0" encoding="utf-8"?>
<!-- Generator: Adobe Illustrator 27.4.0, SVG Export Plug-In . SVG Version: 6.00 Build 0)  -->
<svg version="1.1" id="레이어_1" xmlns="http://www.w3.org/2000/svg" xmlns:xlink="http://www.w3.org/1999/xlink" x="0px"
	 y="0px" viewBox="0 0 56 28" style="enable-background:new 0 0 56 28;" xml:space="preserve">
<style type="text/css">
	.st0{fill:#64503D;}
	.st1{fill:#FFFFFF;}
</style>
<path id="채널문장" class="st0" d="M0.9,12.5c0.2,0,0.4-0.1,0.5-0.2c1-1,1.8-2.2,2.1-3.6c0.3,1.4,1.1,2.6,2.1,3.6
	c0.1,0.1,0.3,0.2,0.5,0.2c0.5,0,0.8-0.3,0.9-0.8c0,0,0,0,0,0c0-0.2-0.1-0.5-0.3-0.7C5.1,9.3,4.3,7.1,4.4,4.7V3.4h1.5
	c0.4,0,0.8-0.3,0.8-0.8c0,0,0,0,0,0c0-0.4-0.3-0.8-0.8-0.8H4.4V0.8C4.4,0.3,4,0,3.6,0c0,0,0,0-0.1,0C3.1,0,2.7,0.3,2.6,0.7
	c0,0,0,0,0,0.1v1.1H1.1c-0.4,0-0.8,0.4-0.8,0.8c0,0.4,0.3,0.8,0.8,0.8c0,0,0,0,0,0h1.5v1.3C2.7,7.1,1.9,9.3,0.3,11
	C0.1,11.2,0,11.4,0,11.6C0,12.1,0.4,12.5,0.9,12.5C0.8,12.5,0.8,12.5,0.9,12.5z M8.6,13.2c0.4,0,0.8-0.3,0.9-0.7c0,0,0,0,0-0.1V7.1
	h1.5v5.4c0,0.5,0.4,0.8,0.8,0.8c0,0,0,0,0,0c0.5,0,0.8-0.3,0.9-0.8c0,0,0,0,0,0V1c0-0.5-0.4-0.8-0.8-0.8c0,0,0,0,0,0
	c-0.5,0-0.8,0.3-0.9,0.8c0,0,0,0,0,0v4.5H9.5V1c0-0.4-0.4-0.8-0.8-0.8c0,0,0,0-0.1,0c-0.4,0-0.8,0.3-0.9,0.7c0,0,0,0,0,0.1v11.5
	C7.7,12.9,8.1,13.2,8.6,13.2C8.6,13.2,8.6,13.2,8.6,13.2L8.6,13.2z M24.5,3.3v2.8c0,0.5,0.4,0.9,0.9,0.8c0,0,0.1,0,0.1,0
	c0.5,0.1,0.9-0.3,1-0.7c0,0,0-0.1,0-0.1V1c0-0.5-0.4-0.9-0.9-0.9c0,0-0.1,0-0.1,0c-0.5-0.1-0.9,0.3-1,0.8c0,0,0,0.1,0,0.1v0.8h-3.2
	c-0.4,0-0.8,0.3-0.8,0.7c0,0,0,0,0,0c0,0.4,0.3,0.8,0.7,0.8c0,0,0,0,0,0L24.5,3.3z M15.6,6.5c2.2-0.1,4.3-0.3,6.5-0.6
	c0.4,0,0.7-0.4,0.7-0.8c0-0.4-0.3-0.8-0.7-0.8c-0.1,0-0.1,0-0.2,0c-1.8,0.3-3.5,0.5-5.3,0.6V1.2c0-0.5-0.4-0.9-0.9-0.8
	c0,0-0.1,0-0.1,0c-0.5-0.1-0.9,0.3-1,0.8c0,0,0,0.1,0,0.1v4.5C14.7,6.3,15,6.5,15.6,6.5L15.6,6.5z M17.3,11.8v-0.9h8.4
	c0.4,0,0.7-0.2,0.8-0.6c0-0.1,0-0.1,0-0.2V8.2c0-0.4-0.2-0.7-0.6-0.8c-0.1,0-0.1,0-0.2,0h-9.8c-0.4,0-0.7,0.3-0.7,0.7
	c0,0.4,0.3,0.7,0.7,0.7h8.6v0.9h-8.4c-0.4,0-0.7,0.2-0.8,0.6c0,0,0,0.1,0,0.1v2c0,0.4,0.2,0.7,0.6,0.8c0.1,0,0.1,0,0.2,0h10
	c0.4,0,0.7-0.3,0.7-0.7c0-0.4-0.3-0.7-0.7-0.7H17.3z M39.3,5.3c0.4,0,0.8-0.3,0.9-0.7c0-0.1,0-0.1,0-0.2V1.3c0-0.4-0.3-0.8-0.7-0.9
	c-0.1,0-0.1,0-0.2,0h-9.5c-0.4,0-0.8,0.3-0.9,0.7c0,0.1,0,0.1,0,0.2v3.1c0,0.4,0.3,0.8,0.7,0.9c0.1,0,0.1,0,0.2,0L39.3,5.3z
	 M30.8,1.8h7.4v2h-7.4V1.8z M34.6,10.3c0.5,0,1-0.3,1-0.8V7.8h4.7c0.4,0,0.8-0.3,0.8-0.7c0,0,0,0,0,0c0-0.4-0.3-0.8-0.7-0.8
	c0,0,0,0,0,0H28.8c-0.4,0-0.8,0.3-0.8,0.8c0,0.4,0.3,0.8,0.8,0.8h4.8v1.7C33.6,10,34,10.3,34.6,10.3C34.5,10.3,34.6,10.3,34.6,10.3
	L34.6,10.3z M39.8,13.1c0.4,0,0.7-0.3,0.7-0.7c0-0.4-0.3-0.7-0.7-0.7h-8.9V9.6c0-0.5-0.4-0.9-0.9-0.8c0,0-0.1,0-0.1,0
	c-0.5-0.1-0.9,0.3-1,0.8c0,0,0,0.1,0,0.1v2.7c-0.1,0.4,0.3,0.9,0.7,0.9c0.1,0,0.1,0,0.2,0H39.8z M53.1,7.8c0.6,0,1-0.3,1-0.8V4.6h1
	c0.4,0,0.8-0.4,0.8-0.8c0,0,0,0,0,0c0-0.4-0.3-0.8-0.7-0.8c0,0,0,0,0,0h-1V1c0-0.5-0.4-0.9-0.9-0.8c0,0-0.1,0-0.1,0
	c-0.5-0.1-0.9,0.3-1,0.8c0,0,0,0.1,0,0.1v6C52.1,7.5,52.5,7.8,53.1,7.8C53.1,7.8,53.1,7.8,53.1,7.8z M43.3,7.3
	c1.4-0.2,2.6-1.2,3.2-2.5c0.6,1.3,1.8,2.1,3.2,2.3c0.4,0.1,0.9-0.2,1-0.6c0-0.1,0-0.1,0-0.2c0-0.4-0.3-0.7-0.6-0.8
	c-1.5-0.2-2.7-1.6-2.6-3.1V2.2h2.4c0.4,0,0.8-0.3,0.8-0.8c0-0.4-0.4-0.8-0.8-0.8h-6.6c-0.4,0-0.8,0.4-0.8,0.8c0,0.4,0.4,0.8,0.8,0.8
	h2.4v0.2c0,1.6-1.1,3-2.7,3.3c-0.4,0.1-0.6,0.4-0.6,0.8c0,0.5,0.4,0.8,0.8,0.8C43.2,7.3,43.2,7.3,43.3,7.3z M42.9,10.7
	c0,1.4,1.2,2.5,2.6,2.5c0,0,0.1,0,0.1,0h6c1.4,0.1,2.6-1,2.7-2.4c0,0,0-0.1,0-0.1c0-1.4-1.2-2.5-2.6-2.5c0,0-0.1,0-0.1,0h-6
	c-1.4-0.1-2.6,1-2.7,2.4C42.9,10.6,42.9,10.6,42.9,10.7z M46,11.7c-0.6,0.1-1.1-0.3-1.1-0.9c0,0,0-0.1,0-0.1c0-0.6,0.5-1,1-1
	c0,0,0.1,0,0.1,0h5.3c0.6-0.1,1.1,0.3,1.1,0.9c0,0,0,0.1,0,0.1c0,0.6-0.4,1-1,1c0,0-0.1,0-0.1,0H46z"/>
<path id="채널문장_00000127728039039818341920000005883150241653841832_" class="st1" d="M0.9,26.5c0.2,0,0.4-0.1,0.5-0.2
	c1-1,1.8-2.2,2.1-3.6c0.3,1.4,1.1,2.6,2.1,3.6c0.1,0.1,0.3,0.2,0.5,0.2c0.5,0,0.8-0.3,0.9-0.8c0,0,0,0,0,0c0-0.2-0.1-0.5-0.3-0.7
	c-1.6-1.7-2.5-3.9-2.4-6.2v-1.3h1.5c0.4,0,0.8-0.3,0.8-0.8c0,0,0,0,0,0c0-0.4-0.3-0.8-0.8-0.8H4.4v-1.1C4.4,14.4,4,14,3.6,14
	c0,0,0,0-0.1,0c-0.4,0-0.8,0.3-0.9,0.7c0,0,0,0,0,0.1v1.1H1.1c-0.4,0-0.8,0.4-0.8,0.8c0,0.4,0.3,0.8,0.8,0.8c0,0,0,0,0,0h1.5v1.3
	c0.1,2.3-0.7,4.6-2.3,6.2C0.1,25.2,0,25.4,0,25.6C0,26.1,0.4,26.5,0.9,26.5C0.8,26.5,0.8,26.5,0.9,26.5z M8.6,27.2
	c0.4,0,0.8-0.3,0.9-0.7c0,0,0,0,0-0.1v-5.4h1.5v5.4c0,0.5,0.4,0.8,0.8,0.8c0,0,0,0,0,0c0.5,0,0.8-0.3,0.9-0.8c0,0,0,0,0,0V15
	c0-0.5-0.4-0.8-0.8-0.8c0,0,0,0,0,0c-0.5,0-0.8,0.3-0.9,0.8c0,0,0,0,0,0v4.5H9.5V15c0-0.4-0.4-0.8-0.8-0.8c0,0,0,0-0.1,0
	c-0.4,0-0.8,0.3-0.9,0.7c0,0,0,0,0,0.1v11.5C7.7,26.9,8.1,27.3,8.6,27.2C8.6,27.2,8.6,27.2,8.6,27.2L8.6,27.2z M24.5,17.3v2.8
	c0,0.5,0.4,0.9,0.9,0.8c0,0,0.1,0,0.1,0c0.5,0.1,0.9-0.3,1-0.7c0,0,0-0.1,0-0.1v-5c0-0.5-0.4-0.9-0.9-0.9c0,0-0.1,0-0.1,0
	c-0.5-0.1-0.9,0.3-1,0.8c0,0,0,0.1,0,0.1v0.8h-3.2c-0.4,0-0.8,0.3-0.8,0.7c0,0,0,0,0,0c0,0.4,0.3,0.8,0.7,0.8c0,0,0,0,0,0L24.5,17.3
	z M15.6,20.5c2.2-0.1,4.3-0.3,6.5-0.6c0.4,0,0.7-0.4,0.7-0.8c0-0.4-0.3-0.8-0.7-0.8c-0.1,0-0.1,0-0.2,0c-1.8,0.3-3.5,0.5-5.3,0.6
	v-3.7c0-0.5-0.4-0.9-0.9-0.8c0,0-0.1,0-0.1,0c-0.5-0.1-0.9,0.3-1,0.8c0,0,0,0.1,0,0.1v4.5C14.7,20.3,15,20.5,15.6,20.5L15.6,20.5z
	 M17.3,25.8v-0.9h8.4c0.4,0,0.7-0.2,0.8-0.6c0-0.1,0-0.1,0-0.2v-1.9c0-0.4-0.2-0.7-0.6-0.8c-0.1,0-0.1,0-0.2,0h-9.8
	c-0.4,0-0.7,0.3-0.7,0.7c0,0.4,0.3,0.7,0.7,0.7h8.6v0.9h-8.4c-0.4,0-0.7,0.2-0.8,0.6c0,0,0,0.1,0,0.1v2c0,0.4,0.2,0.7,0.6,0.8
	c0.1,0,0.1,0,0.2,0h10c0.4,0,0.7-0.3,0.7-0.7c0-0.4-0.3-0.7-0.7-0.7H17.3z M39.3,19.3c0.4,0,0.8-0.3,0.9-0.7c0-0.1,0-0.1,0-0.2v-3.1
	c0-0.4-0.3-0.8-0.7-0.9c-0.1,0-0.1,0-0.2,0h-9.5c-0.4,0-0.8,0.3-0.9,0.7c0,0.1,0,0.1,0,0.2v3.1c0,0.4,0.3,0.8,0.7,0.9
	c0.1,0,0.1,0,0.2,0H39.3z M30.8,15.8h7.4v2h-7.4V15.8z M34.6,24.3c0.5,0,1-0.3,1-0.8v-1.7h4.7c0.4,0,0.8-0.3,0.8-0.7c0,0,0,0,0,0
	c0-0.4-0.3-0.8-0.7-0.8c0,0,0,0,0,0H28.8c-0.4,0-0.8,0.3-0.8,0.8c0,0.4,0.3,0.8,0.8,0.8h4.8v1.7C33.6,24,34,24.3,34.6,24.3
	C34.5,24.3,34.6,24.3,34.6,24.3L34.6,24.3z M39.8,27.1c0.4,0,0.7-0.3,0.7-0.7c0-0.4-0.3-0.7-0.7-0.7h-8.9v-2.1
	c0-0.5-0.4-0.9-0.9-0.8c0,0-0.1,0-0.1,0c-0.5-0.1-0.9,0.3-1,0.8c0,0,0,0.1,0,0.1v2.7c-0.1,0.4,0.3,0.9,0.7,0.9c0.1,0,0.1,0,0.2,0
	L39.8,27.1z M53.1,21.8c0.6,0,1-0.3,1-0.8v-2.4h1c0.4,0,0.8-0.4,0.8-0.8c0,0,0,0,0,0c0-0.4-0.3-0.8-0.7-0.8c0,0,0,0,0,0h-1v-2
	c0-0.5-0.4-0.9-0.9-0.8c0,0-0.1,0-0.1,0c-0.5-0.1-0.9,0.3-1,0.8c0,0,0,0.1,0,0.1v6C52.1,21.5,52.5,21.8,53.1,21.8
	C53.1,21.8,53.1,21.8,53.1,21.8z M43.3,21.3c1.4-0.2,2.6-1.2,3.2-2.5c0.6,1.3,1.8,2.1,3.2,2.3c0.4,0.1,0.9-0.2,1-0.6
	c0-0.1,0-0.1,0-0.2c0-0.4-0.3-0.7-0.6-0.8c-1.5-0.2-2.7-1.6-2.6-3.1v-0.2h2.4c0.4,0,0.8-0.3,0.8-0.8c0-0.4-0.4-0.8-0.8-0.8h-6.6
	c-0.4,0-0.8,0.4-0.8,0.8c0,0.4,0.4,0.8,0.8,0.8h2.4v0.2c0,1.6-1.1,3-2.7,3.3c-0.4,0.1-0.6,0.4-0.6,0.8c0,0.5,0.4,0.8,0.8,0.8
	C43.2,21.3,43.2,21.3,43.3,21.3z M42.9,24.7c0,1.4,1.2,2.5,2.6,2.5c0,0,0.1,0,0.1,0h6c1.4,0.1,2.6-1,2.7-2.4c0,0,0-0.1,0-0.1
	c0-1.4-1.2-2.5-2.6-2.5c0,0-0.1,0-0.1,0h-6c-1.4-0.1-2.6,1-2.7,2.4C42.9,24.6,42.9,24.6,42.9,24.7z M46,25.7
	c-0.6,0.1-1.1-0.3-1.1-0.9c0,0,0-0.1,0-0.1c0-0.6,0.5-1,1-1c0,0,0.1,0,0.1,0h5.3c0.6-0.1,1.1,0.3,1.1,0.9c0,0,0,0.1,0,0.1
	c0,0.6-0.4,1-1,1c0,0-0.1,0-0.1,0H46z"/>
</svg>
