<?xml version="1.0" encoding="utf-8"?>
<!-- Generator: Adobe Illustrator 27.4.0, SVG Export Plug-In . SVG Version: 6.00 Build 0)  -->
<svg version="1.1" id="레이어_1" xmlns="http://www.w3.org/2000/svg" xmlns:xlink="http://www.w3.org/1999/xlink" x="0px"
	 y="0px" viewBox="0 0 100.9 80" style="enable-background:new 0 0 100.9 80;" xml:space="preserve">
<style type="text/css">
	.st0{fill:#523E2E;}
	.st1{clip-path:url(#SVGID_00000148651834374993526010000016812238743067194766_);}
	.st2{fill:#FF5000;}
	.st3{fill:#FFFFFF;}
	.st4{clip-path:url(#SVGID_00000135659205130993297220000007974330154394239678_);}
</style>
<g id="teen_bi" transform="translate(0 0)">
	<path id="패스_64416" class="st0" d="M54.9,29.7h18.8v-7.4H51.4v3h18.8v1.5H51.4v7.4h22.7v-3H54.9V29.7z"/>
	<path id="패스_64417" class="st0" d="M70.1,16.8h3.6V8.6H51.3v3.1H70L70.1,16.8z"/>
	<g id="그룹_23487" transform="translate(0 0)">
		<g>
			<g>
				<defs>
					<rect id="SVGID_1_" width="100.9" height="39.8"/>
				</defs>
				<clipPath id="SVGID_00000089550382936592595780000018374510218471933075_">
					<use xlink:href="#SVGID_1_"  style="overflow:visible;"/>
				</clipPath>
				<g id="그룹_23486" style="clip-path:url(#SVGID_00000089550382936592595780000018374510218471933075_);">
					<path id="패스_64418" class="st0" d="M62.6,18.6c-0.4-0.7-1.2-1.1-2-1.1H49.7v3.1h25.8v-3.1h-11C63.7,17.5,63,17.9,62.6,18.6
						"/>
					<path id="패스_64419" class="st0" d="M81.9,30.9v-4.6h-3.6v7.9H101v-3.3L81.9,30.9z"/>
					<rect id="사각형_57800" x="96.7" y="8.6" class="st0" width="3.6" height="19.1"/>
					<path id="패스_64420" class="st0" d="M93.6,21.1H80.9v-3h12.2V15H82.9c-0.7,0-1.5,0.2-2,0.7v-3.6h12.7V9H77.3v15.3h16.3
						L93.6,21.1z"/>
					<path id="패스_64421" class="st0" d="M25.3,8.6c-2.8,0-5.2,2.3-5.2,5.2l0,0v25.4c0,0.4,0.3,0.7,0.7,0.7
						c0.3,0,0.5-0.1,0.6-0.4c1.4-3.2,4.6-5.3,8.1-5.2h16.2V8.6H25.3z"/>
					<rect id="사각형_57801" x="30.4" y="28.6" class="st2" width="15.4" height="1.8"/>
					<rect id="사각형_57802" x="30.4" y="17.9" class="st2" width="15.4" height="1.8"/>
					<path id="패스_64422" class="st2" d="M21.3,0H0v27.4h10.8c2.3,0,4.1,1.9,4.1,4.2l0,0h1.8V10.3H1.8V1.8h19.5
						c2.3,0,4.2,1.9,4.2,4.2h1.8C27.4,2.7,24.7,0,21.3,0 M14.9,12.1v15.2c-1.1-1.1-2.6-1.7-4.1-1.7h-9V12.1H14.9z"/>
				</g>
			</g>
		</g>
	</g>
</g>
<g id="teen_bi_00000062191884995797958820000017670952732075727544_" transform="translate(0 0)">
	<path id="패스_64416_00000085934128604714051180000005852133326143421331_" class="st3" d="M54.9,69.7h18.8v-7.4H51.4v3h18.8v1.5
		H51.4v7.4h22.7v-3H54.9V69.7z"/>
	<path id="패스_64417_00000045598458924538544760000014930056146156220084_" class="st3" d="M70.1,56.8h3.6v-8.2H51.3v3.1H70
		L70.1,56.8z"/>
	<g id="그룹_23487_00000095323042498991319700000010293211492546709922_" transform="translate(0 0)">
		<g>
			<g>
				<defs>
					<rect id="SVGID_00000166671649214960952860000011259912779589285799_" y="40" width="100.9" height="39.8"/>
				</defs>
				<clipPath id="SVGID_00000157996871911105051410000010702412368178115997_">
					<use xlink:href="#SVGID_00000166671649214960952860000011259912779589285799_"  style="overflow:visible;"/>
				</clipPath>
				
					<g id="그룹_23486_00000098188154714536639180000015870993460298440382_" style="clip-path:url(#SVGID_00000157996871911105051410000010702412368178115997_);">
					<path id="패스_64418_00000158007615272332603890000009160309076119691182_" class="st3" d="M62.6,58.5
						c-0.4-0.7-1.2-1.1-2-1.1H49.7v3.1h25.8v-3.1h-11C63.7,57.5,63,57.9,62.6,58.5"/>
					<path id="패스_64419_00000098188836912630661700000005343681200853053832_" class="st3" d="M81.9,70.9v-4.7h-3.6v7.9H101
						v-3.3L81.9,70.9z"/>
					
						<rect id="사각형_57800_00000016067258053773303180000007142578784044334501_" x="96.7" y="48.6" class="st3" width="3.6" height="19.1"/>
					<path id="패스_64420_00000065071358493123208850000007700826289014959502_" class="st3" d="M93.6,61.1H80.9v-3h12.2V55H82.9
						c-0.7,0-1.5,0.2-2,0.7v-3.6h12.7V49H77.3v15.2h16.3L93.6,61.1z"/>
					<path id="패스_64421_00000091725039189967642980000018268007143034507711_" class="st0" d="M25.3,48.6
						c-2.8,0-5.2,2.3-5.2,5.2l0,0v25.4c0,0.4,0.3,0.7,0.7,0.7c0.3,0,0.5-0.1,0.6-0.4c1.4-3.2,4.6-5.3,8.1-5.2h16.2V48.6H25.3z"/>
					
						<rect id="사각형_57801_00000160907809196083547510000004819982935486579642_" x="30.4" y="68.5" class="st2" width="15.4" height="1.8"/>
					
						<rect id="사각형_57802_00000149346509945048725320000009980972189578717077_" x="30.4" y="57.9" class="st2" width="15.4" height="1.8"/>
					<path id="패스_64422_00000039094637503995505680000016650634497358758321_" class="st2" d="M21.3,40H0v27.4h10.8
						c2.3,0,4.1,1.9,4.1,4.2l0,0h1.8V50.2H1.8v-8.4h19.5c2.3,0,4.2,1.9,4.2,4.2h1.8C27.4,42.7,24.7,40,21.3,40 M14.9,52v15.2
						c-1.1-1.1-2.6-1.7-4.1-1.7h-9V52H14.9z"/>
				</g>
			</g>
		</g>
	</g>
</g>
</svg>
