<?xml version="1.0" encoding="utf-8"?>
<!-- Generator: Adobe Illustrator 27.4.0, SVG Export Plug-In . SVG Version: 6.00 Build 0)  -->
<svg version="1.1" id="레이어_1" xmlns="http://www.w3.org/2000/svg" xmlns:xlink="http://www.w3.org/1999/xlink" x="0px"
	 y="0px" viewBox="0 0 56 28" style="enable-background:new 0 0 56 28;" xml:space="preserve">
<style type="text/css">
	.st0{fill:#64503D;}
	.st1{fill:#FFFFFF;}
</style>
<path id="문장웹진" class="st0" d="M12.3,5.1c0.4,0,0.8-0.3,0.9-0.7c0-0.1,0-0.1,0-0.2V1.1c0-0.4-0.3-0.8-0.7-0.9
	c-0.1,0-0.1,0-0.2,0H2.7c-0.4,0-0.8,0.3-0.9,0.7c0,0.1,0,0.1,0,0.2v3.1c0,0.4,0.3,0.8,0.7,0.9c0.1,0,0.1,0,0.2,0H12.3z M3.8,1.7h7.4
	v2H3.8V1.7z M7.5,10.2c0.5,0,1-0.3,1-0.8V7.6h4.7c0.4,0,0.8-0.3,0.8-0.7l0,0c0-0.4-0.3-0.8-0.7-0.8l0,0H1.8C1.3,6.1,1,6.5,1,6.9
	s0.3,0.8,0.8,0.8h4.8v1.7C6.6,9.8,7,10.2,7.5,10.2L7.5,10.2L7.5,10.2z M12.7,13c0.4,0,0.7-0.3,0.7-0.7s-0.3-0.7-0.7-0.7H3.8V9.4
	c0-0.5-0.4-0.9-0.9-0.8H2.8c-0.5-0.1-0.9,0.3-1,0.8v0.1V12c-0.1,0.4,0.3,0.9,0.7,0.9c0.1,0,0.1,0,0.2,0h10V13z M26,7.6
	c0.6,0,1-0.3,1-0.8V4.4h1c0.4,0,0.8-0.4,0.8-0.8l0,0c0-0.4-0.3-0.8-0.7-0.8l0,0h-1v-2C27,0.4,26.6,0,26.1,0H26
	c-0.5-0.1-0.9,0.3-1,0.8v0.1v6C25.1,7.3,25.5,7.7,26,7.6L26,7.6L26,7.6z M16.2,7.1c1.4-0.2,2.6-1.2,3.2-2.5C20,5.9,21.2,6.8,22.6,7
	c0.4,0.1,0.9-0.2,1-0.6c0-0.1,0-0.1,0-0.2c0-0.4-0.3-0.7-0.6-0.8c-1.5-0.2-2.7-1.6-2.6-3.1V2h2.4c0.4,0,0.8-0.3,0.8-0.8
	c0-0.4-0.4-0.8-0.8-0.8h-6.6c-0.4,0-0.8,0.4-0.8,0.8S15.8,2,16.2,2h2.4v0.2c0,1.6-1.1,3-2.7,3.3c-0.4,0.1-0.6,0.4-0.6,0.8
	c0,0.5,0.4,0.8,0.8,0.8C16.1,7.1,16.2,7.1,16.2,7.1z M15.9,10.5c0,1.4,1.2,2.5,2.6,2.5h0.1h6c1.4,0.1,2.6-1,2.7-2.4v-0.1
	c0-1.4-1.2-2.5-2.6-2.5h-0.1h-6c-1.4-0.1-2.6,1-2.7,2.4C15.9,10.4,15.9,10.5,15.9,10.5z M19,11.5c-0.6,0.1-1.1-0.3-1.1-0.9v-0.1
	c0-0.6,0.5-1,1-1H19h5.3c0.6-0.1,1.1,0.3,1.1,0.9v0.1c0,0.6-0.4,1-1,1h-0.1H19z M35.1,6.4c-0.4,0-0.7,0.3-0.7,0.7l0,0
	c0,0.4,0.3,0.7,0.7,0.7h2.2c0.1,0.4,0.5,0.6,0.8,0.5C38.6,8.3,39,8,39,7.6V0.7C39,0.2,38.6,0,38.1,0s-0.9,0.3-0.9,0.7v5.6L35.1,6.4z
	 M40.8,0c-0.5,0-0.9,0.3-0.9,0.7v6.8c0,0.5,0.4,0.7,0.9,0.7s0.9-0.3,0.9-0.7V0.7C41.7,0.3,41.3,0,40.8,0C40.9,0,40.9,0,40.8,0
	L40.8,0z M34.2,3.9c1,0.1,1.9-0.7,1.9-1.7V2.1c0-1-0.8-1.8-1.9-1.8h-0.1h-2.7c-1-0.1-1.9,0.7-1.9,1.7v0.1c0,1,0.8,1.8,1.8,1.8h0.1
	H34.2z M33.9,1.5c0.3,0,0.6,0.2,0.6,0.6l0,0c0,0.3-0.3,0.5-0.6,0.5l0,0h-2c-0.3,0-0.6-0.2-0.6-0.5l0,0c0-0.3,0.3-0.6,0.6-0.6l0,0
	C31.9,1.5,33.9,1.5,33.9,1.5z M31.1,7.3c-0.3,0.5,0.2,1.1,0.9,1.1c0.4,0,0.7-0.2,0.8-0.6c0.3-0.6,0.6-1.2,0.7-1.9H36
	c0.4,0,0.7-0.3,0.7-0.7c0-0.4-0.3-0.7-0.7-0.7l0,0h-6.3c-0.4,0-0.7,0.3-0.7,0.7l0,0c0,0.4,0.3,0.7,0.7,0.7h1.9
	C31.5,6.4,31.3,6.9,31.1,7.3z M40.7,8.5c-0.5-0.1-0.9,0.3-1,0.7c0,0,0,0,0,0.1v0.1h-7.5V9.3c0-0.5-0.4-0.8-1-0.8
	c-0.5-0.1-0.9,0.3-0.9,0.7v0.1V12c-0.1,0.4,0.3,0.8,0.7,0.9c0.1,0,0.1,0,0.2,0l8.6-0.4c0.2,0.4,0.5,0.6,0.9,0.5c0.5,0,1-0.3,1-0.8
	V9.3C41.7,8.9,41.3,8.5,40.7,8.5C40.8,8.5,40.8,8.5,40.7,8.5L40.7,8.5z M39.8,10.7v0.5l-7.5,0.3v-0.8H39.8z M54.5,9.7
	c0.5,0.1,0.9-0.3,1-0.8c0,0,0,0,0-0.1V0.9C55.4,0.4,55,0,54.5,0c0,0,0,0-0.1,0c-0.5-0.1-0.9,0.3-1,0.8c0,0,0,0,0,0.1V9
	C53.5,9.4,53.9,9.8,54.5,9.7C54.4,9.7,54.4,9.7,54.5,9.7z M44.2,7.6c1.4-0.2,2.6-1.2,3.2-2.5c0.6,1.3,1.8,2.2,3.3,2.5
	c0.4,0.1,0.9-0.2,1-0.6c0-0.1,0-0.1,0-0.2c0-0.4-0.3-0.7-0.6-0.8c-1.6-0.3-2.7-1.7-2.7-3.3V2h2.4c0.4,0,0.8-0.4,0.8-0.8
	s-0.3-0.8-0.8-0.8h-6.7c-0.4,0-0.8,0.4-0.8,0.8S43.6,2,44.1,2l0,0h2.4v0.7c0,1.6-1.1,3-2.7,3.3c-0.4,0.1-0.6,0.4-0.6,0.8
	c0,0.5,0.4,0.8,0.8,0.8C44.1,7.6,44.1,7.6,44.2,7.6z M55,12.9c0.4,0,0.8-0.3,0.8-0.8c0-0.4-0.3-0.8-0.8-0.8h-8.8v-2
	c0-0.5-0.4-0.9-0.9-0.9h-0.1c-0.5-0.1-0.9,0.3-1,0.8c0,0,0,0,0,0.1V12c-0.1,0.4,0.3,0.9,0.7,0.9c0.1,0,0.1,0,0.2,0H55z"/>
<path id="문장웹진_00000021101717963433771320000010827915303763265453_" class="st1" d="M12.3,19.1c0.4,0,0.8-0.3,0.9-0.7
	c0-0.1,0-0.1,0-0.2v-3.1c0-0.4-0.3-0.8-0.7-0.9c-0.1,0-0.1,0-0.2,0H2.7c-0.4,0-0.8,0.3-0.9,0.7c0,0.1,0,0.1,0,0.2v3.1
	c0,0.4,0.3,0.8,0.7,0.9c0.1,0,0.1,0,0.2,0L12.3,19.1z M3.8,15.7h7.4v2H3.8V15.7z M7.5,24.2c0.5,0,1-0.3,1-0.8v-1.7h4.7
	c0.4,0,0.8-0.3,0.8-0.7l0,0c0-0.4-0.3-0.8-0.7-0.8l0,0H1.8C1.4,20.2,1,20.5,1,21c0,0.4,0.3,0.8,0.8,0.8h4.8v1.7
	C6.6,23.8,7,24.2,7.5,24.2L7.5,24.2L7.5,24.2z M12.7,27c0.4,0,0.7-0.3,0.7-0.7c0-0.4-0.3-0.7-0.7-0.7H3.8v-2.1
	c0-0.5-0.4-0.9-0.9-0.8H2.8c-0.5-0.1-0.9,0.3-1,0.8v0.1v2.7c-0.1,0.4,0.3,0.9,0.7,0.9c0.1,0,0.1,0,0.2,0h10V27z M26,21.7
	c0.6,0,1-0.3,1-0.8v-2.4h1c0.4,0,0.8-0.4,0.8-0.8l0,0c0-0.4-0.3-0.8-0.7-0.8l0,0h-1v-2c0-0.5-0.4-0.9-0.9-0.8h-0.1
	c-0.5-0.1-0.9,0.3-1,0.8V15v6C25.1,21.3,25.5,21.7,26,21.7L26,21.7L26,21.7z M16.2,21.1c1.4-0.2,2.6-1.2,3.2-2.5
	c0.6,1.3,1.8,2.1,3.2,2.3c0.4,0.1,0.9-0.2,1-0.6c0-0.1,0-0.1,0-0.2c0-0.4-0.3-0.7-0.6-0.8c-1.5-0.2-2.7-1.6-2.6-3.1V16h2.4
	c0.4,0,0.8-0.3,0.8-0.8c0-0.4-0.4-0.8-0.8-0.8h-6.6c-0.4,0-0.8,0.4-0.8,0.8c0,0.4,0.4,0.8,0.8,0.8h2.4v0.2c0,1.6-1.1,3-2.7,3.3
	c-0.4,0.1-0.6,0.4-0.6,0.8c0,0.5,0.4,0.8,0.8,0.8C16.1,21.1,16.2,21.1,16.2,21.1z M15.9,24.5c0,1.4,1.2,2.5,2.6,2.5h0.1h6
	c1.4,0.1,2.6-1,2.7-2.4v-0.1c0-1.4-1.2-2.5-2.6-2.5h-0.1h-6c-1.4-0.1-2.6,1-2.7,2.4C15.9,24.4,15.9,24.5,15.9,24.5z M19,25.5
	c-0.6,0.1-1.1-0.3-1.1-0.9v-0.1c0-0.6,0.5-1,1-1H19h5.3c0.6-0.1,1.1,0.3,1.1,0.9v0.1c0,0.6-0.4,1-1,1h-0.1H19z M35.1,20.4
	c-0.4,0-0.7,0.3-0.7,0.7l0,0c0,0.4,0.3,0.7,0.7,0.7h2.2c0.1,0.4,0.5,0.6,0.8,0.5c0.5,0,0.9-0.3,0.9-0.7v-6.8c0-0.5-0.4-0.7-0.9-0.7
	s-0.9,0.3-0.9,0.7v5.6H35.1z M40.8,14c-0.5,0-0.9,0.3-0.9,0.7v6.8c0,0.5,0.4,0.7,0.9,0.7s0.9-0.3,0.9-0.7v-6.8
	C41.7,14.3,41.3,14,40.8,14C40.9,14,40.9,14,40.8,14L40.8,14z M34.2,17.9c1,0.1,1.9-0.7,1.9-1.7v-0.1c0-1-0.8-1.8-1.9-1.8h-0.1h-2.7
	c-1-0.1-1.9,0.7-1.9,1.7v0.1c0,1,0.8,1.8,1.8,1.8h0.1L34.2,17.9z M33.9,15.6c0.3,0,0.6,0.2,0.6,0.6l0,0c0,0.3-0.3,0.5-0.6,0.5l0,0
	h-2c-0.3,0-0.6-0.2-0.6-0.5l0,0c0-0.3,0.3-0.6,0.6-0.6l0,0H33.9z M31.1,21.3c-0.3,0.5,0.2,1.1,0.9,1.1c0.4,0,0.7-0.2,0.8-0.6
	c0.3-0.6,0.6-1.2,0.7-1.9H36c0.4,0,0.7-0.3,0.7-0.7c0-0.4-0.3-0.7-0.7-0.7l0,0h-6.3c-0.4,0-0.7,0.3-0.7,0.7l0,0
	c0,0.4,0.3,0.7,0.7,0.7h1.9C31.5,20.4,31.3,20.9,31.1,21.3z M40.7,22.5c-0.5-0.1-0.9,0.3-1,0.7c0,0,0,0,0,0.1v0.1h-7.5v-0.1
	c0-0.5-0.4-0.8-1-0.8c-0.5-0.1-0.9,0.3-0.9,0.7v0.1V26c-0.1,0.4,0.3,0.8,0.7,0.9c0.1,0,0.1,0,0.2,0l8.6-0.4c0.2,0.4,0.5,0.6,0.9,0.5
	c0.5,0,1-0.3,1-0.8v-2.9C41.7,22.9,41.3,22.5,40.7,22.5C40.8,22.5,40.8,22.5,40.7,22.5L40.7,22.5z M39.8,24.7v0.5l-7.5,0.3v-0.8
	H39.8z M54.5,23.8c0.5,0.1,0.9-0.3,1-0.8c0,0,0,0,0-0.1v-8.1c0-0.5-0.4-0.9-0.9-0.9c0,0,0,0-0.1,0c-0.5-0.1-0.9,0.3-1,0.8
	c0,0,0,0,0,0.1v8.1C53.5,23.4,53.9,23.8,54.5,23.8C54.4,23.8,54.4,23.8,54.5,23.8z M44.2,21.6c1.4-0.2,2.6-1.2,3.2-2.5
	c0.6,1.3,1.8,2.2,3.3,2.5c0.4,0.1,0.9-0.2,1-0.6c0-0.1,0-0.1,0-0.2c0-0.4-0.3-0.7-0.6-0.8c-1.6-0.3-2.7-1.7-2.7-3.3V16h2.4
	c0.4,0,0.8-0.4,0.8-0.8c0-0.4-0.3-0.8-0.8-0.8h-6.7c-0.4,0-0.8,0.4-0.8,0.8c0,0.4,0.3,0.8,0.8,0.8l0,0h2.4v0.7c0,1.6-1.1,3-2.7,3.3
	c-0.4,0.1-0.6,0.4-0.6,0.8c0,0.5,0.4,0.8,0.8,0.8C44.1,21.6,44.1,21.6,44.2,21.6z M55,27c0.4,0,0.8-0.3,0.8-0.8
	c0-0.4-0.3-0.8-0.8-0.8h-8.8v-2.1c0-0.5-0.4-0.9-0.9-0.9h-0.1c-0.5-0.1-0.9,0.3-1,0.8c0,0,0,0,0,0.1V26c-0.1,0.4,0.3,0.9,0.7,0.9
	c0.1,0,0.1,0,0.2,0L55,27z"/>
</svg>
