<?xml version="1.0" encoding="utf-8"?>
<!-- Generator: Adobe Illustrator 27.4.0, SVG Export Plug-In . SVG Version: 6.00 Build 0)  -->
<svg version="1.1" id="레이어_1" xmlns="http://www.w3.org/2000/svg" xmlns:xlink="http://www.w3.org/1999/xlink" x="0px"
	 y="0px" viewBox="0 0 27 28" style="enable-background:new 0 0 27 28;" xml:space="preserve">
<style type="text/css">
	.st0{fill:#64503D;}
	.st1{fill:#FFFFFF;}
</style>
<path id="글틴" class="st0" d="M11.4,4.7c0.4-1.1,0.7-2.3,0.8-3.5c0.1-0.6-0.2-1-0.8-1H1.6c-0.4,0-0.7,0.3-0.7,0.7c0,0,0,0,0,0
	c0,0.4,0.3,0.7,0.7,0.7c0,0,0,0,0,0h8.6c-0.1,1-0.4,2-0.8,3H0.9C0.5,4.7,0.2,5,0.2,5.4c0,0,0,0,0,0c0,0.4,0.3,0.7,0.7,0.7
	c0,0,0,0,0,0h11.5c0.4,0,0.7-0.3,0.7-0.7c0,0,0,0,0,0c0-0.4-0.3-0.7-0.7-0.7c0,0,0,0,0,0L11.4,4.7z M3,11.6v-0.9h8.5
	c0.4,0,0.7-0.2,0.8-0.6c0-0.1,0-0.1,0-0.2V8c0-0.4-0.2-0.7-0.6-0.8c-0.1,0-0.1,0-0.2,0h-10c-0.4,0-0.7,0.3-0.7,0.6
	c0,0.4,0.3,0.6,0.6,0.6c0,0,0,0,0,0h8.7v0.9H1.8C1.4,9.4,1,9.7,1,10.1c0,0.1,0,0.1,0,0.2v2c0,0.4,0.2,0.7,0.6,0.8c0.1,0,0.1,0,0.2,0
	h10.1c0.4,0,0.7-0.3,0.7-0.7c0-0.4-0.3-0.7-0.7-0.7H3z M25.7,9.7c0.5,0.1,0.9-0.3,1-0.8c0,0,0,0,0-0.1v-8c0-0.5-0.4-0.9-0.9-0.9
	c0,0,0,0-0.1,0c-0.5-0.1-0.9,0.3-1,0.8c0,0,0,0.1,0,0.1v8C24.7,9.4,25.1,9.7,25.7,9.7z M21.6,1.9c0.4,0,0.8-0.3,0.8-0.7c0,0,0,0,0,0
	c0-0.4-0.3-0.7-0.8-0.7h-6.2c-0.4,0-0.7,0.3-0.8,0.7c0,0.4,0.3,0.8,0.8,0.8H21.6z M15.6,8.2c2.3,0,4.6-0.2,6.9-0.5
	c0.4,0,0.7-0.4,0.7-0.8c0-0.4-0.3-0.7-0.6-0.7c-0.1,0-0.1,0-0.2,0c-1.9,0.3-3.8,0.4-5.7,0.5V4.4h4.8c0.4,0,0.7-0.3,0.7-0.7
	c0,0,0,0,0,0c0-0.4-0.3-0.8-0.7-0.8h-5.9c-0.4,0-0.8,0.3-0.9,0.7c0,0.1,0,0.1,0,0.2v3.6c0,0.4,0.3,0.8,0.7,0.8
	C15.5,8.3,15.5,8.3,15.6,8.2z M26.2,12.9c0.4,0,0.8-0.3,0.8-0.8c0-0.4-0.3-0.8-0.8-0.8h-8.9V9.9c0-0.5-0.4-0.9-0.9-0.9
	c0,0,0,0-0.1,0c-0.5-0.1-0.9,0.3-1,0.8c0,0,0,0.1,0,0.1V12c-0.1,0.4,0.3,0.9,0.7,0.9c0.1,0,0.1,0,0.2,0L26.2,12.9z"/>
<path id="글틴_00000157988661561008514190000005848604878519408816_" class="st1" d="M11.4,18.7c0.4-1.1,0.7-2.3,0.8-3.5
	c0.1-0.6-0.2-1-0.8-1H1.6c-0.4,0-0.7,0.3-0.7,0.7c0,0,0,0,0,0c0,0.4,0.3,0.7,0.7,0.7c0,0,0,0,0,0h8.6c-0.1,1-0.4,2-0.8,3H0.9
	c-0.4,0-0.7,0.3-0.7,0.7c0,0,0,0,0,0c0,0.4,0.3,0.7,0.7,0.7c0,0,0,0,0,0h11.5c0.4,0,0.7-0.3,0.7-0.7c0,0,0,0,0,0
	c0-0.4-0.3-0.7-0.7-0.7c0,0,0,0,0,0L11.4,18.7z M3,25.6v-0.9h8.5c0.4,0,0.7-0.2,0.8-0.6c0-0.1,0-0.1,0-0.2v-1.9
	c0-0.4-0.2-0.7-0.6-0.8c-0.1,0-0.1,0-0.2,0h-10c-0.4,0-0.7,0.3-0.7,0.6c0,0.4,0.3,0.6,0.6,0.6c0,0,0,0,0,0h8.7v0.9H1.8
	c-0.4,0-0.7,0.2-0.8,0.6c0,0.1,0,0.1,0,0.2v2c0,0.4,0.2,0.7,0.6,0.8c0.1,0,0.1,0,0.2,0h10.1c0.4,0,0.7-0.3,0.7-0.7
	c0-0.4-0.3-0.7-0.7-0.7H3z M25.7,23.8c0.5,0.1,0.9-0.3,1-0.8c0,0,0,0,0-0.1v-8c0-0.5-0.4-0.9-0.9-0.9c0,0,0,0-0.1,0
	c-0.5-0.1-0.9,0.3-1,0.8c0,0,0,0.1,0,0.1v8C24.7,23.5,25.1,23.8,25.7,23.8z M21.6,15.9c0.4,0,0.8-0.3,0.8-0.7c0,0,0,0,0,0
	c0-0.4-0.3-0.7-0.8-0.7h-6.2c-0.4,0-0.7,0.3-0.8,0.7c0,0.4,0.3,0.8,0.8,0.8H21.6z M15.6,22.3c2.3,0,4.6-0.2,6.9-0.5
	c0.4,0,0.7-0.4,0.7-0.8c0-0.4-0.3-0.7-0.6-0.7c-0.1,0-0.1,0-0.2,0c-1.9,0.3-3.8,0.4-5.7,0.5v-2.3h4.8c0.4,0,0.7-0.3,0.7-0.7
	c0,0,0,0,0,0c0-0.4-0.3-0.8-0.7-0.8h-5.9c-0.4,0-0.8,0.3-0.9,0.7c0,0.1,0,0.1,0,0.2v3.6c0,0.4,0.3,0.8,0.7,0.8
	C15.5,22.3,15.5,22.3,15.6,22.3z M26.2,27c0.4,0,0.8-0.3,0.8-0.8c0-0.4-0.3-0.8-0.8-0.8h-8.9v-1.6c0-0.5-0.4-0.9-0.9-0.9
	c0,0,0,0-0.1,0c-0.5-0.1-0.9,0.3-1,0.8c0,0,0,0.1,0,0.1v2.2c-0.1,0.4,0.3,0.9,0.7,0.9c0.1,0,0.1,0,0.2,0L26.2,27z"/>
</svg>
