<?xml version="1.0" encoding="utf-8"?>
<!-- Generator: Adobe Illustrator 27.4.0, SVG Export Plug-In . SVG Version: 6.00 Build 0)  -->
<svg version="1.1" id="레이어_1" xmlns="http://www.w3.org/2000/svg" xmlns:xlink="http://www.w3.org/1999/xlink" x="0px"
	 y="0px" viewBox="0 0 161 80" style="enable-background:new 0 0 161 80;" xml:space="preserve">
<style type="text/css">
	.st0{fill:#523E2E;}
	.st1{clip-path:url(#SVGID_00000091704152247286539620000015267174390409081476_);}
	.st2{fill:#FFC000;}
	.st3{fill:#FFFFFF;}
	.st4{clip-path:url(#SVGID_00000126306450116259359320000005703964535578226833_);}
</style>
<g id="munjang_bi" transform="translate(0 0)">
	<path id="패스_64423" class="st0" d="M117.8,18.1h3.6V8.7h-14.8v3.1h11.2L117.8,18.1z"/>
	<g id="그룹_23490" transform="translate(0 0)">
		<g>
			<defs>
				<rect id="SVGID_1_" x="0" width="160.3" height="39.9"/>
			</defs>
			<clipPath id="SVGID_00000120533588753697349110000004241557439734426757_">
				<use xlink:href="#SVGID_1_"  style="overflow:visible;"/>
			</clipPath>
			<g id="그룹_23489" style="clip-path:url(#SVGID_00000120533588753697349110000004241557439734426757_);">
				<path id="패스_64424" class="st0" d="M128.8,8.7h-3.6v14.2h3.6V19c0-0.9-0.3-1.8-1-2.5h4.4v-3.4h-3.4V8.7z"/>
				<path id="패스_64425" class="st0" d="M118,23.9c-7.2,0-11.1,1.8-11.1,5.2c0,3.3,4.1,5.2,11.1,5.2s11.1-1.9,11.1-5.2
					C129.2,25.8,125.2,23.9,118,23.9 M125.5,29.1c0,1.4-2.8,2.2-7.4,2.2s-7.4-0.8-7.4-2.2c0-1.4,2.8-2.3,7.4-2.3
					S125.5,27.7,125.5,29.1"/>
				<path id="패스_64426" class="st0" d="M113.5,22.4h10.3v-3.1h-7.6c-0.9,0-1.7,0.3-2.4,1v-6.2h-3.5v5.2h-4.9v3.1H113.5
					L113.5,22.4z"/>
				<path id="패스_64427" class="st0" d="M146.1,23.3c-7.1,0-11,2-11,5.5s3.9,5.5,11,5.5s11-2,11-5.5S153.2,23.3,146.1,23.3
					 M153.4,28.8c0,1.5-2.8,2.4-7.2,2.4s-7.2-0.9-7.2-2.4c0-1.5,2.8-2.4,7.2-2.4S153.4,27.3,153.4,28.8"/>
				<path id="패스_64428" class="st0" d="M156.8,13.1V8.7h-3.6v14.2h3.6v-3.8c0.1-0.9-0.3-1.9-1-2.5h4.5v-3.4H156.8z"/>
				<path id="패스_64429" class="st0" d="M141,11.8c-0.3,3.7-3.2,6.6-6.8,7l-0.1,0v2.9l0.2,0c3.4-0.3,6.4-2.1,8.3-4.8l0.1-0.2
					l0,0.1l0.1,0.1c1.9,2.8,4.9,4.6,8.3,4.8l0.2,0v-2.9l-0.1,0c-3.6-0.4-6.5-3.4-6.8-7l0-0.2h7V8.8H134v2.8h7L141,11.8z"/>
				<path id="패스_64430" class="st0" d="M94.9,10.6h-7v-2h-3.6v2h-7v3h17.6V10.6z"/>
				<path id="패스_64431" class="st0" d="M100.6,8.7H97V25h3.6v-4.8c-0.1-0.8-0.4-1.5-0.9-2h4.4v-3.5h-3.5L100.6,8.7z"/>
				<path id="패스_64432" class="st0" d="M86.1,24.6c4.6,0,7.7-2.1,7.7-5.2c0-3-3.2-5.2-7.7-5.2c-4.6,0-7.7,2.1-7.7,5.2
					C78.3,22.5,81.5,24.6,86.1,24.6 M81.8,19.4c0-1.3,1.7-2.3,4.2-2.3s4.2,0.9,4.2,2.3c0,1.4-1.7,2.3-4.2,2.3
					C83.5,21.8,81.8,20.8,81.8,19.4"/>
				<path id="패스_64433" class="st0" d="M78.8,29.1H97v5.2h3.6v-8.4H78.8V29.1z"/>
				<path id="패스_64434" class="st0" d="M24.8,8.7c-2.9,0-5.2,2.3-5.2,5.2v25.4c0,0.4,0.3,0.7,0.7,0.7c0.3,0,0.5-0.1,0.6-0.4
					c1.4-3.2,4.6-5.3,8.1-5.3h16.3V8.7H24.8z"/>
				<path id="패스_64435" class="st2" d="M45.3,19.1v-1.8H19.7v1.8h11.9v4.6c0,4.8-4.8,8.7-10.6,8.7h-1.3v1.8h1.3
					c5.2,0,9.7-2.7,11.5-6.6c1.8,3.8,6.3,6.6,11.5,6.6h1.3v-1.8H44c-5.9,0-10.6-3.9-10.6-8.7v-4.6H45.3z"/>
				<rect id="사각형_57804" x="12.8" y="8.6" class="st2" width="1.8" height="10.2"/>
				<path id="패스_64436" class="st2" d="M21.4,0H0v27.5h10.3c2.3,0,4.1,1.9,4.1,4.3h1.8c0-1.6-0.6-3.1-1.7-4.3
					c-1.1-1.2-2.6-1.8-4.2-1.8H1.8V1.8h19.6c2.3,0,4.2,1.9,4.3,4.3h1.8C27.5,2.7,24.7,0,21.4,0"/>
				<path id="패스_64437" class="st0" d="M63.5,22.6c-0.6-1-1.8-1.6-3-1.5H49.3v3.1h11v4.3h3.6v-4.3h11v-3.1h-8.4
					C65.3,21,64.1,21.6,63.5,22.6"/>
				<path id="패스_64438" class="st0" d="M73,8.7h-8.7h-0.1c-0.9,0.1-1.7,0.6-2.2,1.4c-0.5-0.8-1.3-1.3-2.2-1.4H51v10.7h22L73,8.7
					z M69.5,16.2H54.6v-4.5h14.8V16.2z"/>
				<path id="패스_64439" class="st0" d="M54.6,26.3H51v8h22.6v-3.2h-19V26.3z"/>
			</g>
		</g>
	</g>
</g>
<g id="munjang_bi_00000022534023531246542670000001130653375368834696_" transform="translate(0 0)">
	<path id="패스_64423_00000019658521588093111910000008818059347362908835_" class="st3" d="M117.8,58.1h3.6v-9.4h-14.8v3.1h11.2
		L117.8,58.1z"/>
	<g id="그룹_23490_00000142860269966680710600000012729481539375083164_" transform="translate(0 0)">
		<g>
			<defs>
				<rect id="SVGID_00000176747666449276228720000010603762031507050642_" x="0" y="40.1" width="160.3" height="39.9"/>
			</defs>
			<clipPath id="SVGID_00000044146514457322454060000012026583442390920626_">
				<use xlink:href="#SVGID_00000176747666449276228720000010603762031507050642_"  style="overflow:visible;"/>
			</clipPath>
			
				<g id="그룹_23489_00000117643055682806192440000017731407901243871122_" style="clip-path:url(#SVGID_00000044146514457322454060000012026583442390920626_);">
				<path id="패스_64424_00000077317615343700407860000005585694676569816199_" class="st3" d="M128.8,48.7h-3.6v14.2h3.6v-3.9
					c0-0.9-0.3-1.8-1-2.5h4.4v-3.4h-3.4V48.7z"/>
				<path id="패스_64425_00000063613026851168321330000001639355118726238124_" class="st3" d="M118,64c-7.2,0-11.1,1.8-11.1,5.2
					c0,3.3,4.1,5.2,11.1,5.2s11.1-1.9,11.1-5.2C129.2,65.9,125.2,64,118,64 M125.5,69.2c0,1.4-2.8,2.2-7.4,2.2s-7.4-0.8-7.4-2.2
					c0-1.4,2.8-2.3,7.4-2.3S125.5,67.8,125.5,69.2"/>
				<path id="패스_64426_00000082363001344947374180000001832017548828059579_" class="st3" d="M113.5,62.5h10.3v-3.1h-7.6
					c-0.9,0-1.7,0.3-2.4,1v-6.2h-3.5v5.2h-4.9v3.1H113.5L113.5,62.5z"/>
				<path id="패스_64427_00000091007712179080236170000000015638049939249584_" class="st3" d="M146.1,63.3c-7.1,0-11,2-11,5.5
					c0,3.6,3.9,5.5,11,5.5s11-2,11-5.5C157.2,65.3,153.2,63.3,146.1,63.3 M153.4,68.9c0,1.5-2.8,2.4-7.2,2.4s-7.2-0.9-7.2-2.4
					c0-1.5,2.8-2.4,7.2-2.4S153.4,67.4,153.4,68.9"/>
				<path id="패스_64428_00000154400382367089312800000014837004119231112377_" class="st3" d="M156.8,53.2v-4.5h-3.6v14.2h3.6
					v-3.8c0.1-0.9-0.3-1.9-1-2.5h4.5v-3.4H156.8z"/>
				<path id="패스_64429_00000165946960394639874130000010815476251298799035_" class="st3" d="M141,51.9c-0.3,3.7-3.2,6.6-6.8,7
					l-0.1,0v2.9l0.2,0c3.4-0.3,6.4-2.1,8.3-4.8l0.1-0.2l0,0.1l0.1,0.1c1.9,2.8,4.9,4.6,8.3,4.8l0.2,0V59l-0.1,0
					c-3.6-0.4-6.5-3.4-6.8-7l0-0.2h7v-2.8H134v2.8h7L141,51.9z"/>
				<path id="패스_64430_00000042722630855308761140000007384176647559590068_" class="st3" d="M94.9,50.7h-7v-2h-3.6v2h-7v3h17.6
					V50.7z"/>
				<path id="패스_64431_00000097476853401989995440000010985098941958638231_" class="st3" d="M100.6,48.7H97V65h3.6v-4.8
					c-0.1-0.8-0.4-1.5-0.9-2h4.4v-3.5h-3.5L100.6,48.7z"/>
				<path id="패스_64432_00000083082444545590649460000010005271245875651222_" class="st3" d="M86.1,64.7c4.6,0,7.7-2.1,7.7-5.2
					c0-3-3.2-5.2-7.7-5.2c-4.6,0-7.7,2.1-7.7,5.2C78.3,62.6,81.5,64.7,86.1,64.7 M81.8,59.5c0-1.3,1.7-2.3,4.2-2.3s4.2,0.9,4.2,2.3
					c0,1.4-1.7,2.3-4.2,2.3C83.5,61.8,81.8,60.9,81.8,59.5"/>
				<path id="패스_64433_00000005240757655217033590000002571365184454379920_" class="st3" d="M78.8,69.2H97v5.2h3.6V66H78.8
					V69.2z"/>
				<path id="패스_64434_00000064347647189363529590000015932169507790255516_" class="st0" d="M24.8,48.7c-2.9,0-5.2,2.3-5.2,5.2
					v25.4c0,0.4,0.3,0.7,0.7,0.7c0.3,0,0.5-0.1,0.6-0.4c1.4-3.2,4.6-5.3,8.1-5.3h16.3V48.7H24.8z"/>
				<path id="패스_64435_00000162323264809125085440000000384032924231333512_" class="st2" d="M45.3,59.2v-1.8H19.7v1.8h11.9v4.6
					c0,4.8-4.8,8.7-10.6,8.7h-1.3v1.8h1.3c5.2,0,9.7-2.7,11.5-6.6c1.8,3.8,6.3,6.6,11.5,6.6h1.3v-1.8H44c-5.9,0-10.6-3.9-10.6-8.7
					v-4.6H45.3z"/>
				
					<rect id="사각형_57804_00000107587932325227016920000012584115820062240905_" x="12.8" y="48.7" class="st2" width="1.8" height="10.2"/>
				<path id="패스_64436_00000083793303005182493620000013106015639705445051_" class="st2" d="M21.4,40.1H0v27.5h10.3
					c2.3,0,4.1,1.9,4.1,4.3h1.8c0-1.6-0.6-3.1-1.7-4.3c-1.1-1.2-2.6-1.8-4.2-1.8H1.8V41.9h19.6c2.3,0,4.2,1.9,4.3,4.3h1.8
					C27.5,42.8,24.7,40.1,21.4,40.1"/>
				<path id="패스_64437_00000099660911712314971850000017231363685174544263_" class="st3" d="M63.5,62.7c-0.6-1-1.8-1.6-3-1.5
					H49.3v3.1h11v4.3h3.6v-4.3h11v-3.1h-8.4C65.3,61.1,64.1,61.7,63.5,62.7"/>
				<path id="패스_64438_00000087371194442998425090000015256813000203323272_" class="st3" d="M73,48.7h-8.7h-0.1
					c-0.9,0.1-1.7,0.6-2.2,1.4c-0.5-0.8-1.3-1.3-2.2-1.4H51v10.7h22L73,48.7z M69.5,56.3H54.6v-4.5h14.8V56.3z"/>
				<path id="패스_64439_00000005968257896393907230000012245487374771080360_" class="st3" d="M54.6,66.4H51v8h22.6v-3.2h-19
					V66.4z"/>
			</g>
		</g>
	</g>
</g>
</svg>
