<svg xmlns="http://www.w3.org/2000/svg" width="1606.86" height="99.42" viewBox="0 0 1606.86 99.42">
  <g id="그룹_23051" data-name="그룹 23051" transform="translate(-9.04 -420.94)">
    <path id="_" data-name="ㄱ" d="M45.86-7.2H22.74V-62.78h-70.7V-83.66H45.86Zm-22.12-1H44.86V-82.66H-46.96v18.88h70.7Z" transform="translate(57 520)" fill="#f16dab"/>
    <path id="_2" data-name="ㄴ" d="M47.26-7.2H-46.56V-85.06h23.12v56.98h70.7Zm-92.82-1H46.26V-27.08h-70.7V-84.06H-45.56Z" transform="translate(173 520)" fill="#f16dab"/>
    <path id="_3" data-name="ㄷ" d="M-46.56-83.66H45.16v20.88h-68.6v34.7h70V-7.2H-46.56Zm90.72,1H-45.56V-8.2H45.56V-27.08h-70v-36.7h68.6Z" transform="translate(289 520)" fill="#f16dab"/>
    <path id="_4" data-name="ㄹ" d="M46.56-5.8H-46.56V-55.52H21.76v-9.36H-46.56V-85.06H45.16v49.02H-23.16v10.06H46.56Zm-92.12-1H45.56V-24.98H-24.16V-37.04H44.16V-84.06H-45.56v18.18H22.76v11.36H-45.56Z" transform="translate(405 520)" fill="#f16dab"/>
    <path id="_5" data-name="ㅁ" d="M46.56-7.2H-46.56V-83.66H46.56Zm-92.12-1H45.56V-82.66H-45.56Zm70-18.88H-24.44v-36.7H24.44Zm-47.88-1H23.44v-34.7H-23.44Z" transform="translate(521 520)" fill="#f16dab"/>
    <path id="_6" data-name="ㅂ" d="M-46.56-84.36h23.12v18.9H23.44v-18.9H46.56V-7.2H-46.56Zm22.12,1H-45.56V-8.2H45.56V-83.36H24.44v18.9H-24.44Zm0,37.78H24.44v18.5H-24.44Zm47.88,1H-23.44v16.5H23.44Z" transform="translate(637 520)" fill="#f16dab"/>
    <path id="_7" data-name="ㅅ" d="M42.151-5.747-2.706-34.763A94.944,94.944,0,0,1-19.872-19.506,152.687,152.687,0,0,1-43.751-5.986l-.435.2L-54.719-26.267l.462-.223c15.733-7.589,27.173-15.344,34-23.051C-13.463-57.2-10.02-65.689-10.02-74.76v-10.3H13.1v10.3A58.185,58.185,0,0,1,9.431-54.383l45.3,28.891ZM-53.361-25.813-43.735-7.1c17.653-8.194,31.3-17.832,40.555-28.65l.284-.332L41.849-7.133l11.5-18.054L8.208-53.977l.145-.38A57.193,57.193,0,0,0,12.1-74.76v-9.3H-9.02v9.3a35.773,35.773,0,0,1-2.627,13.505,43.351,43.351,0,0,1-7.859,12.376,73.868,73.868,0,0,1-13.814,11.72A162.025,162.025,0,0,1-53.361-25.813Z" transform="translate(753 520)" fill="#f16dab"/>
    <path id="_8" data-name="ㅇ" d="M10.36-5.8H-10.36A43.551,43.551,0,0,1-21.283-7.129a36.285,36.285,0,0,1-9.564-3.993A37.309,37.309,0,0,1-38.7-17.383a36.98,36.98,0,0,1-5.837-8.142,40.511,40.511,0,0,1-3.615-9.568,45.363,45.363,0,0,1-1.2-10.546,44.387,44.387,0,0,1,1.2-10.425,40.055,40.055,0,0,1,3.615-9.481A36.545,36.545,0,0,1-38.7-73.619a37.02,37.02,0,0,1,7.858-6.191,36.552,36.552,0,0,1,9.563-3.939A44.1,44.1,0,0,1-10.36-85.06H10.36a44.1,44.1,0,0,1,10.922,1.311,36.551,36.551,0,0,1,9.563,3.939A37.019,37.019,0,0,1,38.7-73.619a36.546,36.546,0,0,1,5.838,8.073,40.055,40.055,0,0,1,3.615,9.481,44.387,44.387,0,0,1,1.2,10.425,45.363,45.363,0,0,1-1.2,10.546,40.511,40.511,0,0,1-3.615,9.568A36.98,36.98,0,0,1,38.7-17.383a37.309,37.309,0,0,1-7.858,6.262,36.285,36.285,0,0,1-9.564,3.993A43.551,43.551,0,0,1,10.36-5.8ZM-10.36-84.06a38.642,38.642,0,0,0-19.975,5.11A35.271,35.271,0,0,0-43.659-65.074a40.7,40.7,0,0,0-4.7,19.434,41.4,41.4,0,0,0,4.7,19.645A35.633,35.633,0,0,0-30.333-11.979,38.236,38.236,0,0,0-10.36-6.8H10.36a38.236,38.236,0,0,0,19.973-5.179A35.633,35.633,0,0,0,43.658-25.995a41.4,41.4,0,0,0,4.7-19.645,40.7,40.7,0,0,0-4.7-19.434A35.271,35.271,0,0,0,30.335-78.95,38.642,38.642,0,0,0,10.36-84.06ZM5.88-25.4H-5.88A26.4,26.4,0,0,1-14.6-26.758a19.1,19.1,0,0,1-6.809-4.1,17.68,17.68,0,0,1-4.375-6.41A22.256,22.256,0,0,1-27.24-45.5a21.507,21.507,0,0,1,1.454-8.1,17.171,17.171,0,0,1,4.379-6.271A19.2,19.2,0,0,1-14.6-63.858,27.041,27.041,0,0,1-5.88-65.18H5.88A27.041,27.041,0,0,1,14.6-63.858a19.2,19.2,0,0,1,6.808,3.989A17.171,17.171,0,0,1,25.786-53.6a21.507,21.507,0,0,1,1.454,8.1,22.256,22.256,0,0,1-1.453,8.235,17.68,17.68,0,0,1-4.375,6.41,19.1,19.1,0,0,1-6.809,4.1A26.4,26.4,0,0,1,5.88-25.4ZM-5.88-64.18c-6.188,0-11.185,1.7-14.853,5.049S-26.24-51.206-26.24-45.5c0,5.8,1.855,10.484,5.512,13.915S-12.066-26.4-5.88-26.4H5.88c6.186,0,11.181-1.744,14.848-5.185S26.24-39.7,26.24-45.5c0-5.706-1.853-10.292-5.507-13.631S12.068-64.18,5.88-64.18Z" transform="translate(869 520)" fill="#f16dab"/>
    <path id="_9" data-name="ㅈ" d="M42.45-5.763-2.434-31.852A94.123,94.123,0,0,1-19.65-18.336,171.3,171.3,0,0,1-43.906-5.979l-.433.182-10.1-20.355.487-.208c14.719-6.295,25.481-12.505,31.989-18.459C-15.7-50.549-12.043-56.5-11.079-62.5H-47.4V-83.66H47.4V-62.5H12.083A52.679,52.679,0,0,1,9.837-51.191L54.455-25.234ZM-53.077-25.649l9.216,18.565c18.026-7.64,31.813-16.3,40.983-25.745l.272-.28L42.11-7.117,53.065-24.886,8.642-50.729l.122-.382a51.606,51.606,0,0,0,2.358-11.924l.033-.464H46.4V-82.66H-46.4V-63.5H-9.929l-.075.566a25.046,25.046,0,0,1-3.479,9.589,42.34,42.34,0,0,1-7.809,9.264,75.261,75.261,0,0,1-13.055,9.217A180.834,180.834,0,0,1-53.077-25.649Z" transform="translate(985 520)" fill="#f16dab"/>
    <path id="_10" data-name="ㅊ" d="M44.581-5.771-3.27-30.749A92.528,92.528,0,0,1-20.957-17.629,169.089,169.089,0,0,1-45.741-5.973l-.434.166-9.8-20.924.5-.195C-42.474-32.018-32.2-37.412-24.944-42.957c6.948-5.311,11.3-10.893,12.95-16.6H-47.4v-21.3h36.12v-16.8h23.4v16.8H47.4v21.3H11.782a45.426,45.426,0,0,1-2.2,9.615L55.988-26.391Zm-99.2-20.419,8.956,19.116c18.4-7.092,32.51-15.382,41.955-24.643l.259-.254L44.179-7.109l10.433-18.86L8.335-49.457l.157-.419a44.279,44.279,0,0,0,2.352-10.244l.052-.441H46.4v-19.3H11.12v-16.8h-21.4v16.8H-46.4v19.3h35.7l-.158.623a25.532,25.532,0,0,1-4.567,9.1,46.948,46.948,0,0,1-8.914,8.67,93.537,93.537,0,0,1-13.231,8.27A175.11,175.11,0,0,1-54.621-26.189Z" transform="translate(1101 520)" fill="#f16dab"/>
    <path id="_11" data-name="ㅋ" d="M-47.96-83.66H45.86V-7.2H22.74V-28.3C4.4-26.85-16.781-26.11-40.239-26.1h-7.273L-48.69-46.56h10.47c21.549,0,42.056-.695,60.96-2.065V-62.78h-70.7Zm92.82,1H-46.96v18.88h70.7V-47.7l-.464.034c-19.056,1.394-39.746,2.1-61.5,2.1h-9.41l1.062,18.46h5.829c23.861,0,45.373-.753,63.94-2.238l.54-.043V-8.2H44.86Z" transform="translate(1217 520)" fill="#f16dab"/>
    <path id="_12" data-name="ㅌ" d="M46.56-5.8H-46.56V-85.06H44.46v20.18H-23.16v9.36H44.46v19.48H-23.16v10.06H46.56Zm-92.12-1H45.56V-24.98H-24.16V-37.04H43.46V-54.52H-24.16V-65.88H43.46V-84.06H-45.56Z" transform="translate(1333 520)" fill="#f16dab"/>
    <path id="_13" data-name="ㅍ" d="M-47.26-83.66H47.26V-63.2H31.16v35.12h16.8V-7.2H-47.96V-28.08h16.8V-63.2h-16.1Zm93.52,1H-46.26V-64.2h16.1v37.12h-16.8V-8.2H46.96V-27.08H30.16V-64.2h16.1Zm-56,18.46H9.74v37.12H-9.74Zm18.48,1H-8.74v35.12H8.74Z" transform="translate(1449 520)" fill="#f16dab"/>
    <path id="_14" data-name="ㅎ" d="M-11.7-99.06H11.7v14.7H50.9v20.6H-50.9v-20.6h39.2Zm22.4,1H-10.7v14.7H-49.9v18.6H49.9v-18.6H10.7ZM-14.14-56.92H14.14A33.378,33.378,0,0,1,30.2-53.15,27.485,27.485,0,0,1,41.031-42.813,28.573,28.573,0,0,1,44.88-28.14a28.307,28.307,0,0,1-3.849,14.533A27,27,0,0,1,30.194-3.338,33.892,33.892,0,0,1,14.14.36H-14.14a33.892,33.892,0,0,1-16.054-3.7A27,27,0,0,1-41.031-13.607,28.307,28.307,0,0,1-44.88-28.14a28.573,28.573,0,0,1,3.849-14.673A27.485,27.485,0,0,1-30.2-53.15,33.378,33.378,0,0,1-14.14-56.92ZM14.14-.64A32.907,32.907,0,0,0,29.726-4.222a26.018,26.018,0,0,0,10.443-9.891A27.321,27.321,0,0,0,43.88-28.14a27.587,27.587,0,0,0-3.711-14.167A26.5,26.5,0,0,0,29.722-52.27,32.392,32.392,0,0,0,14.14-55.92H-14.14a32.392,32.392,0,0,0-15.582,3.65,26.5,26.5,0,0,0-10.447,9.963A27.587,27.587,0,0,0-43.88-28.14a27.32,27.32,0,0,0,3.711,14.027A26.018,26.018,0,0,0-29.726-4.222,32.907,32.907,0,0,0-14.14-.64ZM-9.94-37.32H9.94c4.208,0,7.377.863,9.42,2.566a8.13,8.13,0,0,1,3.12,6.474,8.13,8.13,0,0,1-3.12,6.474c-2.043,1.7-5.212,2.566-9.42,2.566H-9.94c-4.208,0-7.377-.863-9.42-2.566a8.13,8.13,0,0,1-3.12-6.474,8.13,8.13,0,0,1,3.12-6.474C-17.317-36.457-14.148-37.32-9.94-37.32ZM9.94-20.24c3.967,0,6.921-.785,8.78-2.334a7.082,7.082,0,0,0,2.76-5.706,7.082,7.082,0,0,0-2.76-5.706c-1.859-1.549-4.813-2.334-8.78-2.334H-9.94c-3.967,0-6.921.785-8.78,2.334a7.082,7.082,0,0,0-2.76,5.706,7.082,7.082,0,0,0,2.76,5.706c1.859,1.549,4.813,2.334,8.78,2.334Z" transform="translate(1565 520)" fill="#f16dab"/>
  </g>
</svg>
