<svg xmlns="http://www.w3.org/2000/svg" width="32.04" height="17.6" viewBox="0 0 32.04 17.6">
  <g id="text" transform="translate(-103.84 -550.121)">
    <g id="그룹_23029" data-name="그룹 23029">
      <path id="ef75" d="M4.032-11.144H2.52V1.176H4.032V-5.04H5.88V-6.3H4.032Zm-9.744,8.96.868,1.176A9.294,9.294,0,0,0,.784-9.856H-5.04V-8.6H-.77C-1.064-5.8-2.688-3.7-5.712-2.184Z" transform="translate(130 564.041)" fill="#fff"/>
      <path id="ef75-2" data-name="ef75" d="M5.76-15.92H3.6V1.68H5.76V-7.2H8.4V-9H5.76ZM-8.16-3.12l1.24,1.68C-1.06-4.34,1.1-8.9,1.12-14.08H-7.2v1.8h6.1C-1.52-8.28-3.84-5.28-8.16-3.12Z" transform="translate(112 566.041)" fill="#fff"/>
    </g>
  </g>
</svg>
