<svg id="onepass" xmlns="http://www.w3.org/2000/svg" xmlns:xlink="http://www.w3.org/1999/xlink" width="50.932" height="46.145" viewBox="0 0 50.932 46.145">
  <defs>
    <clipPath id="clip-path">
      <rect id="사각형_2143" data-name="사각형 2143" width="50.932" height="46.145" fill="#fff"/>
    </clipPath>
  </defs>
  <g id="그룹_17549" data-name="그룹 17549" clip-path="url(#clip-path)">
    <path id="패스_29491" data-name="패스 29491" d="M4.137,4.136h8.283V0H0V12.415H4.138Zm0,29.584H0V46.143H12.421V42.005H4.137ZM27.36,40.7a2.18,2.18,0,0,0-2.415,1.909,8.644,8.644,0,0,1-1.286,3.131c-.087.133-.186.266-.284.4h5a11.547,11.547,0,0,0,.9-3.024A2.179,2.179,0,0,0,27.36,40.7M23.6,29.687a11.367,11.367,0,0,1,2.881-7.8,2.177,2.177,0,0,0-3.337-2.8h0a15.8,15.8,0,0,0-3.9,10.6c.015,3.007.611,5.555.59,7.37a4.388,4.388,0,0,1-.645,2.606A6.805,6.805,0,0,1,15.9,41.9a2.178,2.178,0,1,0,1.612,4.046,11.021,11.021,0,0,0,5.277-3.832,8.72,8.72,0,0,0,1.4-5.055c-.02-2.578-.6-4.985-.589-7.37M34.072,14.55a13.806,13.806,0,0,0-3.747.522A2.178,2.178,0,1,0,31.5,19.266a9.49,9.49,0,0,1,2.571-.359c3.261-.019,6.478,1.813,9.7,4.492,2.427,2,4.774,4.408,7.157,6.542V23.992c-1.388-1.309-2.843-2.67-4.379-3.947-3.5-2.894-7.564-5.476-12.48-5.494m16.858-.661V0H38.509V4.136h8.284l0,6.707A25.379,25.379,0,0,0,33.8,7.1a21.579,21.579,0,0,0-12.573,4c-7.339,5.121-9.67,12.388-9.612,19.471a46.58,46.58,0,0,0,.5,6.526,2.179,2.179,0,1,0,4.314-.614,41.818,41.818,0,0,1-.462-5.912c.055-6.292,1.719-11.585,7.768-15.911a17.194,17.194,0,0,1,10.06-3.2,21.759,21.759,0,0,1,14.147,5.614c.964.852,1.965,1.692,2.981,2.528V13.891h0M38.645,32.49a2.178,2.178,0,0,0-3.434,2.679,77.526,77.526,0,0,0,7.262,7.889,45.031,45.031,0,0,0,3.649,3.087h4.81V44.131c-.241-.135-.485-.279-.735-.443-4.577-2.883-10.262-9.517-11.551-11.2M43.459,27.3c-2.064-1.911-3.577-3.362-5.206-4.144a9.688,9.688,0,0,0-3.962-.926,6.857,6.857,0,0,0-5.69,2.956,10.441,10.441,0,0,0-1.758,6.046,13.658,13.658,0,0,0,.468,3.505c.923,3.292,3.512,7.429,7.132,11.4h6.15c-.195-.178-.39-.354-.581-.534-4.5-4.176-7.842-9.4-8.493-12a9.227,9.227,0,0,1-.319-2.376,6.159,6.159,0,0,1,.95-3.518,2.452,2.452,0,0,1,2.141-1.128,5.387,5.387,0,0,1,2.182.546,24.462,24.462,0,0,1,4,3.335c1.942,1.837,4.26,4.138,6.614,6.332,1.315,1.221,2.658,2.288,3.848,3.239V34.41c-.3-.259-.593-.521-.879-.793-2.288-2.132-4.588-4.42-6.593-6.312" transform="translate(0 0.001)" fill="#fff"/>
  </g>
</svg>
