<?xml version="1.0" encoding="utf-8"?>
<!-- Generator: Adobe Illustrator 27.3.1, SVG Export Plug-In . SVG Version: 6.00 Build 0)  -->
<svg version="1.1" id="레이어_1" xmlns="http://www.w3.org/2000/svg" xmlns:xlink="http://www.w3.org/1999/xlink" x="0px"
	 y="0px" viewBox="0 0 18.8 20.6" style="enable-background:new 0 0 18.8 20.6;" xml:space="preserve">
<style type="text/css">
	.st0{fill:#4C4C4C;}
</style>
<g transform="translate(-3.5 -2)">
	<path class="st0" d="M6.4,10.4h13c1.6,0,2.9,1.3,2.9,2.9v6.5c0,1.6-1.3,2.9-2.9,2.9h-13c-1.6,0-2.9-1.3-2.9-2.9v-6.5
		C3.5,11.7,4.8,10.4,6.4,10.4z M19.4,20.6c0.5,0,0.9-0.4,0.9-0.9v-6.5c0-0.5-0.4-0.9-0.9-0.9h-13c-0.5,0-0.9,0.4-0.9,0.9v6.5
		c0,0.5,0.4,0.9,0.9,0.9H19.4z"/>
	<path class="st0" d="M17.5,12.4c-0.6,0-1-0.4-1-1V7.7c0-2-1.6-3.7-3.7-3.7c-2,0-3.7,1.6-3.7,3.7c0,0,0,0,0,0v3.7c0,0.6-0.4,1-1,1
		s-1-0.4-1-1V7.7C7.2,4.5,9.8,2,12.9,2s5.7,2.5,5.7,5.7v3.7C18.5,11.9,18.1,12.4,17.5,12.4z"/>
</g>
</svg>
